<?xml version="1.0" encoding="UTF-8"?>
<svg version="1.1" xmlns="http://www.w3.org/2000/svg" width="1024" height="1024">
<path d="M0 0 C337.92 0 675.84 0 1024 0 C1024 337.92 1024 675.84 1024 1024 C686.08 1024 348.16 1024 0 1024 C0 686.08 0 348.16 0 0 Z " fill="#672012" transform="translate(0,0)"/>
<path d="M0 0 C-2.20515503 9.28453773 -4.91225135 18.32220687 -7.88085938 27.38745117 C-8.23599609 28.4726001 -8.59113281 29.55774902 -8.95703125 30.67578125 C-9.30588379 31.74135254 -9.65473633 32.80692383 -10.01416016 33.90478516 C-10.92074439 36.75116329 -11.76139649 39.60616382 -12.57421875 42.48046875 C-12.93906372 43.71482666 -12.93906372 43.71482666 -13.3112793 44.97412109 C-13.755317 46.48174006 -14.17659942 47.9963402 -14.56958008 49.51806641 C-15.40413488 52.26342527 -16.21223076 54.46935672 -18.65000916 56.1114502 C-23.3169509 58.30340716 -27.99556631 60.20295939 -32.87890625 61.85546875 C-33.62796234 62.11443436 -34.37701843 62.37339996 -35.14877319 62.64021301 C-36.7699558 63.20043222 -38.39193158 63.7583604 -40.01461792 64.31420898 C-44.4543129 65.83592216 -48.88730926 67.37688982 -53.3203125 68.91796875 C-54.25683151 69.24328583 -55.19335052 69.56860291 -56.1582489 69.90377808 C-69.4234542 74.52420433 -82.61844693 79.34047367 -95.82055664 84.13745117 C-97.70195783 84.82087744 -99.58338623 85.50422881 -101.46484375 86.1875 C-102.36088821 86.51297318 -103.25693268 86.83844635 -104.18013 87.17378235 C-112.43531927 90.16747976 -120.71281031 93.09621823 -129 96 C-115.8453197 94.28066866 -102.80048394 92.12117088 -89.75 89.75 C-76.21190031 87.29288998 -62.66974547 84.86590581 -49.10949707 82.53356934 C-47.29664201 82.22127043 -45.48405614 81.90740456 -43.67175293 81.59191895 C-41.14384138 81.15218536 -38.61505194 80.71791044 -36.0859375 80.28515625 C-35.33873444 80.15426102 -34.59153137 80.02336578 -33.82168579 79.88850403 C-30.17537508 79.27134232 -26.70007262 78.85100075 -23 79 C-23.30180176 79.79470703 -23.60360352 80.58941406 -23.91455078 81.40820312 C-29.30172671 95.59600767 -34.6883951 109.78368185 -40 124 C-72.31826857 126.0740779 -104.62532275 128.0700408 -137 129 C-122.03059684 132.07069392 -107.0341714 134.86557262 -91.953125 137.33203125 C-90.73525299 137.53166977 -89.51738098 137.73130829 -88.26260376 137.93699646 C-82.08452441 138.94719901 -75.90462838 139.94446638 -69.72216797 140.92749023 C-67.42151114 141.30038204 -65.12089098 141.67350014 -62.8203125 142.046875 C-61.74251526 142.21439774 -60.66471802 142.38192047 -59.55426025 142.55451965 C-58.57229675 142.71538559 -57.59033325 142.87625153 -56.57861328 143.04199219 C-55.71503204 143.17933777 -54.85145081 143.31668335 -53.96170044 143.45819092 C-53.31433929 143.63698792 -52.66697815 143.81578491 -52 144 C-51.67 144.66 -51.34 145.32 -51 146 C-53.81883219 150.25110368 -56.64480015 154.49709694 -59.484375 158.734375 C-61.85331303 162.27053893 -64.19243923 165.82426289 -66.515625 169.390625 C-67.65577424 171.11489802 -68.79638612 172.83886522 -69.9375 174.5625 C-70.46819092 175.38919189 -70.99888184 176.21588379 -71.5456543 177.06762695 C-72.31002808 178.21171021 -72.31002808 178.21171021 -73.08984375 179.37890625 C-73.75294556 180.39319702 -73.75294556 180.39319702 -74.42944336 181.42797852 C-76.60900366 183.60957167 -77.92472847 183.83764347 -81 184 C-83.48450987 183.42375799 -85.7566972 182.77874982 -88.15625 181.95703125 C-88.85165894 181.72909378 -89.54706787 181.50115631 -90.2635498 181.26631165 C-92.5136935 180.52410235 -94.7570713 179.76371242 -97 179 C-98.49215816 178.49779694 -99.98434569 177.99568113 -101.4765625 177.49365234 C-105.34968901 176.18393736 -109.21634673 174.85603888 -113.08117676 173.52206421 C-117.22413211 172.09262439 -121.37002667 170.67175264 -125.515625 169.25 C-126.73726349 168.83079536 -126.73726349 168.83079536 -127.98358154 168.40312195 C-135.06458151 165.97452154 -142.15217239 163.56655793 -149.25 161.1875 C-150.23033203 160.85645264 -151.21066406 160.52540527 -152.22070312 160.18432617 C-153.10177734 159.89017822 -153.98285156 159.59603027 -154.890625 159.29296875 C-155.64375977 159.0405542 -156.39689453 158.78813965 -157.17285156 158.52807617 C-159.00323891 157.90744905 -159.00323891 157.90744905 -161 158 C-160.04222656 158.59425781 -159.08445312 159.18851563 -158.09765625 159.80078125 C-151.71536991 163.77073705 -145.34809507 167.75514922 -139.0625 171.87695312 C-128.19862588 178.99576127 -117.05645379 185.6366067 -105.89501953 192.27587891 C-101.59011474 194.83965337 -97.2945768 197.41897302 -93 200 C-93.74025681 204.37920825 -94.90454949 206.53703175 -97.8125 209.9375 C-98.616875 210.88753906 -99.42125 211.83757812 -100.25 212.81640625 C-101.16618892 213.87801666 -102.08288426 214.93919016 -103 216 C-104.04224788 217.21695038 -105.08389417 218.4344162 -106.125 219.65234375 C-107.6922872 221.48470619 -109.2611349 223.31552505 -110.8371582 225.14038086 C-113.62878954 228.37438914 -116.35424272 231.64409884 -119 235 C-121.85629616 233.66803413 -124.23360182 232.16236729 -126.6953125 230.19921875 C-127.40196045 229.64089355 -128.1086084 229.08256836 -128.83666992 228.50732422 C-129.59181885 227.90678223 -130.34696777 227.30624023 -131.125 226.6875 C-137.37689651 221.76307404 -143.70415255 216.99020475 -150.1875 212.375 C-156.52377042 207.85584911 -162.66540681 203.16280533 -168.71044922 198.26196289 C-177.89506722 190.42358709 -177.89506722 190.42358709 -188 184 C-179.18938376 197.09627402 -169.73515742 209.41399536 -159 221 C-158.09142226 221.99906821 -157.18391959 222.99911487 -156.27734375 224 C-151.57585765 229.17901245 -146.83868886 234.27571119 -141.75390625 239.0859375 C-139.51331036 241.53113123 -137.78659029 244.21213383 -136 247 C-146.48987492 255.26225382 -157.04804932 263.35828522 -168 271 C-171.66659824 269.51551443 -173.36941255 267.55606956 -175.75 264.4375 C-184.84306604 253.03768235 -195.22409094 242.70199063 -205.5 232.375 C-206.45048218 231.41750854 -206.45048218 231.41750854 -207.42016602 230.44067383 C-213.29441254 224.58646277 -219.46311996 219.10693753 -226 214 C-226.7115625 215.7325 -226.7115625 215.7325 -227.4375 217.5 C-229.7346448 222.23681318 -233.1209417 224.91009111 -237.26953125 228.04296875 C-239.24245806 229.86034946 -239.24245806 229.86034946 -239.1015625 232.36328125 C-237.61359336 235.9249095 -235.24094531 238.30677253 -232.5625 241 C-227.09988757 246.71168492 -222.19969784 252.66333011 -217.48095703 259.01269531 C-215.72571459 261.36806516 -213.95482534 263.71131896 -212.18359375 266.0546875 C-210.83033968 267.8486646 -209.47747498 269.64293547 -208.125 271.4375 C-207.16049927 272.71669312 -207.16049927 272.71669312 -206.17651367 274.02172852 C-202.98753604 278.27272001 -199.88748425 282.53818388 -197 287 C-197.33 287.66 -197.66 288.32 -198 289 C-199.03640625 288.97679687 -200.0728125 288.95359375 -201.140625 288.9296875 C-202.51040944 288.91092333 -203.8802017 288.89272382 -205.25 288.875 C-205.93191406 288.85824219 -206.61382813 288.84148437 -207.31640625 288.82421875 C-211.0608235 288.78786518 -213.82352727 288.92055651 -217 291 C-217.23781168 293.85374016 -217.41453424 296.20054797 -217 299 C-214.35400034 301.97674962 -211.3616424 303.30192072 -207.8125 304.9375 C-204.81747644 306.35322677 -204.15136317 306.72250085 -202.5 309.75 C-202.335 310.4925 -202.17 311.235 -202 312 C-197.89672327 311.07885624 -194.91607105 310.12790458 -191.5625 307.5625 C-185.70536844 303.1631434 -179.76204952 301.30348474 -172.40625 301.5078125 C-168.29926017 302.3478786 -165.5703581 304.76936642 -163 308 C-161.46420075 312.60739774 -161.32378694 317.19457101 -162 322 C-164.5 324.6875 -164.5 324.6875 -167 326 C-167.47050781 325.65066406 -167.94101562 325.30132812 -168.42578125 324.94140625 C-169.04839844 324.48636719 -169.67101562 324.03132813 -170.3125 323.5625 C-170.92738281 323.11003906 -171.54226563 322.65757812 -172.17578125 322.19140625 C-176.29295742 319.50245821 -180.46852065 319.88392207 -185.1875 319.9375 C-186.31188477 319.94426758 -186.31188477 319.94426758 -187.45898438 319.95117188 C-189.30602383 319.96293646 -191.15302213 319.98087135 -193 320 C-192.45276317 323.37462715 -191.9451 325.08235 -190 328 C-188.741875 328.268125 -187.48375 328.53625 -186.1875 328.8125 C-182.55570685 329.6557134 -180.00715677 330.82210929 -177.71875 333.9609375 C-176.07560313 338.62247372 -177.51869762 343.44983912 -179 348 C-181.59987697 353.02045208 -186.03343475 355.65728054 -191 358 C-191.66 357.67 -192.32 357.34 -193 357 C-192.94779297 355.82244141 -192.94779297 355.82244141 -192.89453125 354.62109375 C-192.68332927 346.42444559 -193.26563927 341.7798516 -198.125 335.0625 C-201.5307476 332.61924629 -203.51923927 332.15703832 -207.6484375 332.37109375 C-213.16917042 333.84756883 -216.93507317 338.40260975 -220 343 C-220.38499891 344.65549531 -220.72793135 346.3222433 -221 348 C-225.26121515 347.52653165 -227.18373138 345.03860562 -230 342 C-230.66 341.34 -231.32 340.68 -232 340 C-232.82232511 336.87246842 -232.71792806 334.14271822 -232 331 C-229.6887618 327.32668638 -226.9023931 324.21316559 -224 321 C-221.27939558 317.94882117 -221.27939558 317.94882117 -221.25 313.9375 C-221.97059605 310.96869464 -221.97059605 310.96869464 -223 308 C-224.3243115 307.31558691 -225.65892758 306.65095851 -227 306 C-228.703125 304.2734375 -228.703125 304.2734375 -230.25 302.375 C-230.77078125 301.74335938 -231.2915625 301.11171875 -231.828125 300.4609375 C-232.21484375 299.97882813 -232.6015625 299.49671875 -233 299 C-237.16652263 302.40578114 -240.64248509 305.77201826 -244 310 C-244.66 310 -245.32 310 -246 310 C-246.35191406 308.91203125 -246.70382812 307.8240625 -247.06640625 306.703125 C-251.08568063 294.60664172 -255.75285571 283.85966241 -264.71484375 274.5234375 C-266 273 -266 273 -266 271 C-266.66 271 -267.32 271 -268 271 C-265.67661463 289.1864993 -257.62305858 306.08655416 -250.40917969 322.74365234 C-248.60033484 326.92355056 -246.81069474 331.11154234 -245.02075195 335.29956055 C-243.35202595 339.20179655 -241.67674589 343.10120457 -240 347 C-243.00870341 350.26123247 -246.12088163 352.49756949 -249.9375 354.75 C-250.95714844 355.36359375 -251.97679687 355.9771875 -253.02734375 356.609375 C-256.08468868 358.03961783 -257.7050022 358.12374926 -261 358 C-262.50776616 353.89864435 -264.00487576 349.79347933 -265.5 345.6875 C-266.14388672 343.93663086 -266.14388672 343.93663086 -266.80078125 342.15039062 C-267.40986328 340.47299805 -267.40986328 340.47299805 -268.03125 338.76171875 C-268.40830078 337.73006592 -268.78535156 336.69841309 -269.17382812 335.63549805 C-270 333 -270 333 -270 330 C-270.66 330 -271.32 330 -272 330 C-272.04898437 330.98097656 -272.09796875 331.96195312 -272.1484375 332.97265625 C-272.33836361 336.56868049 -272.5874153 340.15870414 -272.85107422 343.75 C-272.9924252 345.88555841 -273.07873267 348.01772876 -273.16015625 350.15625 C-273.84152788 359.75303348 -273.84152788 359.75303348 -277.25 363.421875 C-279.76587568 365.19176429 -282.24958323 366.6314782 -285 368 C-285.99 368.66 -286.98 369.32 -288 370 C-289.2375 368.9171875 -289.2375 368.9171875 -290.5 367.8125 C-292.92505337 365.72972682 -295.26705439 364.37207422 -298.125 362.96484375 C-300.64591824 361.40437213 -301.78455491 360.57487763 -302.83398438 357.7746582 C-303.24173528 355.08262256 -303.41603668 352.47117496 -303.5 349.75 C-303.55929687 348.84636719 -303.61859375 347.94273437 -303.6796875 347.01171875 C-304.02237166 341.34111178 -304.04636051 335.67916216 -304 330 C-304.66 330 -305.32 330 -306 330 C-306.11601562 330.66386719 -306.23203125 331.32773437 -306.3515625 332.01171875 C-307.14801311 335.6821086 -308.24272042 339.23538329 -309.375 342.8125 C-309.70890747 343.87500977 -309.70890747 343.87500977 -310.04956055 344.95898438 C-311.55314718 349.70152677 -313.16835577 354.37268826 -315 359 C-322.18872429 356.39982313 -328.55929599 353.11108767 -335 349 C-334.43653821 344.58321304 -333.32284943 341.1281173 -331.375 337.1328125 C-330.8372998 336.01116699 -330.29959961 334.88952148 -329.74560547 333.73388672 C-329.46054138 333.14540955 -329.17547729 332.55693237 -328.8817749 331.95062256 C-324.11541046 322.08236431 -319.69033989 312.15649171 -315.875 301.875 C-315.52179688 300.92383301 -315.16859375 299.97266602 -314.8046875 298.99267578 C-310.06844944 286.32112073 -310.06844944 286.32112073 -309 273 C-319.04482918 283.10760936 -324.76522773 295.95272668 -330 309 C-333 309 -333 309 -335.26171875 307.03125 C-336.06222656 306.1959375 -336.86273438 305.360625 -337.6875 304.5 C-338.49574219 303.6646875 -339.30398438 302.829375 -340.13671875 301.96875 C-340.75160156 301.3190625 -341.36648438 300.669375 -342 300 C-345.12688787 301.41621379 -347.53900915 303.12331976 -350.125 305.375 C-350.80820312 305.96023438 -351.49140625 306.54546875 -352.1953125 307.1484375 C-354.03209714 309.03293083 -355.04456532 310.5594337 -356 313 C-355.8739227 317.91701468 -353.38581191 319.68942835 -350 323 C-346.79183577 326.99137803 -344.31400627 330.50847021 -343.25 335.5625 C-344.2954488 340.35414034 -346.55139641 343.55139641 -350 347 C-352.875 348.5 -352.875 348.5 -355 349 C-355.37125 347.80375 -355.7425 346.6075 -356.125 345.375 C-357.32552978 342.09819165 -358.64515244 340.07358033 -361.1875 337.6875 C-362.115625 336.800625 -363.04375 335.91375 -364 335 C-364 334.01 -364 333.02 -364 332 C-370.08875434 331.21989535 -370.08875434 331.21989535 -375.53125 333.640625 C-381.81244705 339.0634027 -381.81244705 339.0634027 -384.23046875 346.69140625 C-384.21628906 347.63886719 -384.20210937 348.58632813 -384.1875 349.5625 C-384.18105469 350.51253906 -384.17460937 351.46257812 -384.16796875 352.44140625 C-384.10061434 355.1204942 -384.10061434 355.1204942 -383 358 C-388.76734227 356.37793499 -393.91502482 352.18959779 -397.1796875 347.1953125 C-398.93717563 343.42926651 -399.84664785 340.06390969 -399 336 C-396.21093962 332.18507834 -393.40743171 329.45037815 -388.875 328 C-384.5826067 326.50699363 -383.38784093 323.79245324 -381 320 C-383.70894767 319.91855057 -386.41541263 319.85929386 -389.125 319.8125 C-390.26582031 319.77479492 -390.26582031 319.77479492 -391.4296875 319.73632812 C-398.2325976 319.64835946 -402.69411917 321.71448087 -408 326 C-411.16115776 324.63016497 -411.9927092 324.0109362 -414 321 C-414.69985587 315.10121484 -413.91870236 311.6305387 -410.47265625 306.7734375 C-408.12909947 303.95122323 -406.42122405 302.42013074 -403 301 C-395.93626733 301 -389.88930565 304.31374063 -383.78515625 307.53515625 C-380.58403085 309.2187776 -377.34503245 310.63157763 -374 312 C-373.67 310.02 -373.34 308.04 -373 306 C-372.11248047 305.74476563 -372.11248047 305.74476563 -371.20703125 305.484375 C-364.35289329 303.47844112 -364.35289329 303.47844112 -359 299 C-358.59947485 295.9539008 -358.70652151 293.0521763 -359 290 C-365.96779403 288.67280114 -372.92988911 288.91174619 -380 289 C-378.62656127 286.0765901 -377.04519158 283.54286914 -375.12890625 280.9453125 C-374.56034912 280.1728418 -373.99179199 279.40037109 -373.40600586 278.60449219 C-372.79764893 277.78625977 -372.18929199 276.96802734 -371.5625 276.125 C-370.93287354 275.27583008 -370.30324707 274.42666016 -369.65454102 273.55175781 C-361.10971271 262.0692052 -352.26795921 250.95833501 -342.84765625 240.1796875 C-342.36184082 239.62249023 -341.87602539 239.06529297 -341.37548828 238.49121094 C-340 237 -340 237 -337.55859375 234.8828125 C-335.74168213 233.09139801 -335.74168213 233.09139801 -335.98046875 230.5390625 C-337.24397589 227.39239722 -338.86163167 225.70954234 -341.3125 223.375 C-342.09238281 222.61960937 -342.87226563 221.86421875 -343.67578125 221.0859375 C-344.82626953 220.05339844 -344.82626953 220.05339844 -346 219 C-346.67417969 218.39414062 -347.34835937 217.78828125 -348.04296875 217.1640625 C-349.89956419 215.78714803 -349.89956419 215.78714803 -351.91040039 216.24731445 C-354.30013416 217.10811002 -355.55681959 218.13137571 -357.390625 219.87890625 C-358.01388672 220.46671875 -358.63714844 221.05453125 -359.27929688 221.66015625 C-360.25479492 222.60181641 -360.25479492 222.60181641 -361.25 223.5625 C-361.92095703 224.19929687 -362.59191406 224.83609375 -363.28320312 225.4921875 C-367.36030076 229.37551425 -371.3656545 233.32416614 -375.30859375 237.34375 C-376.99395593 238.99408156 -378.74473992 240.49785101 -380.5625 242 C-383.79455519 244.70556657 -386.45835999 247.72281287 -389.18359375 250.9296875 C-391.65984511 253.75208152 -394.33340834 256.34761862 -397.015625 258.97265625 C-399.63844769 261.65227235 -402.00687117 264.51580381 -404.359375 267.43359375 C-406.38541984 269.36798418 -407.16983515 270.01996589 -410 270 C-412.39957348 268.52732657 -414.4905683 267.04776808 -416.6875 265.3125 C-418.01432356 264.30037497 -419.34250533 263.29002854 -420.671875 262.28125 C-421.36990234 261.74757813 -422.06792969 261.21390625 -422.78710938 260.6640625 C-426.60740484 257.79125426 -430.52356581 255.05560271 -434.4375 252.3125 C-435.18926514 251.78374268 -435.94103027 251.25498535 -436.71557617 250.71020508 C-438.47609623 249.4721116 -440.23789937 248.23584291 -442 247 C-437.59522324 241.77572988 -433.01652961 236.76759214 -428.3125 231.8125 C-426.88253253 230.29453453 -425.45284566 228.77630467 -424.0234375 227.2578125 C-421.70819493 224.8022522 -419.3839839 222.35688684 -417.0390625 219.9296875 C-406.56300411 208.88735568 -397.79663939 196.39222392 -389 184 C-394.58048853 187.50615392 -399.76605474 191.34843224 -404.875 195.5 C-411.27592009 200.69287742 -417.83754584 205.61947791 -424.49365234 210.47949219 C-431.81691298 215.83639012 -439.03425976 221.32634555 -446.23486328 226.84667969 C-447.0751709 227.49024414 -447.91547852 228.13380859 -448.78125 228.796875 C-449.52439453 229.36760742 -450.26753906 229.93833984 -451.03320312 230.52636719 C-455.66931743 234 -455.66931743 234 -459 234 C-460.9453125 231.9453125 -460.9453125 231.9453125 -463.125 229.125 C-466.16418379 225.27799426 -469.24820686 221.55048161 -472.5625 217.9375 C-485 204.2518706 -485 204.2518706 -485 201 C-482.71795254 199.40287392 -480.44259614 197.93871893 -478.0625 196.5 C-477.33885254 196.05495117 -476.61520508 195.60990234 -475.86962891 195.15136719 C-470.22412984 191.69613183 -464.50835267 188.36463846 -458.78808594 185.03540039 C-449.01675866 179.30673328 -439.52461051 173.12648352 -430 167 C-428.49619742 166.03499468 -426.99229933 165.07013817 -425.48828125 164.10546875 C-422.32308399 162.074085 -419.16050117 160.03868505 -416 158 C-428.69208181 161.63542042 -441.23181686 165.68686676 -453.75 169.875 C-454.52629761 170.13450439 -455.30259521 170.39400879 -456.10241699 170.66137695 C-463.91321228 173.27376721 -471.7185931 175.9015015 -479.515625 178.5546875 C-480.62454102 178.92996582 -481.73345703 179.30524414 -482.87597656 179.69189453 C-484.90058214 180.37762762 -486.92349144 181.06839779 -488.94433594 181.76513672 C-489.82895508 182.06436035 -490.71357422 182.36358398 -491.625 182.671875 C-492.38039063 182.9306543 -493.13578125 183.18943359 -493.9140625 183.45605469 C-496 184 -496 184 -500 184 C-501.67236328 182.234375 -501.67236328 182.234375 -503.3203125 179.75 C-504.24058228 178.38246582 -504.24058228 178.38246582 -505.17944336 176.98730469 C-505.82147705 176.00149414 -506.46351074 175.01568359 -507.125 174 C-507.7857251 173.00645508 -508.4464502 172.01291016 -509.12719727 170.98925781 C-511.10289766 168.00422439 -513.05567886 165.00554807 -515 162 C-515.55252441 161.14857422 -516.10504883 160.29714844 -516.67431641 159.41992188 C-518.10607517 157.20318165 -519.52647067 154.97998175 -520.9375 152.75 C-521.56519287 151.76 -521.56519287 151.76 -522.20556641 150.75 C-525 146.24618624 -525 146.24618624 -525 144 C-515.60603552 142.32340974 -506.20603138 140.68689079 -496.796875 139.09765625 C-495.81843628 138.93220306 -494.83999756 138.76674988 -493.83190918 138.59628296 C-489.79848025 137.91450922 -485.76498687 137.2331419 -481.73095703 136.55493164 C-467.78526389 134.20876853 -453.880907 131.70387374 -440 129 C-440.74326538 128.96685699 -441.48653076 128.93371399 -442.25231934 128.89956665 C-449.42396046 128.57926028 -456.59546685 128.25612372 -463.76685333 127.93017006 C-467.4494864 127.76287742 -471.13215507 127.59650396 -474.81494141 127.43261719 C-495.559365 126.50857167 -516.27992029 125.3680925 -537 124 C-541.01636063 114.65572297 -544.97242738 105.29344973 -548.8125 95.875 C-549.30169922 94.68390625 -549.79089844 93.4928125 -550.29492188 92.265625 C-550.76091797 91.12351562 -551.22691406 89.98140625 -551.70703125 88.8046875 C-552.1244458 87.78358887 -552.54186035 86.76249023 -552.97192383 85.71044922 C-553.82081348 83.47241244 -554.49149334 81.33404907 -555 79 C-545.1534567 79.63131078 -535.52004335 81.31712275 -525.8125 83 C-524.51063248 83.22310349 -524.51063248 83.22310349 -523.1824646 83.45071411 C-512.05106827 85.3585607 -500.94086875 87.36680912 -489.84375 89.46484375 C-488.75446701 89.67066071 -487.66518402 89.87647766 -486.54289246 90.08853149 C-481.19891131 91.10048115 -475.85682972 92.12146455 -470.5168457 93.15429688 C-468.55941639 93.52869202 -466.60197865 93.90304317 -464.64453125 94.27734375 C-463.75564209 94.45200668 -462.86675293 94.62666962 -461.95092773 94.80662537 C-457.56485673 95.64101915 -453.49012837 96.20166479 -449 96 C-449.84328857 95.70569092 -450.68657715 95.41138184 -451.55541992 95.1081543 C-472.2769949 87.86874934 -492.96254188 80.53147535 -513.625 73.125 C-514.74595062 72.72348724 -515.86690125 72.32197449 -517.02182007 71.90829468 C-524.35149186 69.28215487 -531.67725326 66.6453838 -539 64 C-539.95596069 63.6556189 -540.91192139 63.31123779 -541.89685059 62.9564209 C-544.56566701 61.9935752 -547.23238247 61.02514892 -549.8984375 60.0546875 C-551.07389633 59.63160812 -551.07389633 59.63160812 -552.27310181 59.19998169 C-560.41533072 56.21960914 -560.41533072 56.21960914 -561.87207031 53.18087769 C-562.10506836 52.44555817 -562.33806641 51.71023865 -562.578125 50.95263672 C-562.84850586 50.11771698 -563.11888672 49.28279724 -563.39746094 48.4225769 C-563.67879883 47.5174234 -563.96013672 46.6122699 -564.25 45.6796875 C-564.69907715 44.28074753 -564.69907715 44.28074753 -565.15722656 42.85354614 C-566.11485643 39.86379251 -567.05785779 36.8696663 -568 33.875 C-568.94509535 30.90277157 -569.89317892 27.93151771 -570.84277344 24.96072388 C-571.43264056 23.11189284 -572.0194016 21.26206694 -572.60253906 19.41110229 C-573.86889721 15.412084 -575.18163927 11.46500661 -576.703125 7.55517578 C-578 4 -578 4 -578 1 C-573.01995637 1.69535516 -568.68968122 3.68515838 -564.109375 5.65625 C-563.2296402 6.03012344 -562.3499054 6.40399689 -561.44351196 6.78919983 C-559.54097638 7.59819617 -557.63932485 8.40927407 -555.73846436 9.22219849 C-550.6293378 11.40674843 -545.51347723 13.57543442 -540.3984375 15.74609375 C-539.35422638 16.18968735 -538.31001526 16.63328094 -537.23416138 17.09031677 C-527.30457371 21.3047916 -517.34425905 25.44294524 -507.375 29.5625 C-504.01150383 30.953908 -500.64828541 32.34598641 -497.28515625 33.73828125 C-496.44965744 34.08414276 -495.61415863 34.43000427 -494.75334167 34.78634644 C-471.27359123 44.51019691 -447.79076309 54.23659696 -424.51025391 64.43041992 C-418.35669285 67.12459562 -412.18633322 69.7631208 -405.9765625 72.32421875 C-404.01252614 73.14090178 -402.04900293 73.95880532 -400.08566284 74.77716064 C-398.23285266 75.54373595 -396.37344194 76.29429587 -394.51391602 77.04443359 C-393.40975342 77.50543457 -392.30559082 77.96643555 -391.16796875 78.44140625 C-390.19110107 78.84045166 -389.2142334 79.23949707 -388.20776367 79.65063477 C-386 81 -386 81 -385.11450195 83.03491211 C-385 85 -385 85 -386 87 C-387.01119295 97.74753649 -385.69104892 105.04384537 -379.015625 113.51953125 C-376.7653108 116.11696838 -374.4298971 118.5701029 -372 121 C-371.24847656 121.75152344 -370.49695313 122.50304687 -369.72265625 123.27734375 C-361.44366748 131.11552114 -351.78862755 137.22004849 -342 143 C-341.63003906 141.80503906 -341.26007813 140.61007812 -340.87890625 139.37890625 C-338.44737951 132.08147045 -335.21951309 125.10091783 -332.11303711 118.07202148 C-328.45935295 110.0648452 -328.45935295 110.0648452 -325.8828125 101.6796875 C-324.80140563 97.17223057 -322.98033024 93.32797704 -320.9375 89.1875 C-320.21606534 87.70249379 -319.49595691 86.21684237 -318.77734375 84.73046875 C-318.30155884 83.76210083 -318.30155884 83.76210083 -317.81616211 82.77416992 C-316.88266123 80.82996783 -316.88266123 80.82996783 -316 78 C-316.79664063 78.08121094 -317.59328125 78.16242188 -318.4140625 78.24609375 C-326.86270765 78.74972345 -326.86270765 78.74972345 -330.09765625 76.6171875 C-333.28267439 73.0017615 -334.01719767 70.91401167 -335 66 C-326.09 65.67 -317.18 65.34 -308 65 C-308 61.04 -308 57.08 -308 53 C-306.84126962 50.05254991 -305.93417372 48.04417732 -304.25 45.5 C-303.90195312 44.91992188 -303.55390625 44.33984375 -303.1953125 43.7421875 C-301.0723154 40.29821443 -298.91051846 37.91051846 -296 35 C-312.83 34.505 -312.83 34.505 -330 34 C-331 31 -331 31 -329.34765625 27.64453125 C-328.59622298 26.36110983 -327.83403499 25.08393866 -327.0625 23.8125 C-326.67642578 23.15830078 -326.29035156 22.50410156 -325.89257812 21.83007812 C-324.93746912 20.21464684 -323.96989934 18.60659475 -323 17 C-311.8215383 16.9768652 -300.64308225 16.95907908 -289.46460152 16.94818783 C-284.27440675 16.9429615 -279.08422833 16.93586836 -273.89404297 16.92456055 C-268.88849603 16.91372282 -263.88296484 16.90772127 -258.87740707 16.90512276 C-256.96437202 16.90327011 -255.05133786 16.89965256 -253.13830948 16.89426994 C-250.46604781 16.88704779 -247.79385184 16.88600956 -245.12158203 16.88647461 C-243.92612259 16.8810817 -243.92612259 16.8810817 -242.70651245 16.87557983 C-237.22810432 16.88594784 -237.22810432 16.88594784 -235 18 C-235.49442253 22.35091823 -236.78390035 24.26177899 -239.9375 27.25 C-241.00291016 28.27867187 -241.00291016 28.27867187 -242.08984375 29.328125 C-244 31 -244 31 -246 32 C-245.31673331 38.7838621 -243.87011618 45.25775912 -242.25 51.875 C-241.97978027 52.9899585 -241.70956055 54.10491699 -241.43115234 55.25366211 C-239.76078057 62.08114698 -237.97306411 68.86048368 -236.03613281 75.61645508 C-233.63798249 84.08245279 -231.58534974 92.63706174 -229.47784424 101.17880249 C-227.3023537 109.9807916 -225.05332895 118.742333 -222.37109375 127.40649414 C-221 131.83558239 -221 131.83558239 -221 134 C-209.60966042 126.98421113 -193.7032136 115.64182036 -190 102 C-190.07250977 100.88786133 -190.14501953 99.77572266 -190.21972656 98.62988281 C-190.49716836 94.11071582 -190.37943371 91.33584206 -189 87 C-184.62244034 82.23915802 -177.98316408 79.93720515 -172.1875 77.375 C-170.48655571 76.57142585 -168.78807853 75.76260985 -167.09204102 74.94873047 C-162.86416262 72.93555557 -158.60919983 70.98978672 -154.34106445 69.0637207 C-150.97454637 67.53405971 -147.63523422 65.94930914 -144.296875 64.359375 C-138.67564367 61.69801123 -133.02712069 59.10303695 -127.36376953 56.53271484 C-121.51805474 53.86909186 -115.69860382 51.14902773 -109.875 48.4375 C-107.54315107 47.3550759 -105.21112116 46.27304158 -102.87890625 45.19140625 C-99.46790846 43.6093617 -96.05724574 42.02662573 -92.64794922 40.44091797 C-80.03010194 34.57245498 -67.37963959 28.79971652 -54.62890625 23.2253418 C-45.14665365 19.0783472 -35.70463329 14.8446251 -26.27026367 10.59008789 C-20.28278404 7.89587086 -14.28462967 5.22731645 -8.26171875 2.61328125 C-7.11018311 2.11223877 -5.95864746 1.61119629 -4.7722168 1.0949707 C-2 0 -2 0 0 0 Z " fill="#D0B27D" transform="translate(802,178)"/>
<path d="M0 0 C8.58 0 17.16 0 26 0 C29.37468337 8.99915566 29.37468337 8.99915566 30.08740234 12.67407227 C30.25138016 13.50086487 30.41535797 14.32765747 30.58430481 15.17950439 C30.7498436 16.04968201 30.91538239 16.91985962 31.0859375 17.81640625 C31.26819382 18.74306091 31.45045013 19.66971558 31.63822937 20.62445068 C32.02453363 22.59172279 32.40784654 24.55958436 32.7883606 26.52798462 C33.76877728 31.59939561 34.77042076 36.66661997 35.76953125 41.734375 C35.963228 42.72000931 36.15692474 43.70564362 36.35649109 44.72114563 C38.41750679 55.18211083 40.67358945 65.59513236 43 76 C46.07030671 59.73285119 48.66627645 43.42447963 51.078125 27.04833984 C51.5202158 24.05517551 51.96698824 21.06273587 52.4140625 18.0703125 C52.54430817 17.17442413 52.67455383 16.27853577 52.80874634 15.35549927 C53.58966621 10.13635044 54.63712123 5.09916105 56 0 C65.73944972 -0.12276617 75.29056184 0.16220564 85 1 C84.01380322 9.36059358 82.51881694 17.52631098 80.75 25.75 C78.67946434 35.42325979 76.87362343 45.12861852 75.1875 54.875 C72.83749597 68.44207406 70.33586928 81.97589036 67.75 95.5 C67.5773764 96.4037738 67.40475281 97.30754761 67.22689819 98.2387085 C66.73032805 100.83640309 66.23271889 103.43389513 65.734375 106.03125 C65.58875626 106.79039703 65.44313751 107.54954407 65.29310608 108.33169556 C64.22219438 113.89360754 63.11089396 119.44553021 62 125 C50.78 125 39.56 125 28 125 C27.32453125 121.58785156 26.6490625 118.17570313 25.953125 114.66015625 C25.2852221 111.29713885 24.6162909 107.93432748 23.94726562 104.5715332 C23.48851198 102.26282656 23.03080076 99.95391249 22.57421875 97.64477539 C19.94856385 84.36967149 17.23740014 71.1407766 14 58 C10.00110723 71.62140526 7.42684753 85.50880242 4.75 99.4375 C4.28693668 101.82626465 3.82339869 104.21493734 3.359375 106.60351562 C2.2341111 112.40129533 1.11470252 118.20018097 0 124 C-4.66305038 124.07405887 -9.32575984 124.12855763 -13.98925781 124.16479492 C-15.57623251 124.17989814 -17.16316537 124.20038223 -18.75 124.22631836 C-21.02875073 124.26263595 -23.30695058 124.27971023 -25.5859375 124.29296875 C-26.29744965 124.30845261 -27.00896179 124.32393646 -27.74203491 124.33988953 C-29.74365234 124.34057617 -29.74365234 124.34057617 -33 124 C-35.15524 120.76714001 -35.5471985 118.86093381 -36.19140625 115.0703125 C-36.40917725 113.8232251 -36.62694824 112.5761377 -36.85131836 111.29125977 C-36.96635712 110.61620392 -37.08139587 109.94114807 -37.19992065 109.24563599 C-37.83583933 105.52630658 -38.49952063 101.8119625 -39.1640625 98.09765625 C-39.30736496 97.29579391 -39.45066742 96.49393158 -39.59831238 95.66777039 C-41.41082848 85.60643264 -43.42223429 75.58483588 -45.4375 65.5625 C-45.62837189 64.61148407 -45.81924377 63.66046814 -46.01589966 62.68063354 C-48.01422815 52.73160972 -50.03667604 42.7878007 -52.09765625 32.8515625 C-52.26091904 32.0635173 -52.42418182 31.27547211 -52.59239197 30.46354675 C-53.35002889 26.80932092 -54.11142737 23.15596263 -54.88061523 19.50415039 C-56.165737 13.34450926 -57.36502837 7.26240775 -58 1 C-54.47923768 0.94144824 -50.9586024 0.9062194 -47.4375 0.875 C-45.9515332 0.84986328 -45.9515332 0.84986328 -44.43554688 0.82421875 C-34.00771418 0.75493083 -34.00771418 0.75493083 -29 3 C-26.14811708 7.23182626 -26.0443697 13.39659806 -25.3125 18.375 C-23.496891 30.22218829 -21.43563565 42.01718124 -19.3125 53.8125 C-19.07812729 55.12030426 -19.07812729 55.12030426 -18.83901978 56.45452881 C-18.39053179 58.95568348 -17.93988943 61.45643826 -17.48828125 63.95703125 C-17.35301025 64.71020126 -17.21773926 65.46337128 -17.07836914 66.23936462 C-16.48211752 69.52122504 -15.87530777 72.77968652 -15 76 C-12.66684648 66.18528561 -10.59485581 56.33033284 -8.625 46.4375 C-8.39972122 45.31086441 -8.39972122 45.31086441 -8.16989136 44.16146851 C-5.23694643 29.4750054 -2.57608897 14.75396413 0 0 Z " fill="#D0B27D" transform="translate(419,721)"/>
<path d="M0 0 C7.87649443 -0.06995383 15.75291412 -0.12303908 23.62964249 -0.15543652 C27.28836401 -0.17099698 30.94687077 -0.19205566 34.60546875 -0.22631836 C38.14572975 -0.25925991 41.68578606 -0.27692504 45.22618866 -0.28463173 C47.21338155 -0.29275518 49.20049374 -0.31611689 51.18756104 -0.33988953 C69.80836785 -0.34329118 69.80836785 -0.34329118 76.2979126 4.83283997 C83.06361707 11.70064589 83.31366968 20.15596641 83.3359375 29.30859375 C83.3459227 30.75782982 83.3459227 30.75782982 83.35610962 32.23634338 C83.36618488 34.26927806 83.37092824 36.30224546 83.37060547 38.33520508 C83.37498258 41.42520099 83.41136809 44.51377136 83.44921875 47.60351562 C83.45508742 49.58853683 83.45905648 51.57356476 83.4609375 53.55859375 C83.47530853 54.47136581 83.48967957 55.38413788 83.50448608 56.3245697 C83.45570402 63.25693207 82.14245922 69.65702563 77.25790405 74.85325623 C74.11333535 77.67572668 70.71226015 79.97513083 67 82 C69.48712141 90.16308777 72.95679339 97.8177273 76.5 105.5625 C77.37819785 107.48740689 78.25499848 109.41291451 79.12878418 111.33982849 C79.92068258 113.08544888 80.71703441 114.82904701 81.51367188 116.57250977 C83.14175786 120.32689531 84.56313377 124.16835672 86 128 C76.1 128.33 66.2 128.66 56 129 C54.05942538 123.89605803 52.11999174 118.79171079 50.18334961 113.6862793 C49.52547182 111.95295921 48.8669551 110.21988148 48.20776367 108.48706055 C47.25527753 105.98290886 46.30516393 103.47786753 45.35546875 100.97265625 C45.0647197 100.20977798 44.77397064 99.44689972 44.47441101 98.66090393 C42.51430231 93.48118303 40.72394786 88.26317856 39 83 C33.06 83.495 33.06 83.495 27 84 C26.67 98.52 26.34 113.04 26 128 C16.76 128 7.52 128 -2 128 C-2.05357927 107.52506312 -1.87890981 87.05834757 -1.62768555 66.58520508 C-1.58356735 62.97780684 -1.54197995 59.37039343 -1.50268555 55.76293945 C-1.08297148 17.31292686 -1.08297148 17.31292686 0 0 Z " fill="#D1B37D" transform="translate(668,573)"/>
<path d="M0 0 C8.59751812 -0.06971046 17.19491685 -0.12291754 25.79264832 -0.15543652 C29.78553294 -0.17104913 33.77822326 -0.1922061 37.77099609 -0.22631836 C41.62894585 -0.25907005 45.48670947 -0.27688609 49.3447876 -0.28463173 C50.81189908 -0.29014702 52.27900112 -0.30091673 53.74603271 -0.31719017 C62.81094007 -0.4136866 69.92418728 -0.15828347 77.8125 4.75 C84.54969123 11.67968241 84.16079094 21.57283788 84.23828125 30.6328125 C84.246353 31.54650604 84.25442474 32.46019958 84.26274109 33.40158081 C84.27651538 35.32955059 84.28726701 37.25754407 84.29516602 39.18554688 C84.30665909 41.13451411 84.32706832 43.08345054 84.35668945 45.03222656 C84.72966337 69.6276686 84.72966337 69.6276686 78.2980957 79.65283203 C74.16775968 83.87136496 70.08639102 85.12168093 64.34985352 85.34057617 C62.60946557 85.33983548 60.86902425 85.32362985 59.12890625 85.29296875 C58.31031128 85.28994751 57.49171631 85.28692627 56.64831543 85.28381348 C53.61958019 85.26823544 50.5910261 85.22635224 47.5625 85.1875 C40.776875 85.125625 33.99125 85.06375 27 85 C27 99.19 27 113.38 27 128 C17.1 128 7.2 128 -3 128 C-2.07870372 74.46680535 -2.07870372 74.46680535 -1.55929565 50.43832397 C-1.52076719 48.65092452 -1.48290798 46.86351048 -1.4458313 45.07608032 C-1.13208596 30.04430101 -0.5859392 15.02343423 0 0 Z " fill="#D0B27D" transform="translate(479,573)"/>
<path d="M0 0 C1.3450486 -0.00855011 1.3450486 -0.00855011 2.7172699 -0.01727295 C4.61431711 -0.02670214 6.51138055 -0.03324864 8.40844727 -0.03710938 C11.27455271 -0.04676037 14.13992366 -0.07778084 17.00585938 -0.109375 C40.17098446 -0.24573105 40.17098446 -0.24573105 49.74609375 6.203125 C51.29296875 8.5078125 51.29296875 8.5078125 52.49609375 11.078125 C52.9034375 11.92117188 53.31078125 12.76421875 53.73046875 13.6328125 C56.5731182 20.82690227 56.9175518 29.36292492 54.62109375 36.765625 C52.74609375 40.203125 52.74609375 40.203125 50.30859375 41.41015625 C45.45635096 42.49020591 40.82366857 42.41536548 35.87109375 42.328125 C34.8965625 42.31910156 33.92203125 42.31007813 32.91796875 42.30078125 C30.52708647 42.27734123 28.13672114 42.24452942 25.74609375 42.203125 C25.69710937 41.28789063 25.648125 40.37265625 25.59765625 39.4296875 C25.52289063 38.24117187 25.448125 37.05265625 25.37109375 35.828125 C25.26667969 34.05308594 25.26667969 34.05308594 25.16015625 32.2421875 C25.04392029 29.09750181 25.04392029 29.09750181 22.74609375 27.203125 C20.63076166 26.90962104 20.63076166 26.90962104 18.2109375 26.97265625 C17.31955078 26.97458984 16.42816406 26.97652344 15.50976562 26.97851562 C14.57712891 26.99076172 13.64449219 27.00300781 12.68359375 27.015625 C11.27883789 27.0165918 11.27883789 27.0165918 9.84570312 27.01757812 C5.46172843 26.64543033 5.46172843 26.64543033 1.74609375 28.203125 C1.65939943 29.6918436 1.63905881 31.18457 1.6484375 32.67578125 C1.65327148 34.02446289 1.65327148 34.02446289 1.65820312 35.40039062 C1.66658203 36.34591797 1.67496094 37.29144531 1.68359375 38.265625 C1.68810547 39.21501953 1.69261719 40.16441406 1.69726562 41.14257812 C1.70909265 43.49615565 1.7255735 45.84960977 1.74609375 48.203125 C6.72748001 50.47614923 11.560668 52.07333429 16.875 53.359375 C18.41992917 53.74606461 19.96485082 54.13278426 21.50976562 54.51953125 C23.91414729 55.11380651 26.3190984 55.70570472 28.72436523 56.29638672 C31.06773718 56.87404737 33.40888218 57.46015682 35.75 58.046875 C36.46265518 58.21884399 37.17531036 58.39081299 37.90956116 58.56799316 C45.47411747 60.46870155 50.14159713 62.80799081 54.74609375 69.203125 C56.9880149 73.55279357 57.05263496 77.71076415 57.046875 82.50390625 C57.05116013 83.29911179 57.05544525 84.09431732 57.05986023 84.91362 C57.06558772 86.59206188 57.06611547 88.27052858 57.06176758 89.94897461 C57.05861676 92.4970209 57.08205368 95.04389468 57.10742188 97.59179688 C57.10969618 99.22916522 57.11039776 100.86653665 57.109375 102.50390625 C57.11858475 103.25626053 57.12779449 104.00861481 57.13728333 104.7837677 C57.08563668 110.78709549 55.95611125 116.28887913 52.23828125 121.19140625 C44.39617959 127.61283732 36.40758999 128.66209185 26.5 128.6015625 C24.92326759 128.60586777 24.92326759 128.60586777 23.31468201 128.61026001 C21.10358132 128.61229092 18.89246226 128.60682959 16.68139648 128.59423828 C13.32168852 128.57818756 9.96318638 128.59411262 6.60351562 128.61328125 C4.44400779 128.61129833 2.28450071 128.60745365 0.125 128.6015625 C-1.36295326 128.61067154 -1.36295326 128.61067154 -2.88096619 128.6199646 C-9.58169776 128.55334924 -17.43509162 128.22678022 -22.90867615 123.89291382 C-28.96999623 117.12392065 -28.53732474 109.42737035 -28.44140625 100.890625 C-28.44043945 99.22676758 -28.44043945 99.22676758 -28.43945312 97.52929688 C-28.39433882 89.34355757 -28.39433882 89.34355757 -27.25390625 88.203125 C-25.25425643 88.11554497 -23.25154515 88.09615924 -21.25 88.10546875 C-19.42758789 88.11030273 -19.42758789 88.11030273 -17.56835938 88.11523438 C-16.28896484 88.12361328 -15.00957031 88.13199219 -13.69140625 88.140625 C-12.40814453 88.14513672 -11.12488281 88.14964844 -9.80273438 88.15429688 C-6.61974603 88.16612955 -3.43684863 88.18261432 -0.25390625 88.203125 C-0.20492188 88.96238281 -0.1559375 89.72164062 -0.10546875 90.50390625 C-0.03070313 91.49777344 0.0440625 92.49164062 0.12109375 93.515625 C0.19070313 94.50175781 0.2603125 95.48789062 0.33203125 96.50390625 C0.58474847 99.41840933 0.58474847 99.41840933 2.74609375 102.203125 C5.06909759 102.61921772 5.06909759 102.61921772 7.75390625 102.49609375 C9.23310547 102.4815918 9.23310547 102.4815918 10.7421875 102.46679688 C11.77472656 102.44166016 12.80726563 102.41652344 13.87109375 102.390625 C14.91136719 102.37708984 15.95164062 102.36355469 17.0234375 102.34960938 C19.59787554 102.31418133 22.17204849 102.26037312 24.74609375 102.203125 C24.74609375 95.933125 24.74609375 89.663125 24.74609375 83.203125 C16.18484842 79.03153259 7.24207955 76.64327822 -1.90014648 74.13037109 C-21.12691249 68.82096348 -21.12691249 68.82096348 -25.69140625 63.203125 C-27.67469848 59.39520392 -28.36730676 56.30053894 -28.46264648 52.03637695 C-28.4819371 51.22485672 -28.50122772 50.41333649 -28.52110291 49.57722473 C-28.57934791 45.86867327 -28.62812928 42.16030411 -28.65893555 38.45141602 C-28.68048567 36.5029932 -28.71455313 34.55466642 -28.76147461 32.60668945 C-29.22701901 13.07536216 -29.22701901 13.07536216 -23.94775391 6.66674805 C-16.85402438 0.53718499 -8.98786765 0.04466232 0 0 Z " fill="#D0B27D" transform="translate(300.25390625,572.796875)"/>
<path d="M0 0 C3.29158865 -0.05905417 6.58303756 -0.09394375 9.875 -0.125 C10.7928125 -0.14175781 11.710625 -0.15851562 12.65625 -0.17578125 C19.00812606 -0.22051277 24.82610036 0.51148437 31 2 C30.91533 14.68357672 30.82034481 27.36703132 30.71247292 40.05043316 C30.66269273 45.94090646 30.61636208 51.83136339 30.578125 57.72192383 C30.54104009 63.41489729 30.49461941 69.10772744 30.44193649 74.80057716 C30.42351511 76.9640633 30.40836281 79.12758001 30.39665604 81.2911129 C30.21008105 114.60340314 30.21008105 114.60340314 23 124 C17.86832496 127.83600361 12.14815305 129.1029717 5.83935547 129.19287109 C4.81083466 129.20893402 3.78231384 129.22499695 2.72262573 129.24154663 C-1.98373577 129.28627699 -6.68995961 129.32707526 -11.39648438 129.35009766 C-13.87151511 129.36662811 -16.34649869 129.39387917 -18.82128906 129.43212891 C-22.40454683 129.48717494 -25.9866876 129.50881685 -29.5703125 129.5234375 C-30.66546173 129.54610687 -31.76061096 129.56877625 -32.88894653 129.59213257 C-40.18673394 129.5722755 -45.98641065 128.31913625 -52 124 C-56.29160931 118.8703935 -58.15089429 114.02037786 -58.08229065 107.34295654 C-58.07173141 105.94637314 -58.07173141 105.94637314 -58.06095886 104.52157593 C-58.04801285 103.50737579 -58.03506683 102.49317566 -58.02172852 101.44824219 C-58.01212097 100.37476532 -58.00251343 99.30128845 -57.99261475 98.19528198 C-57.95962402 94.64574629 -57.91929173 91.09633363 -57.87890625 87.546875 C-57.85460522 85.08636916 -57.83076165 82.62585877 -57.80735779 80.16534424 C-57.74451524 73.68801687 -57.67544894 67.21077015 -57.60510254 60.73352051 C-57.53442073 54.12446771 -57.46960283 47.51535772 -57.40429688 40.90625 C-57.27528227 27.93743544 -57.13915331 14.96870974 -57 2 C-47.76 2 -38.52 2 -29 2 C-28.98541748 4.98329346 -28.97083496 7.96658691 -28.95581055 11.0402832 C-28.90553499 20.88314565 -28.83895258 30.72584873 -28.76428509 40.56855488 C-28.71950547 46.53779572 -28.68026612 52.5069671 -28.65356445 58.47631836 C-28.62760721 64.23413893 -28.58725875 69.99169329 -28.53681374 75.74934959 C-28.52009363 77.94900394 -28.50861151 80.14870438 -28.50238609 82.34841347 C-28.4928009 85.42307247 -28.46480864 88.49704244 -28.43237305 91.5715332 C-28.43452568 92.94393913 -28.43452568 92.94393913 -28.4367218 94.34407043 C-28.41791458 95.5997583 -28.41791458 95.5997583 -28.39872742 96.8808136 C-28.39411845 97.60810826 -28.38950949 98.33540293 -28.38476086 99.08473682 C-27.88714162 101.5617866 -26.9680981 102.46061106 -25 104 C-22.63656676 104.4608443 -22.63656676 104.4608443 -20 104.3984375 C-19.030625 104.40230469 -18.06125 104.40617188 -17.0625 104.41015625 C-16.051875 104.39855469 -15.04125 104.38695312 -14 104.375 C-12.989375 104.38660156 -11.97875 104.39820313 -10.9375 104.41015625 C-9.968125 104.40628906 -8.99875 104.40242187 -8 104.3984375 C-6.6696875 104.39336182 -6.6696875 104.39336182 -5.3125 104.38818359 C-2.48267316 103.91315987 -1.76246479 103.22279346 0 101 C0.44020303 99.01548933 0.44020303 99.01548933 0.36076355 96.80488586 C0.36488754 95.95093231 0.36901154 95.09697876 0.3732605 94.21714783 C0.36247467 93.28350906 0.35168884 92.3498703 0.34057617 91.38793945 C0.34101425 90.40239075 0.34145233 89.41684204 0.34190369 88.40142822 C0.33981093 85.13851218 0.31645653 81.87610771 0.29296875 78.61328125 C0.28737454 76.35312684 0.28310362 74.09296879 0.28010559 71.83280945 C0.2686431 65.87985211 0.23916366 59.92711385 0.20599365 53.97424316 C0.17532312 47.90147872 0.1616067 41.82867892 0.14648438 35.75585938 C0.11429545 23.83714325 0.06308201 11.91858983 0 0 Z " fill="#D1B37D" transform="translate(431,572)"/>
<path d="M0 0 C0.89528412 -0.00570007 1.79056824 -0.01140015 2.71298218 -0.01727295 C4.60405305 -0.02669078 6.4951401 -0.03324409 8.38623047 -0.03710938 C11.2434649 -0.04677362 14.09996654 -0.07781067 16.95703125 -0.109375 C27.99142392 -0.17302244 37.85418241 0.29130139 48.1484375 4.703125 C53.80481824 10.35950574 54.89424689 17.63132255 55.0859375 25.390625 C54.89533687 30.98567568 54.50515247 35.34670955 51.6484375 40.203125 C46.35448593 41.69414301 40.73208321 41.31624012 35.2734375 41.265625 C33.88318359 41.25885742 33.88318359 41.25885742 32.46484375 41.25195312 C30.19264041 41.24024074 27.92057362 41.22383872 25.6484375 41.203125 C25.59236328 39.83027344 25.59236328 39.83027344 25.53515625 38.4296875 C25.46941406 37.24117187 25.40367187 36.05265625 25.3359375 34.828125 C25.27792969 33.64476562 25.21992188 32.46140625 25.16015625 31.2421875 C24.90685547 29.73785156 24.90685547 29.73785156 24.6484375 28.203125 C21.57151984 26.15184656 20.71198751 25.93051628 17.19921875 25.7890625 C16.35166016 25.75039063 15.50410156 25.71171875 14.63085938 25.671875 C13.74978516 25.6409375 12.86871094 25.61 11.9609375 25.578125 C11.06826172 25.53945313 10.17558594 25.50078125 9.25585938 25.4609375 C7.0535913 25.36672282 4.85133028 25.28110912 2.6484375 25.203125 C1.72655289 27.96877882 1.53058528 29.58596202 1.55078125 32.43359375 C1.55561523 33.63725586 1.55561523 33.63725586 1.56054688 34.86523438 C1.56892578 35.69861328 1.57730469 36.53199219 1.5859375 37.390625 C1.59044922 38.23560547 1.59496094 39.08058594 1.59960938 39.95117188 C1.61138347 42.03518655 1.6293186 44.11916477 1.6484375 46.203125 C7.43260168 49.14272957 13.18967029 50.99714304 19.4453125 52.60546875 C20.24626343 52.81209137 21.04721436 53.01871399 21.87243652 53.2315979 C25.23106354 54.09137958 28.5918814 54.94125591 31.95751953 55.77319336 C34.43677186 56.38954913 36.90975529 57.02727523 39.3828125 57.66796875 C40.13810242 57.8483519 40.89339233 58.02873505 41.67156982 58.21458435 C47.30087901 59.69379823 50.53254854 62.13508601 53.8984375 67.015625 C56.49293545 74.58291068 55.89959661 83.13578164 55.94360352 91.0390625 C55.9551603 92.4818703 55.97567048 93.92463413 56.00512695 95.3671875 C56.34720929 112.18464297 56.34720929 112.18464297 49.75390625 119.2265625 C49.12097656 119.67257812 48.48804688 120.11859375 47.8359375 120.578125 C47.21074219 121.03960938 46.58554687 121.50109375 45.94140625 121.9765625 C39.37614904 125.48847181 32.88207982 125.52291961 25.59765625 125.5390625 C24.016679 125.5490477 24.016679 125.5490477 22.40376282 125.55923462 C20.18073259 125.56932786 17.95767226 125.57405267 15.73461914 125.57373047 C12.35706953 125.57809768 8.98083397 125.61443784 5.60351562 125.65234375 C3.43490026 125.658214 1.26627874 125.662182 -0.90234375 125.6640625 C-1.9005867 125.67843353 -2.89882965 125.69280457 -3.92732239 125.70761108 C-11.69967181 125.65767176 -19.11727549 124.35655483 -24.8515625 118.765625 C-27.48602726 114.26508103 -28.6041328 110.73329972 -28.58203125 105.5 C-28.58009766 104.4378125 -28.57816406 103.375625 -28.57617188 102.28125 C-28.56392578 101.18296875 -28.55167969 100.0846875 -28.5390625 98.953125 C-28.53841797 97.839375 -28.53777344 96.725625 -28.53710938 95.578125 C-28.49191926 87.34348176 -28.49191926 87.34348176 -27.3515625 86.203125 C-25.35191268 86.11554497 -23.3492014 86.09615924 -21.34765625 86.10546875 C-19.52524414 86.11030273 -19.52524414 86.11030273 -17.66601562 86.11523438 C-16.38662109 86.12361328 -15.10722656 86.13199219 -13.7890625 86.140625 C-12.50580078 86.14513672 -11.22253906 86.14964844 -9.90039062 86.15429688 C-6.7174283 86.16612945 -3.53448976 86.18406556 -0.3515625 86.203125 C-0.3515625 90.163125 -0.3515625 94.123125 -0.3515625 98.203125 C0.3084375 98.203125 0.9684375 98.203125 1.6484375 98.203125 C2.1434375 99.193125 2.1434375 99.193125 2.6484375 100.203125 C5.56535275 100.25714195 8.48126474 100.29680566 11.3984375 100.328125 C12.2234375 100.34488281 13.0484375 100.36164063 13.8984375 100.37890625 C14.69765625 100.38535156 15.496875 100.39179687 16.3203125 100.3984375 C17.0534668 100.40891113 17.78662109 100.41938477 18.54199219 100.43017578 C20.94739826 100.17090044 22.56095244 99.39538425 24.6484375 98.203125 C24.75636587 95.59785395 24.83568628 92.99704189 24.8984375 90.390625 C24.93195313 89.65263672 24.96546875 88.91464844 25 88.15429688 C25.18977579 84.02289667 25.18977579 84.02289667 23.15478516 80.63964844 C19.64808565 78.62976923 16.01936587 77.56974844 12.15625 76.42578125 C10.46482871 75.90695007 8.77342294 75.38806828 7.08203125 74.86914062 C4.42776728 74.06559889 1.77253996 73.26535521 -0.88330078 72.46704102 C-3.45602174 71.69063656 -6.02490725 70.90240585 -8.59375 70.11328125 C-9.38143768 69.8808522 -10.16912537 69.64842316 -10.98068237 69.40895081 C-17.15293897 67.50742473 -22.99926221 65.0696505 -26.3515625 59.203125 C-28.1486225 53.92358684 -28.67097304 49.26222241 -28.6875 43.70703125 C-28.6941568 42.91465561 -28.7008136 42.12227997 -28.70767212 41.30589294 C-28.71774208 39.63941754 -28.7224909 37.97290228 -28.72216797 36.30639648 C-28.72654482 33.77584696 -28.76293207 31.24703912 -28.80078125 28.71679688 C-28.80665019 27.08854756 -28.81061907 25.46029006 -28.8125 23.83203125 C-28.83405655 22.712911 -28.83405655 22.712911 -28.85604858 21.57118225 C-28.808551 16.03219408 -27.37084624 11.8585439 -24.3515625 7.203125 C-22.203125 5.14453125 -22.203125 5.14453125 -19.9765625 3.765625 C-19.24695313 3.29253906 -18.51734375 2.81945312 -17.765625 2.33203125 C-12.19149508 -0.27464116 -6.03225639 0.03015735 0 0 Z " fill="#D0B27D" transform="translate(298.3515625,720.796875)"/>
<path d="M0 0 C2.03450182 -0.00978714 4.06802618 -0.04088999 6.10229492 -0.07226562 C7.38168945 -0.07742188 8.66108398 -0.08257813 9.97924805 -0.08789062 C11.15189209 -0.09723633 12.32453613 -0.10658203 13.53271484 -0.11621094 C14.45995361 0.00141602 15.38719238 0.11904297 16.3425293 0.24023438 C18.14662413 2.94637662 18.75272795 4.31173271 19.45361328 7.35791016 C19.7431765 8.59539505 19.7431765 8.59539505 20.03858948 9.85787964 C20.24072556 10.74975983 20.44286163 11.64164001 20.65112305 12.56054688 C20.8674791 13.49230743 21.08383514 14.42406799 21.30674744 15.38406372 C21.99079932 18.3348897 22.66669072 21.28751787 23.3425293 24.24023438 C23.76775484 26.07731489 24.19368185 27.9142332 24.62036133 29.75097656 C26.10095263 36.12938313 27.57612527 42.50904187 29.04296875 48.890625 C31.61367751 60.06744838 34.29673115 71.18190639 37.3425293 82.24023438 C37.75888837 83.76001937 38.17497066 85.27988022 38.59082031 86.79980469 C38.80859634 87.59529724 39.02637238 88.39078979 39.25074768 89.21038818 C40.14012289 92.46013357 41.02867479 95.71010366 41.91674805 98.96020508 C42.37278604 100.62536982 42.83050807 102.29007414 43.28979492 103.9543457 C43.96310451 106.3960413 44.62997754 108.83941723 45.2956543 111.28320312 C45.60493866 112.39564644 45.60493866 112.39564644 45.92047119 113.53056335 C46.84027174 116.9291715 47.3425293 119.68830586 47.3425293 123.24023438 C37.7725293 123.24023438 28.2025293 123.24023438 18.3425293 123.24023438 C17.8681543 120.60023438 17.3937793 117.96023438 16.9050293 115.24023438 C16.75751221 114.42554688 16.60999512 113.61085938 16.45800781 112.77148438 C16.33868896 112.10117187 16.21937012 111.43085937 16.09643555 110.74023438 C15.97598877 110.06992187 15.85554199 109.39960937 15.73144531 108.70898438 C15.18365038 105.23170733 14.77915156 101.73321246 14.3425293 98.24023438 C4.4425293 98.24023438 -5.4574707 98.24023438 -15.6574707 98.24023438 C-16.3174707 102.86023438 -16.9774707 107.48023438 -17.6574707 112.24023438 C-18.30560521 115.9129966 -18.95502935 119.57857201 -19.6574707 123.24023438 C-23.57399702 123.32737753 -27.49027381 123.38067423 -31.4074707 123.42773438 C-32.51864258 123.45287109 -33.62981445 123.47800781 -34.7746582 123.50390625 C-35.84458008 123.51357422 -36.91450195 123.52324219 -38.0168457 123.53320312 C-39.00136719 123.54891357 -39.98588867 123.56462402 -41.00024414 123.58081055 C-44.05029479 123.18988619 -45.39860793 122.27180494 -47.6574707 120.24023438 C-46.26757926 111.77473676 -44.35050285 103.46154008 -42.30834961 95.13525391 C-41.78691632 93.00836772 -41.27062452 90.88028484 -40.75512695 88.75195312 C-39.18856209 82.30999762 -37.57789678 75.88592871 -35.8449707 69.48632812 C-33.89239527 62.23623072 -32.07879039 54.95435152 -30.2746582 47.66601562 C-29.97198029 46.44504181 -29.66930237 45.22406799 -29.35745239 43.96609497 C-28.0921117 38.859371 -26.82736198 33.75251054 -25.57006836 28.64379883 C-24.64251237 24.87930548 -23.70907046 21.11631208 -22.7746582 17.35351562 C-22.49129608 16.19628494 -22.20793396 15.03905426 -21.91598511 13.84675598 C-21.64875641 12.77431137 -21.38152771 11.70186676 -21.10620117 10.59692383 C-20.87399872 9.65621536 -20.64179626 8.7155069 -20.40255737 7.74629211 C-19.69567656 5.36873766 -18.95173649 3.35546109 -17.6574707 1.24023438 C-12.11821042 -0.61416825 -5.77786945 0.01686764 0 0 Z " fill="#D0B27D" transform="translate(644.657470703125,721.759765625)"/>
<path d="M0 0 C23.43 0 46.86 0 71 0 C71.81814192 3.27256768 72.11871834 5.47993899 72.09765625 8.765625 C72.09282227 10.09980469 72.09282227 10.09980469 72.08789062 11.4609375 C72.07532227 12.84152344 72.07532227 12.84152344 72.0625 14.25 C72.05798828 15.18585937 72.05347656 16.12171875 72.04882812 17.0859375 C72.03706918 19.39069041 72.02063426 21.69531227 72 24 C67.867897 25.1307197 63.77638098 25.32669944 59.515625 25.53515625 C58.29223419 25.59962196 58.29223419 25.59962196 57.04412842 25.66539001 C54.44626129 25.8014378 51.84815313 25.93203975 49.25 26.0625 C47.48565843 26.15393763 45.72133522 26.24573038 43.95703125 26.33789062 C39.63824249 26.56337771 35.31917031 26.7814958 31 27 C30.67 34.59 30.34 42.18 30 50 C36.98392449 49.67426302 36.98392449 49.67426302 43.9675293 49.34179688 C51.33713128 49.00983876 58.60300218 49 66 49 C66 57.58 66 66.16 66 75 C53.46 75 40.92 75 28 75 C28 83.25 28 91.5 28 100 C28.66 100 29.32 100 30 100 C30 100.66 30 101.32 30 102 C44.52 102 59.04 102 74 102 C74 109.92 74 117.84 74 126 C49.58 126 25.16 126 0 126 C-1.1492285 103.01542995 -1.1492285 103.01542995 -1.12939453 95.50634766 C-1.13114685 94.62858673 -1.13289917 93.75082581 -1.13470459 92.84646606 C-1.13899333 90.03564282 -1.13623397 87.22488601 -1.1328125 84.4140625 C-1.13348892 82.41352324 -1.13446173 80.41298406 -1.13571167 78.41244507 C-1.13717074 74.25949303 -1.13509121 70.10656276 -1.13037109 65.95361328 C-1.12465237 60.66890051 -1.1279778 55.38423832 -1.13394356 50.09952736 C-1.13757885 45.98309964 -1.1363974 41.86668368 -1.13381577 37.75025558 C-1.13315585 35.80248381 -1.13394159 33.85471092 -1.13629532 31.90694046 C-1.13887379 29.17702705 -1.13491046 26.44719276 -1.12939453 23.71728516 C-1.13141876 22.93877197 -1.13344299 22.16025879 -1.13552856 21.3581543 C-1.10901093 14.16931839 -0.51649613 7.23094578 0 0 Z " fill="#D0B27D" transform="translate(577,574)"/>
<path d="M0 0 C23.1 0 46.2 0 70 0 C70 7.92 70 15.84 70 24 C56.35146025 25.12399739 42.6841719 25.53596242 29 26 C28.67 33.26 28.34 40.52 28 48 C39.88 48 51.76 48 64 48 C64.87956963 52.39784817 65.13390532 56.04733904 65.125 60.5 C65.12886719 62.43359375 65.12886719 62.43359375 65.1328125 64.40625 C65 68 65 68 64 73 C52.12 73 40.24 73 28 73 C28.144375 76.939375 28.28875 80.87875 28.4375 84.9375 C28.48060303 86.18136475 28.52370605 87.42522949 28.56811523 88.70678711 C28.6252771 90.16483765 28.6252771 90.16483765 28.68359375 91.65234375 C28.72025146 92.65257568 28.75690918 93.65280762 28.79467773 94.68334961 C28.74671841 96.96069188 28.74671841 96.96069188 30 98 C33.02807044 98.1603556 36.03585454 98.25960448 39.06640625 98.31640625 C39.97502914 98.33718735 40.88365204 98.35796844 41.81980896 98.37937927 C44.73395946 98.44497672 47.64820304 98.5038068 50.5625 98.5625 C52.53321291 98.60567554 54.50391626 98.64928951 56.47460938 98.69335938 C61.31630988 98.80066843 66.15810437 98.90190675 71 99 C72.01148562 102.69739677 72.13326486 106.03183819 72.125 109.875 C72.12886719 111.66550781 72.12886719 111.66550781 72.1328125 113.4921875 C72 117 72 117 71 123 C47.24 123 23.48 123 -1 123 C-1.04010881 96.35883753 -1.04010881 96.35883753 -1.04882812 84.9375 C-1.05478859 77.16698518 -1.06181366 69.39648222 -1.07543945 61.62597656 C-1.08636425 55.35602311 -1.09229704 49.08608239 -1.09487724 42.81612015 C-1.09671429 40.43293686 -1.10030134 38.0497542 -1.10573006 35.66657639 C-1.11306806 32.30944095 -1.11398562 28.9523571 -1.11352539 25.59521484 C-1.11712067 24.62631821 -1.12071594 23.65742157 -1.12442017 22.65916443 C-1.11321031 15.02327834 -0.5482007 7.67480973 0 0 Z " fill="#D1B37D" transform="translate(516,722)"/>
<path d="M0 0 C24.75 0 49.5 0 75 0 C75 8.25 75 16.5 75 25 C63.615 25.99 63.615 25.99 52 27 C52.01160156 29.56136719 52.02320313 32.12273438 52.03515625 34.76171875 C52.1364189 64.51894891 51.64773464 94.25047309 51 124 C41.43 124 31.86 124 22 124 C22 91.66 22 59.32 22 26 C14.74 26 7.48 26 0 26 C0 17.42 0 8.84 0 0 Z " fill="#D1B37D" transform="translate(686,722)"/>
<path d="M0 0 C9.81894338 4.15330019 18.97069068 16.27541693 23 26 C23 27.32 23 28.64 23 30 C21.95545654 30.01981934 20.91091309 30.03963867 19.8347168 30.06005859 C15.9599595 30.13612114 12.08557743 30.22483728 8.21118164 30.31738281 C6.53417366 30.35566993 4.85708362 30.39052331 3.17993164 30.421875 C0.76939568 30.46753179 -1.64057557 30.5255241 -4.05078125 30.5859375 C-5.17592888 30.60326431 -5.17592888 30.60326431 -6.32380676 30.62094116 C-10.06127713 30.72695459 -11.81428623 30.87619082 -15 33 C-15.99 33 -16.98 33 -18 33 C-18.99 36.3 -19.98 39.6 -21 43 C-24.3924601 39.6075399 -23.36904639 34.97713773 -23.375 30.375 C-23.39949219 29.40175781 -23.42398437 28.42851562 -23.44921875 27.42578125 C-23.48041837 19.69867419 -21.89449281 14.40528566 -16.875 8.5 C-12.4896768 6.21200528 -8.83736866 6.08428412 -4 7 C0.1808032 8.70383735 4.09259066 10.74417605 8 13 C8 12.34 8 11.68 8 11 C7.195625 10.731875 6.39125 10.46375 5.5625 10.1875 C1.375 8.79166667 -2.8125 7.39583333 -7 6 C-4.74259377 3.66475218 -2.7194239 1.81294927 0 0 Z " fill="#D1B37E" transform="translate(462,209)"/>
<path d="M0 0 C3.58305992 -0.11627503 7.16563417 -0.1872736 10.75 -0.25 C11.76578125 -0.28351562 12.7815625 -0.31703125 13.828125 -0.3515625 C14.8078125 -0.36445312 15.7875 -0.37734375 16.796875 -0.390625 C17.69760742 -0.41157227 18.59833984 -0.43251953 19.52636719 -0.45410156 C22.89000913 0.16338502 24.00854339 1.24439638 26 4 C26.50170898 6.86914062 26.50170898 6.86914062 26.49609375 10.15625 C26.49673828 11.34347656 26.49738281 12.53070312 26.49804688 13.75390625 C26.47806641 14.99011719 26.45808594 16.22632813 26.4375 17.5 C26.44458984 18.73621094 26.45167969 19.97242188 26.45898438 21.24609375 C26.38609017 31.57464206 26.38609017 31.57464206 23 35 C18.51374862 36.21704944 13.94389204 36.1946998 9.3125 36.25 C7.35763672 36.28867187 7.35763672 36.28867187 5.36328125 36.328125 C2 36 2 36 0.31030273 34.91723633 C-1.68825949 31.992938 -1.35391894 29.5020678 -1.328125 25.99609375 C-1.32625183 25.31700455 -1.32437866 24.63791534 -1.32244873 23.93824768 C-1.31573521 22.50508705 -1.30183441 21.07194454 -1.28125 19.63891602 C-1.25006455 17.44204737 -1.24027515 15.2458963 -1.234375 13.04882812 C-1.16378309 2.32756618 -1.16378309 2.32756618 0 0 Z " fill="#662012" transform="translate(509,598)"/>
<path d="M0 0 C3.93736123 -0.08696177 7.87447628 -0.14037835 11.8125 -0.1875 C13.49182617 -0.22520508 13.49182617 -0.22520508 15.20507812 -0.26367188 C16.27822266 -0.27333984 17.35136719 -0.28300781 18.45703125 -0.29296875 C19.9416687 -0.31653442 19.9416687 -0.31653442 21.45629883 -0.34057617 C24 0 24 0 25.82373047 1.15332031 C27.4916926 3.77193085 27.37207102 5.7494084 27.36328125 8.83984375 C27.36263672 9.98517578 27.36199219 11.13050781 27.36132812 12.31054688 C27.34521484 13.50744141 27.32910156 14.70433594 27.3125 15.9375 C27.31733398 17.72704102 27.31733398 17.72704102 27.32226562 19.55273438 C27.26046121 29.54819442 27.26046121 29.54819442 25 33 C22.49502996 34.25248502 20.79146726 34.11374406 17.9921875 34.09765625 C17.00605469 34.09443359 16.01992188 34.09121094 15.00390625 34.08789062 C13.97136719 34.07951172 12.93882812 34.07113281 11.875 34.0625 C10.31458984 34.05573242 10.31458984 34.05573242 8.72265625 34.04882812 C6.14838038 34.03701952 3.57421854 34.02055075 1 34 C-0.17942085 30.46173745 -0.11289189 27.65851274 -0.09765625 23.92578125 C-0.0962413 23.2419487 -0.09482635 22.55811615 -0.09336853 21.8535614 C-0.08777876 19.67316278 -0.07522822 17.49286749 -0.0625 15.3125 C-0.05748367 13.83268378 -0.052921 12.35286594 -0.04882812 10.87304688 C-0.03781271 7.24866443 -0.02055512 3.6243423 0 0 Z " fill="#651D10" transform="translate(695,598)"/>
<path d="M0 0 C0.66 0 1.32 0 2 0 C2.96082871 4.12442277 3.91820143 8.24964061 4.875 12.375 C5.14441406 13.53128906 5.41382813 14.68757812 5.69140625 15.87890625 C10.3225353 35.87182924 10.3225353 35.87182924 10 42 C6.43954823 43.18681726 3.56191663 43.09689832 -0.1875 43.0625 C-1.45980469 43.05347656 -2.73210938 43.04445313 -4.04296875 43.03515625 C-5.50669922 43.01775391 -5.50669922 43.01775391 -7 43 C-6.82418148 29.15828708 -6.30885397 12.61770794 0 0 Z " fill="#652012" transform="translate(643,756)"/>
<path d="M0 0 C6.93 0 13.86 0 21 0 C21.92189849 20.64969472 22.1291143 41.24273972 22.06866455 61.90838623 C22.05819428 65.88553305 22.05381773 69.86268695 22.04882812 73.83984375 C22.03829493 81.55991414 22.02136867 89.27995115 22 97 C21.34 96.67 20.68 96.34 20 96 C18.60278775 91.49528871 18.90496151 86.83443447 18.97827148 82.1706543 C18.98787903 81.29210281 18.99748657 80.41355133 19.00738525 79.50837708 C19.04028326 76.61357374 19.08065052 73.71892568 19.12109375 70.82421875 C19.14540386 68.8135482 19.16924697 66.80287195 19.19264221 64.79219055 C19.25539448 59.50675963 19.32448618 54.22142989 19.39489746 48.93609619 C19.46566095 43.54012652 19.53042993 38.14408526 19.59570312 32.74804688 C19.72460131 22.16528373 19.86075069 11.58263201 20 1 C13.4 1 6.8 1 0 1 C0 0.67 0 0.34 0 0 Z " fill="#580F09" transform="translate(686,749)"/>
<path d="M0 0 C6.71539173 1.29975324 12.72019113 3.29928888 19 6 C18.67 7.32 18.34 8.64 18 10 C30.89848112 18.60725226 43.88916786 26.8587976 57.43359375 34.4140625 C61.71213904 36.8054136 65.8720845 39.35830516 70 42 C69.01 42.495 69.01 42.495 68 43 C65.37425204 41.75261379 62.89530662 40.43858809 60.375 39 C59.18813599 38.33037231 59.18813599 38.33037231 57.97729492 37.6472168 C42.70332129 28.92574403 27.94370232 19.31145852 13.1875 9.75 C11.71953979 8.80217651 11.71953979 8.80217651 10.22192383 7.83520508 C8.86490356 6.94998169 8.86490356 6.94998169 7.48046875 6.046875 C6.68535889 5.52963867 5.89024902 5.01240234 5.07104492 4.47949219 C3.16496763 3.11784791 1.59320336 1.71021469 0 0 Z " fill="#5A180C" transform="translate(640,335)"/>
<path d="M0 0 C0.33 0 0.66 0 1 0 C3.20980926 38.94788828 3.20980926 38.94788828 0 56 C-0.66 56 -1.32 56 -2 56 C-2 39.5 -2 23 -2 6 C-1.67 6 -1.34 6 -1 6 C-0.67 4.02 -0.34 2.04 0 0 Z " fill="#C6A371" transform="translate(669,588)"/>
<path d="M0 0 C0.33 0 0.66 0 1 0 C1.0254465 7.81045838 1.04290736 15.62090599 1.05493164 23.43139648 C1.05937963 26.08603876 1.06676042 28.74062652 1.07543945 31.39526367 C1.08762874 35.22054727 1.09325664 39.04579421 1.09765625 42.87109375 C1.10281754 44.04957382 1.10797882 45.22805389 1.11329651 46.44224548 C1.11371946 52.71657467 0.83492321 58.77996653 0 65 C-0.33 65 -0.66 65 -1 65 C-1.76861456 58.89097705 -2.13812351 52.96147282 -2.09765625 46.80859375 C-2.0962413 45.97787857 -2.09482635 45.14716339 -2.09336853 44.29127502 C-2.0878317 41.67331125 -2.07529162 39.05543733 -2.0625 36.4375 C-2.05747681 34.64778771 -2.05291535 32.85807405 -2.04882812 31.06835938 C-2.03788308 26.71220567 -2.02066319 22.356118 -2 18 C-1.67 18 -1.34 18 -1 18 C-0.505 9.09 -0.505 9.09 0 0 Z " fill="#783122" transform="translate(463,574)"/>
<path d="M0 0 C-0.46247533 7.19270839 -1.25077067 14.0030827 -3 21 C-6.6534045 17.3465955 -7.1153207 11.70487501 -7.375 6.6875 C-7 3 -7 3 -5.1875 1 C-3 0 -3 0 0 0 Z " fill="#5D190D" transform="translate(408,778)"/>
<path d="M0 0 C0.66 0.33 1.32 0.66 2 1 C0.07812282 3.67825182 -1.86495151 6.34037208 -3.8125 9 C-4.35970703 9.763125 -4.90691406 10.52625 -5.47070312 11.3125 C-6.00244141 12.034375 -6.53417969 12.75625 -7.08203125 13.5 C-7.56905518 14.1703125 -8.0560791 14.840625 -8.55786133 15.53125 C-9.03376709 16.0159375 -9.50967285 16.500625 -10 17 C-10.99 17 -11.98 17 -13 17 C-13 16.01 -13 15.02 -13 14 C-13.99 13.67 -14.98 13.34 -16 13 C-10.85963514 8.3791401 -5.59363406 4.06133537 0 0 Z " fill="#631B10" transform="translate(412,361)"/>
<path d="M0 0 C0.33 0.99 0.66 1.98 1 3 C0 4 0 4 -2.50024414 4.11352539 C-3.58426514 4.10828857 -4.66828613 4.10305176 -5.78515625 4.09765625 C-6.95498047 4.09443359 -8.12480469 4.09121094 -9.33007812 4.08789062 C-10.56177734 4.07951172 -11.79347656 4.07113281 -13.0625 4.0625 C-14.91584961 4.05573242 -14.91584961 4.05573242 -16.80664062 4.04882812 C-19.87114117 4.03699608 -22.93554721 4.02051173 -26 4 C-23.72692336 7.67840889 -23.72692336 7.67840889 -21 11 C-18.98405418 11.23427778 -16.961526 11.41336124 -14.9375 11.5625 C-13.83277344 11.64628906 -12.72804688 11.73007813 -11.58984375 11.81640625 C-10.30787109 11.90728516 -10.30787109 11.90728516 -9 12 C-9 12.33 -9 12.66 -9 13 C-20.48101563 13.90772305 -20.48101563 13.90772305 -23.94140625 11.83984375 C-26.6534928 8.67439347 -27.17610217 6.11948915 -28 2 C-18.76 2 -9.52 2 0 2 C0 1.34 0 0.68 0 0 Z " fill="#DFBF8B" transform="translate(495,242)"/>
<path d="M0 0 C2.65069433 2.47398137 4.71615844 4.57642251 6 8 C6 9.32 6 10.64 6 12 C-5.55 12 -17.1 12 -29 12 C-24.77037676 9.88518838 -22.89005069 9.76412236 -18.265625 9.8046875 C-16.97011719 9.81113281 -15.67460937 9.81757813 -14.33984375 9.82421875 C-12.97655981 9.84092807 -11.61327856 9.85785794 -10.25 9.875 C-8.87110015 9.8850366 -7.49219335 9.89416127 -6.11328125 9.90234375 C-2.74201118 9.92591907 0.62890636 9.9588273 4 10 C3.71125 9.44570312 3.4225 8.89140625 3.125 8.3203125 C2.568125 7.23363281 2.568125 7.23363281 2 6.125 C1.62875 5.40570313 1.2575 4.68640625 0.875 3.9453125 C0 2 0 2 0 0 Z " fill="#DDB788" transform="translate(479,227)"/>
<path d="M0 0 C0.33 0 0.66 0 1 0 C1.17159443 6.17739955 0.53731344 11.91629688 -0.5 18 C-0.64308594 18.87011719 -0.78617187 19.74023438 -0.93359375 20.63671875 C-1.28338027 22.75875695 -1.6408865 24.87952028 -2 27 C-5.66541254 21.5018812 -6.34357529 14.52793043 -6 8 C-4.68 7.67 -3.36 7.34 -2 7 C-1.34 4.69 -0.68 2.38 0 0 Z " fill="#59180C" transform="translate(465,773)"/>
<path d="M0 0 C5.44474656 2.49082413 9.9580717 6.38095922 14.6875 10 C15.66267578 10.73734375 16.63785156 11.4746875 17.64257812 12.234375 C18.56876953 12.94078125 19.49496094 13.6471875 20.44921875 14.375 C21.29830811 15.02210938 22.14739746 15.66921875 23.0222168 16.3359375 C25 18 25 18 26 20 C21.67870413 18.55956804 18.76883035 16.37514503 15.3125 13.4375 C11.86183949 10.40830054 11.86183949 10.40830054 8 8 C9.98 10.97 11.96 13.94 14 17 C13.67 17.66 13.34 18.32 13 19 C11.38930269 16.96320828 9.78646883 14.92096847 8.1875 12.875 C7.50977539 12.02035156 7.50977539 12.02035156 6.81835938 11.1484375 C4.05620914 7.59998172 1.88236519 4.11493785 0 0 Z " fill="#5B190D" transform="translate(613,361)"/>
<path d="M0 0 C4.31248609 -0.02886537 8.62494762 -0.04675255 12.9375 -0.0625 C14.16919922 -0.07087891 15.40089844 -0.07925781 16.66992188 -0.08789062 C17.83974609 -0.09111328 19.00957031 -0.09433594 20.21484375 -0.09765625 C21.84087524 -0.10551147 21.84087524 -0.10551147 23.49975586 -0.11352539 C26 0 26 0 27 1 C27.04063832 2.66617115 27.042721 4.33388095 27 6 C26.67 4.68 26.34 3.36 26 2 C15.11 2.495 15.11 2.495 4 3 C3.34 4.65 2.68 6.3 2 8 C1.34 7.67 0.68 7.34 0 7 C0 4.69 0 2.38 0 0 Z " fill="#DFBC8B" transform="translate(419,721)"/>
<path d="M0 0 C-11.1328125 7.421875 -11.1328125 7.421875 -13.11035156 8.72851562 C-14.33025458 9.54934959 -15.53675111 10.39064059 -16.72558594 11.25585938 C-18.3046875 12.390625 -18.3046875 12.390625 -21 14 C-21.99 13.67 -22.98 13.34 -24 13 C-23.01 12.38125 -22.02 11.7625 -21 11.125 C-20.01 10.42375 -19.02 9.7225 -18 9 C-18 8.34 -18 7.68 -18 7 C-17.34 7 -16.68 7 -16 7 C-15.96777344 6.38769531 -15.93554688 5.77539062 -15.90234375 5.14453125 C-15 3 -15 3 -12.12890625 1.69921875 C-10.95199219 1.36535156 -9.77507812 1.03148437 -8.5625 0.6875 C-7.38816406 0.34074219 -6.21382813 -0.00601562 -5.00390625 -0.36328125 C-2 -1 -2 -1 0 0 Z " fill="#5E1E11" transform="translate(387,336)"/>
<path d="M0 0 C9.9 0 19.8 0 30 0 C29.67 1.32 29.34 2.64 29 4 C29 3.01 29 2.02 29 1 C28.01 1.495 28.01 1.495 27 2 C25.21081825 2.11765181 23.41775925 2.17888193 21.625 2.2109375 C20.02398438 2.25347656 20.02398438 2.25347656 18.390625 2.296875 C16.13037476 2.3489545 13.86993114 2.39322692 11.609375 2.4296875 C10.54203125 2.460625 9.4746875 2.4915625 8.375 2.5234375 C6.90160156 2.5531665 6.90160156 2.5531665 5.3984375 2.58349609 C4.60695313 2.72094238 3.81546875 2.85838867 3 3 C2.34 3.99 1.68 4.98 1 6 C0.67 5.67 0.34 5.34 0 5 C0 3.35 0 1.7 0 0 Z " fill="#581007" transform="translate(629,820)"/>
<path d="M0 0 C2 2 2 2 2 12 C8.93 12 15.86 12 23 12 C19.79593538 14.13604308 19.00399253 14.24208908 15.33203125 14.1953125 C14.43935547 14.18886719 13.54667969 14.18242188 12.62695312 14.17578125 C11.23379883 14.15064453 11.23379883 14.15064453 9.8125 14.125 C8.87212891 14.11597656 7.93175781 14.10695313 6.96289062 14.09765625 C4.64181843 14.07409207 2.32087711 14.03822121 0 14 C0 9.38 0 4.76 0 0 Z " fill="#D7B784" transform="translate(324,748)"/>
<path d="M0 0 C3.45201639 1.47721422 5.64961936 3.43794001 8.25 6.125 C8.95640625 6.84945313 9.6628125 7.57390625 10.390625 8.3203125 C11.18726563 9.15175781 11.18726563 9.15175781 12 10 C11.67 10.66 11.34 11.32 11 12 C10.46890625 11.41089844 9.9378125 10.82179688 9.390625 10.21484375 C8.68421875 9.46332031 7.9778125 8.71179688 7.25 7.9375 C6.20585937 6.80634766 6.20585937 6.80634766 5.140625 5.65234375 C3.18156624 3.78454283 3.18156624 3.78454283 0.9609375 4.03515625 C-1.40468019 5.19911555 -2.8311795 6.57184052 -4.625 8.5 C-7.83011583 11.91505792 -7.83011583 11.91505792 -10 13 C-10.66 13.99 -11.32 14.98 -12 16 C-11.76833772 11.94888011 -11.25861948 10.28645839 -8.49609375 7.2265625 C-7.48921251 6.3447188 -6.46920405 5.47766927 -5.4375 4.625 C-4.91736328 4.17511719 -4.39722656 3.72523438 -3.86132812 3.26171875 C-2.58540089 2.16137783 -1.29416762 1.07882836 0 0 Z " fill="#5B170C" transform="translate(458,477)"/>
<path d="M0 0 C11.88 0 23.76 0 36 0 C33.44085276 2.55914724 31.79558351 2.56934885 28.25 3.125 C27.22390625 3.29257812 26.1978125 3.46015625 25.140625 3.6328125 C22.06077228 3.99289478 19.09752203 4.06491813 16 4 C16 3.67 16 3.34 16 3 C17.65 2.67 19.3 2.34 21 2 C14.07 1.67 7.14 1.34 0 1 C0 0.67 0 0.34 0 0 Z " fill="#531207" transform="translate(328,306)"/>
<path d="M0 0 C6.71539173 1.29975324 12.72019113 3.29928888 19 6 C19 6.33 19 6.66 19 7 C11.77875787 6.58169634 4.95432222 6.04538889 -2 4 C-0.68 3.34 0.64 2.68 2 2 C1.34 1.34 0.68 0.68 0 0 Z " fill="#530F06" transform="translate(335,268)"/>
<path d="M0 0 C-3.465 1.485 -3.465 1.485 -7 3 C-5.35 3 -3.7 3 -2 3 C-4.87343437 4.91562291 -5.77503541 5.29210899 -9.01171875 5.6328125 C-9.76904297 5.71660156 -10.52636719 5.80039062 -11.30664062 5.88671875 C-12.09232422 5.96535156 -12.87800781 6.04398437 -13.6875 6.125 C-14.48478516 6.21136719 -15.28207031 6.29773438 -16.10351562 6.38671875 C-18.06823326 6.59848472 -20.03402796 6.80021473 -22 7 C-20.27148984 3.54297968 -16.16655084 3.02745202 -12.6875 1.8125 C-11.91470703 1.52697266 -11.14191406 1.24144531 -10.34570312 0.94726562 C-9.22131836 0.54991211 -9.22131836 0.54991211 -8.07421875 0.14453125 C-7.38932373 -0.09934326 -6.70442871 -0.34321777 -5.9987793 -0.59448242 C-3.68281714 -1.06435089 -2.22470469 -0.72849821 0 0 Z " fill="#521408" transform="translate(694,268)"/>
<path d="M0 0 C11.22 0 22.44 0 34 0 C34 0.33 34 0.66 34 1 C23.605 1.495 23.605 1.495 13 2 C13 2.33 13 2.66 13 3 C11.20759337 2.88610125 9.41605165 2.75852313 7.625 2.625 C6.12839844 2.52058594 6.12839844 2.52058594 4.6015625 2.4140625 C2 2 2 2 0 0 Z " fill="#521207" transform="translate(663,306)"/>
<path d="M0 0 C0.556875 0.7425 1.11375 1.485 1.6875 2.25 C3.93027178 4.91707995 6.22074975 6.91556232 9 9 C9.66 6.03 10.32 3.06 11 0 C11.33 0 11.66 0 12 0 C12.06058594 0.75925781 12.12117188 1.51851562 12.18359375 2.30078125 C12.26738281 3.29464844 12.35117187 4.28851562 12.4375 5.3125 C12.51871094 6.29863281 12.59992188 7.28476562 12.68359375 8.30078125 C12.91812559 11.09375599 12.91812559 11.09375599 14 14 C8.79175294 12.53518051 4.48539829 9.06358352 1 5 C0.265625 2.26953125 0.265625 2.26953125 0 0 Z " fill="#DFBC8B" transform="translate(405,522)"/>
<path d="M0 0 C0.33 0 0.66 0 1 0 C1.495 2.97 1.495 2.97 2 6 C-1.18285696 7.59142848 -4.5870442 7.00008284 -8.0703125 6.87890625 C-8.86654022 6.85529526 -9.66276794 6.83168427 -10.48312378 6.80735779 C-13.03059529 6.73067789 -15.5777661 6.64667239 -18.125 6.5625 C-19.85024562 6.50928363 -21.57550598 6.4565432 -23.30078125 6.40429688 C-27.53404522 6.27505693 -31.76705382 6.13924581 -36 6 C-36 5.67 -36 5.34 -36 5 C-24.12 5 -12.24 5 0 5 C0 3.35 0 1.7 0 0 Z " fill="#83522D" transform="translate(580,790)"/>
<path d="M0 0 C0.66 0 1.32 0 2 0 C3.77792461 2.04712784 5.42930397 4.09242561 7.0625 6.25 C7.52205078 6.83652344 7.98160156 7.42304688 8.45507812 8.02734375 C10.72073806 10.98833837 12.2663923 13.35227071 13 17 C9.11024581 13.40945767 6.10267805 9.26101118 3 5 C2.34 6.32 1.68 7.64 1 9 C0 8 0 8 -0.09765625 6.15234375 C-0.06510417 4.1015625 -0.03255208 2.05078125 0 0 Z " fill="#54160A" transform="translate(534,449)"/>
<path d="M0 0 C1.16144531 0.00902344 2.32289063 0.01804687 3.51953125 0.02734375 C4.39996094 0.03894531 5.28039062 0.05054688 6.1875 0.0625 C5.8575 1.0525 5.5275 2.0425 5.1875 3.0625 C-0.7525 3.0625 -6.6925 3.0625 -12.8125 3.0625 C-12.4825 2.4025 -12.1525 1.7425 -11.8125 1.0625 C-7.88476248 -0.07920067 -4.06671021 -0.04107788 0 0 Z " fill="#C8A674" transform="translate(688.8125,302.9375)"/>
<path d="M0 0 C0.66 0 1.32 0 2 0 C2.33 2.97 2.66 5.94 3 9 C1.68 9.33 0.36 9.66 -1 10 C-1.33 10.66 -1.66 11.32 -2 12 C-1.85904936 10.3745692 -1.71207913 8.74965949 -1.5625 7.125 C-1.48128906 6.22007812 -1.40007813 5.31515625 -1.31640625 4.3828125 C-1 2 -1 2 0 0 Z " fill="#5B1A0E" transform="translate(643,756)"/>
<path d="M0 0 C10.89 0 21.78 0 33 0 C33 0.33 33 0.66 33 1 C23.1 1 13.2 1 3 1 C3 1.66 3 2.32 3 3 C2.01 3 1.02 3 0 3 C0 2.01 0 1.02 0 0 Z " fill="#7F4A28" transform="translate(605,649)"/>
<path d="M0 0 C2.42381048 2.42381048 2.44016497 3.52894921 2.8125 6.875 C2.92207031 7.73867188 3.03164063 8.60234375 3.14453125 9.4921875 C2.96851602 12.54628953 2.01473912 13.76140097 0 16 C-0.1958009 14.08416353 -0.38132214 12.16727461 -0.5625 10.25 C-0.66691406 9.18265625 -0.77132813 8.1153125 -0.87890625 7.015625 C-0.98560074 4.35858796 -0.81930395 2.50039428 0 0 Z " fill="#5C180C" transform="translate(432,777)"/>
<path d="M0 0 C1.32 0.33 2.64 0.66 4 1 C4 1.99 4 2.98 4 4 C5.32 4.33 6.64 4.66 8 5 C2.77487721 6.46670113 -1.5814234 7.22577402 -7 7 C-7 6.67 -7 6.34 -7 6 C-5.35 5.67 -3.7 5.34 -2 5 C-2 4.34 -2 3.68 -2 3 C-1.34 3 -0.68 3 0 3 C0 2.01 0 1.02 0 0 Z " fill="#58140A" transform="translate(700,264)"/>
<path d="M0 0 C0.33 0 0.66 0 1 0 C1.33 9.57 1.66 19.14 2 29 C1.34 29.33 0.68 29.66 0 30 C-0.66 29.34 -1.32 28.68 -2 28 C-1.67 27.34 -1.34 26.68 -1 26 C-0.84621148 24.04225931 -0.75028537 22.07982648 -0.68359375 20.1171875 C-0.62075195 18.36728516 -0.62075195 18.36728516 -0.55664062 16.58203125 C-0.51732422 15.35871094 -0.47800781 14.13539063 -0.4375 12.875 C-0.39431641 11.64394531 -0.35113281 10.41289063 -0.30664062 9.14453125 C-0.20031296 6.09647147 -0.09828219 3.0483281 0 0 Z " fill="#6F221A" transform="translate(532,602)"/>
<path d="M0 0 C0.66 0.33 1.32 0.66 2 1 C-0.31 3.97 -2.62 6.94 -5 10 C-5.66 9.34 -6.32 8.68 -7 8 C-8.98 8.99 -8.98 8.99 -11 10 C-7.50640535 6.40365256 -3.88901869 3.16548033 0 0 Z " fill="#56150A" transform="translate(412,361)"/>
<path d="M0 0 C2.31 0 4.62 0 7 0 C7.33 0.66 7.66 1.32 8 2 C5.69 5.3 3.38 8.6 1 12 C1 9 1 9 2.1875 6.5625 C2.455625 5.716875 2.72375 4.87125 3 4 C1.73647948 1.67488528 1.73647948 1.67488528 0 0 Z " fill="#DABA88" transform="translate(743,322)"/>
<path d="M0 0 C0.33 0 0.66 0 1 0 C1.04898437 0.78246094 1.09796875 1.56492188 1.1484375 2.37109375 C1.22320312 3.38300781 1.29796875 4.39492187 1.375 5.4375 C1.44460938 6.44683594 1.51421875 7.45617187 1.5859375 8.49609375 C1.72257812 9.32238281 1.85921875 10.14867187 2 11 C2.66 11.33 3.32 11.66 4 12 C3.34 14.97 2.68 17.94 2 21 C0 19 0 19 -0.22705078 17.02880859 C-0.21657715 16.24328613 -0.20610352 15.45776367 -0.1953125 14.6484375 C-0.18886719 13.79765625 -0.18242187 12.946875 -0.17578125 12.0703125 C-0.15902344 11.18085938 -0.14226562 10.29140625 -0.125 9.375 C-0.11597656 8.4778125 -0.10695313 7.580625 -0.09765625 6.65625 C-0.0740497 4.43723414 -0.0411231 2.21874923 0 0 Z " fill="#E6C193" transform="translate(439,231)"/>
<path d="M0 0 C1.8871875 0.0309375 1.8871875 0.0309375 3.8125 0.0625 C1.48035852 1.26878008 -0.68392139 2.2279738 -3.1875 3.0625 C-2.8575 4.7125 -2.5275 6.3625 -2.1875 8.0625 C-3.1775 7.7325 -4.1675 7.4025 -5.1875 7.0625 C-6.375 4 -6.375 4 -7.1875 1.0625 C-4.43671116 0.14557039 -2.82801087 -0.04636083 0 0 Z " fill="#DBB987" transform="translate(284.1875,320.9375)"/>
<path d="M0 0 C0.33 0 0.66 0 1 0 C1.02703381 1.93742341 1.04641125 3.87495479 1.0625 5.8125 C1.07410156 6.89144531 1.08570313 7.97039063 1.09765625 9.08203125 C1 12 1 12 0 15 C-0.66 15 -1.32 15 -2 15 C-2.22577402 9.5814234 -1.46670113 5.22512279 0 0 Z " fill="#5A140B" transform="translate(492,786)"/>
<path d="M0 0 C0.99 0.33 1.98 0.66 3 1 C2.34 1 1.68 1 1 1 C1 1.66 1 2.32 1 3 C2.32 2.67 3.64 2.34 5 2 C1.97731777 5.25519625 -1.14096436 7.78310719 -5 10 C-5.99 9.67 -6.98 9.34 -8 9 C-7.01 8.38125 -6.02 7.7625 -5 7.125 C-4.01 6.42375 -3.02 5.7225 -2 5 C-2 4.34 -2 3.68 -2 3 C-1.34 3 -0.68 3 0 3 C0 2.01 0 1.02 0 0 Z " fill="#581509" transform="translate(371,340)"/>
<path d="M0 0 C5.06998019 0.65419099 9.41990777 2.8546409 14 5 C10.28895884 6.23701372 9.51137242 5.42126979 6 4 C3.29113059 3.83201738 3.29113059 3.83201738 1 4 C0.67 2.68 0.34 1.36 0 0 Z " fill="#DFBD8C" transform="translate(224,179)"/>
<path d="M0 0 C2.10827055 3.16240582 2.33817465 4.50657469 2.625 8.1875 C2.69976562 9.08855469 2.77453125 9.98960937 2.8515625 10.91796875 C2.90054687 11.60503906 2.94953125 12.29210937 3 13 C2.34 13 1.68 13 1 13 C0.29826347 8.61414671 -0.10834375 4.44209357 0 0 Z " fill="#DDBE89" transform="translate(449,742)"/>
<path d="M0 0 C2.64 0.99 5.28 1.98 8 3 C8 3.33 8 3.66 8 4 C3.71 3.67 -0.58 3.34 -5 3 C-3.68 2.34 -2.36 1.68 -1 1 C-0.67 0.67 -0.34 0.34 0 0 Z " fill="#602614" transform="translate(346,271)"/>
<path d="M0 0 C2.97 0.33 5.94 0.66 9 1 C9 1.33 9 1.66 9 2 C7.35 2.33 5.7 2.66 4 3 C4 4.65 4 6.3 4 8 C3.34 7.67 2.68 7.34 2 7 C1.26924352 4.6859378 0.59861742 2.35171131 0 0 Z " fill="#E0BF8E" transform="translate(247,257)"/>
<path d="M0 0 C-2.09950586 0.86555948 -4.2047907 1.71711277 -6.3125 2.5625 C-8.07013672 3.27599609 -8.07013672 3.27599609 -9.86328125 4.00390625 C-13 5 -13 5 -16 4 C-15.67 3.34 -15.34 2.68 -15 2 C-12.67038557 1.64159778 -10.33634657 1.31151288 -8 1 C-7.0925 0.62875 -6.185 0.2575 -5.25 -0.125 C-3 -1 -3 -1 0 0 Z " fill="#E2BF8F" transform="translate(703,263)"/>
<path d="M0 0 C0.33 0.99 0.66 1.98 1 3 C-3.455 6.96 -3.455 6.96 -8 11 C-8.66 10.67 -9.32 10.34 -10 10 C-6.7 6.7 -3.4 3.4 0 0 Z " fill="#E5C894" transform="translate(371,413)"/>
<path d="M0 0 C1.98 0.99 1.98 0.99 4 2 C3.34 5.63 2.68 9.26 2 13 C1.67 13 1.34 13 1 13 C0.67 8.71 0.34 4.42 0 0 Z " fill="#E1C18F" transform="translate(613,265)"/>
<path d="M0 0 C-0.7109375 1.921875 -0.7109375 1.921875 -2 4 C-4.1640625 4.828125 -4.1640625 4.828125 -6.625 5.25 C-7.85089844 5.47429688 -7.85089844 5.47429688 -9.1015625 5.703125 C-9.72804688 5.80109375 -10.35453125 5.8990625 -11 6 C-9.73083275 3.46166551 -8.58375191 3.10599099 -6.0625 1.875 C-5.35222656 1.52179687 -4.64195312 1.16859375 -3.91015625 0.8046875 C-2 0 -2 0 0 0 Z " fill="#5D1A0F" transform="translate(456,695)"/>
<path d="M0 0 C2.64 0 5.28 0 8 0 C6.30820672 2.04219706 5.36272334 2.91793306 2.73828125 3.51171875 C1.93777344 3.56972656 1.13726563 3.62773437 0.3125 3.6875 C-0.49574219 3.75324219 -1.30398438 3.81898438 -2.13671875 3.88671875 C-2.75160156 3.92410156 -3.36648438 3.96148437 -4 4 C-3.01 3.67 -2.02 3.34 -1 3 C-0.67 2.01 -0.34 1.02 0 0 Z " fill="#6D2718" transform="translate(683,307)"/>
<path d="M0 0 C2.13093906 1.06546953 3.36587557 2.29159719 5 4 C3.35 4.66 1.7 5.32 0 6 C-0.99 5.01 -1.98 4.02 -3 3 C-2.01 2.01 -1.02 1.02 0 0 Z " fill="#6B2114" transform="translate(659,341)"/>
<path d="M0 0 C0.33 0 0.66 0 1 0 C1.33 1.98 1.66 3.96 2 6 C-0.83556587 7.41778293 -2.9908706 6.86257622 -6.125 6.5625 C-7.22070312 6.46066406 -8.31640625 6.35882812 -9.4453125 6.25390625 C-10.28835938 6.17011719 -11.13140625 6.08632813 -12 6 C-12 5.67 -12 5.34 -12 5 C-8.04 5 -4.08 5 0 5 C0 3.35 0 1.7 0 0 Z " fill="#7A4226" transform="translate(580,790)"/>
<path d="M0 0 C1 3 1 3 0.0625 5.1875 C-0.4634375 6.0846875 -0.4634375 6.0846875 -1 7 C-2.65 6.67 -4.3 6.34 -6 6 C-5.67 5.01 -5.34 4.02 -5 3 C-3.67696283 2.6278958 -2.34262065 2.29369827 -1 2 C-0.67 1.34 -0.34 0.68 0 0 Z " fill="#6E2919" transform="translate(646,763)"/>
<path d="M0 0 C0.66 0 1.32 0 2 0 C3.10844919 3.32534757 2.84454356 5.62182575 2 9 C1.34 8.67 0.68 8.34 0 8 C0 5.36 0 2.72 0 0 Z " fill="#5C1A0F" transform="translate(534,449)"/>
<path d="M0 0 C-0.99 2.31 -1.98 4.62 -3 7 C-3.33 6.01 -3.66 5.02 -4 4 C-3.67 3.34 -3.34 2.68 -3 2 C-4.65 2 -6.3 2 -8 2 C-4.77208445 -0.1519437 -3.71599191 -0.20086443 0 0 Z " fill="#E3BF8F" transform="translate(779,257)"/>
<path d="M0 0 C0.66 0.33 1.32 0.66 2 1 C1.45773019 4.79588866 -0.20127563 6.47211993 -3 9 C-3.66 8.67 -4.32 8.34 -5 8 C-3.35 6.02 -1.7 4.04 0 2 C-0.66 1.67 -1.32 1.34 -2 1 C-1.34 0.67 -0.68 0.34 0 0 Z " fill="#DFC08C" transform="translate(563,198)"/>
<path d="M0 0 C-0.33 3.3 -0.66 6.6 -1 10 C-2.88343932 6.23312136 -3.22057835 4.97041037 -3 1 C-1 0 -1 0 0 0 Z " fill="#580F09" transform="translate(468,761)"/>
<path d="M0 0 C0.33 0 0.66 0 1 0 C1 2.64 1 5.28 1 8 C1.66 8.33 2.32 8.66 3 9 C1.35 9.66 -0.3 10.32 -2 11 C-1.34 7.37 -0.68 3.74 0 0 Z " fill="#E1C18F" transform="translate(611,525)"/>
<path d="M0 0 C0.33 0 0.66 0 1 0 C1.125 6.75 1.125 6.75 0 9 C-0.66 9 -1.32 9 -2 9 C-1.125 1.125 -1.125 1.125 0 0 Z " fill="#986643" transform="translate(625,516)"/>
<path d="M0 0 C0.66 0 1.32 0 2 0 C2 3.63 2 7.26 2 11 C1.67 11 1.34 11 1 11 C1 9.02 1 7.04 1 5 C0.34 5 -0.32 5 -1 5 C-0.67 3.35 -0.34 1.7 0 0 Z " fill="#55180B" transform="translate(496,508)"/>
<path d="M0 0 C1.98 0.495 1.98 0.495 4 1 C3.01 1.495 3.01 1.495 2 2 C2.66 2.66 3.32 3.32 4 4 C3.34 4 2.68 4 2 4 C1.67 4.99 1.34 5.98 1 7 C0.34 6.67 -0.32 6.34 -1 6 C-0.67 4.02 -0.34 2.04 0 0 Z " fill="#C6A272" transform="translate(429,484)"/>
<path d="M0 0 C0 2.97 0 5.94 0 9 C-3.08669204 5.91330796 -3.44855089 5.08072342 -4 1 C-2 0 -2 0 0 0 Z " fill="#5C1A09" transform="translate(588,467)"/>
<path d="M0 0 C-0.99 3.3 -1.98 6.6 -3 10 C-4.04449911 6.86650268 -3.93423645 6.01031744 -3 3 C-3.66 2.67 -4.32 2.34 -5 2 C-2 0 -2 0 0 0 Z " fill="#E3C491" transform="translate(802,178)"/>
<path d="M0 0 C2 3 2 3 3 5 C5.01669827 6.13350534 5.01669827 6.13350534 7 7 C6.01 7.495 6.01 7.495 5 8 C2.375 7.0625 2.375 7.0625 0 6 C0 4.02 0 2.04 0 0 Z " fill="#591608" transform="translate(383,839)"/>
<path d="M0 0 C2 3 2 3 1.75 4.9375 C0.97936717 7.05674028 0.0643413 9.01322958 -1 11 C-1.14285714 3.57142857 -1.14285714 3.57142857 0 0 Z " fill="#540F07" transform="translate(627,830)"/>
<path d="M0 0 C4.455 0.99 4.455 0.99 9 2 C8.01 2.99 7.02 3.98 6 5 C3.98079663 3.69593116 1.98075027 2.36176581 0 1 C0 0.67 0 0.34 0 0 Z " fill="#602815" transform="translate(640,335)"/>
</svg>
