<?xml version="1.0" encoding="UTF-8"?>
<svg version="1.1" xmlns="http://www.w3.org/2000/svg" width="1024" height="1024">
<path d="M0 0 C337.92 0 675.84 0 1024 0 C1024 337.92 1024 675.84 1024 1024 C686.08 1024 348.16 1024 0 1024 C0 686.08 0 348.16 0 0 Z " fill="#FAF9F7" transform="translate(0,0)"/>
<path d="M0 0 C1 2 1 2 0.04711914 5.2109375 C-0.44944065 6.60163291 -0.95407749 7.98945924 -1.46484375 9.375 C-1.73338669 10.12378418 -2.00192963 10.87256836 -2.27861023 11.64404297 C-2.85757194 13.25791287 -3.43964809 14.87066814 -4.0244751 16.48242188 C-8.9084462 29.94950122 -13.55961428 43.430039 -17.55053711 57.19140625 C-20.99122994 68.8802287 -20.99122994 68.8802287 -25.9921875 71.66796875 C-27.27877113 72.19369905 -28.57401693 72.69848789 -29.875 73.1875 C-30.61999756 73.48027832 -31.36499512 73.77305664 -32.13256836 74.07470703 C-40.71452298 77.3849995 -49.43917494 80.31247932 -58.14526367 83.27587891 C-68.3626909 86.75696597 -78.5340549 90.36388065 -88.70425415 93.98028564 C-94.8943593 96.17975369 -101.08777754 98.36987365 -107.28102112 100.56048584 C-112.78658732 102.50799304 -118.29117334 104.45818422 -123.79394531 106.41357422 C-129.40566901 108.40661934 -135.02153542 110.38758827 -140.64025879 112.36080933 C-142.77732968 113.11342942 -144.91302402 113.86997106 -147.04724121 114.63064575 C-150.02529977 115.69137534 -153.00801638 116.73786238 -155.9921875 117.78125 C-156.85997833 118.09396347 -157.72776917 118.40667694 -158.62185669 118.72886658 C-164.40819484 120.7299385 -169.89023519 121.6485547 -176 122 C-176 122.66 -176 123.32 -176 124 C-162.90100527 122.72067113 -149.89611256 121.07213939 -136.87890625 119.13671875 C-135.00019002 118.85987256 -133.12144063 118.58325132 -131.24266052 118.30683899 C-127.33041482 117.73032628 -123.41860077 117.15099081 -119.50708008 116.56958008 C-114.58343941 115.83797303 -109.65874854 115.11373161 -104.73372841 114.39147758 C-84.25360618 111.38473363 -63.83712131 108.22848431 -43.48458862 104.44351196 C-40.33124235 103.88062329 -37.17537266 103.41926219 -34 103 C-34.45268412 110.54733689 -36.48249811 116.60964447 -39.375 123.5625 C-39.81183105 124.6342749 -40.24866211 125.7060498 -40.69873047 126.81030273 C-45.46002268 138.3595965 -50.68358313 149.69777502 -56 161 C-68.17366406 161.8076163 -80.32665763 162.24698074 -92.5234375 162.5 C-94.36260697 162.54068803 -96.20176904 162.58171139 -98.04092407 162.62304688 C-102.8471751 162.73044762 -107.65349105 162.83453125 -112.45983887 162.9375 C-143.72188107 163.58015175 -143.72188107 163.58015175 -174.9765625 164.5 C-176.06335297 164.53544922 -177.15014343 164.57089844 -178.26986694 164.60742188 C-179.73850693 164.6625293 -179.73850693 164.6625293 -181.23681641 164.71875 C-182.06935944 164.74904297 -182.90190247 164.77933594 -183.75967407 164.81054688 C-185.93844475 164.99479458 -187.89968918 165.40478454 -190 166 C-179.89609965 167.68909638 -169.79189587 169.37637073 -159.6875 171.0625 C-158.93879009 171.1874522 -158.19008018 171.3124044 -157.4186821 171.44114304 C-136.25705804 174.97251252 -115.09204314 178.48011429 -93.91088867 181.89282227 C-85.92529946 183.1815162 -77.94927641 184.49999181 -70 186 C-70.35457451 192.34935753 -72.53480736 195.86495211 -76.3125 200.875 C-77.40661251 202.37343329 -78.50035161 203.87213929 -79.59375 205.37109375 C-80.15707031 206.13405762 -80.72039063 206.89702148 -81.30078125 207.68310547 C-84.02461684 211.39707096 -86.66574924 215.16842229 -89.3125 218.9375 C-90.3031142 220.34133726 -91.29399071 221.74498945 -92.28515625 223.1484375 C-95.53570599 227.75707033 -98.77128096 232.37604677 -102 237 C-112.39289841 234.48998804 -122.6535204 231.70910799 -132.875 228.5625 C-134.27807241 228.13399846 -135.68123288 227.70578516 -137.08447266 227.27783203 C-149.75968525 223.40562771 -162.41479507 219.46764476 -175.07214355 215.53753662 C-190.01219116 210.89964278 -204.98122482 206.37693489 -220 202 C-200.0689138 214.04559941 -179.94185297 225.74451638 -159.76074219 237.36523438 C-151.00614454 242.40936153 -142.27699289 247.49627968 -133.5625 252.609375 C-132.62664063 253.15722656 -131.69078125 253.70507812 -130.7265625 254.26953125 C-129.90752441 254.75010986 -129.08848633 255.23068848 -128.24462891 255.72583008 C-126.19263268 256.89065152 -124.12129125 257.96791373 -122 259 C-123.43258772 262.27196452 -125.18825316 264.43203956 -127.71533203 266.94238281 C-128.47596954 267.70286926 -129.23660706 268.46335571 -130.02029419 269.24688721 C-130.84117523 270.05744568 -131.66205627 270.86800415 -132.5078125 271.703125 C-133.34843231 272.54091492 -134.18905212 273.37870483 -135.05514526 274.24188232 C-137.74044001 276.91598431 -140.43260655 279.58304724 -143.125 282.25 C-144.94707155 284.06204062 -146.76869177 285.87453518 -148.58984375 287.6875 C-153.05467252 292.13028036 -157.52516283 296.56730165 -162 301 C-165.0927414 299.79752595 -167.70283396 298.68547813 -170.3203125 296.63671875 C-170.92810547 296.16878906 -171.53589844 295.70085937 -172.16210938 295.21875 C-172.80986328 294.7134375 -173.45761719 294.208125 -174.125 293.6875 C-180.12463564 289.0913206 -186.2342226 284.7255939 -192.5 280.5 C-199.24239443 275.94247069 -205.81772652 271.22430864 -212.29956055 266.30419922 C-216.42384712 263.17471803 -220.5869316 260.11622217 -224.8125 257.125 C-231.50488737 252.38693109 -238.10286371 247.5245655 -244.69262695 242.64501953 C-245.46823975 242.07122559 -246.24385254 241.49743164 -247.04296875 240.90625 C-247.73414795 240.39384766 -248.42532715 239.88144531 -249.13745117 239.35351562 C-250.73023555 238.19603803 -252.36174464 237.09217024 -254 236 C-249.07282171 242.22783095 -244.05565703 248.37635055 -239 254.5 C-234.68087801 259.73171614 -230.3951866 264.98421902 -226.17578125 270.296875 C-223.21404938 273.97644134 -220.19805783 277.61035241 -217.1875 281.25 C-212.32361545 287.13434787 -207.54270428 293.07243673 -202.84814453 299.0925293 C-199.28981046 303.65093972 -195.65115547 308.13532729 -191.97265625 312.59765625 C-190.99619141 313.78681641 -190.99619141 313.78681641 -190 315 C-189.25621094 315.86496094 -188.51242187 316.72992188 -187.74609375 317.62109375 C-186 320 -186 320 -186 323 C-187.34741211 324.20410156 -187.34741211 324.20410156 -189.27734375 325.390625 C-190.00719482 325.84598633 -190.7370459 326.30134766 -191.48901367 326.77050781 C-192.29701416 327.25874023 -193.10501465 327.74697266 -193.9375 328.25 C-194.76548096 328.76143555 -195.59346191 329.27287109 -196.4465332 329.79980469 C-199.28896367 331.54795025 -202.14293585 333.27587801 -205 335 C-206.10666016 335.66902344 -207.21332031 336.33804687 -208.35351562 337.02734375 C-215.5541102 341.37652496 -222.77146733 345.69740737 -230 350 C-237.12867046 342.93257241 -243.49976233 335.43682148 -249.64428711 327.51489258 C-253.52537086 322.53844373 -257.59280619 317.74695593 -261.72290039 312.9765625 C-265.28152725 308.8597766 -268.72069852 304.66624911 -272.09765625 300.3984375 C-275.21569851 296.46727128 -278.4051527 292.59524539 -281.59130859 288.71923828 C-283.270483 286.66988885 -284.94157611 284.61404009 -286.61328125 282.55859375 C-287.88790524 280.99730146 -289.16264487 279.43610356 -290.4375 277.875 C-291.05318848 277.11566162 -291.66887695 276.35632324 -292.30322266 275.57397461 C-292.88249512 274.86635986 -293.46176758 274.15874512 -294.05859375 273.4296875 C-294.57736084 272.79272949 -295.09612793 272.15577148 -295.63061523 271.49951172 C-296.94859275 269.87616654 -296.94859275 269.87616654 -299 269 C-299.22429687 270.27230469 -299.44859375 271.54460937 -299.6796875 272.85546875 C-300.94060208 278.50308529 -303.38121869 283.25166526 -306.125 288.3125 C-306.61202393 289.22733154 -307.09904785 290.14216309 -307.60083008 291.0847168 C-311.34014769 298.01339827 -315.38522838 304.61336765 -320 311 C-316.97880787 314.22260494 -313.81259575 316.97359155 -310.32421875 319.6875 C-304.75678383 324.08615527 -299.78838363 328.95144782 -294.8125 334 C-293.96236328 334.85078125 -293.11222656 335.7015625 -292.23632812 336.578125 C-287.85248648 340.9924335 -283.61287554 345.4785394 -279.55688477 350.19580078 C-276.44271565 353.80466228 -273.17408351 357.27487525 -269.94140625 360.77734375 C-268 363 -268 363 -268 364 C-271.72885261 364.33690943 -275.4581276 364.66889795 -279.1875 365 C-280.77014648 365.14308594 -280.77014648 365.14308594 -282.38476562 365.2890625 C-283.40634766 365.37929688 -284.42792969 365.46953125 -285.48046875 365.5625 C-286.88655396 365.68818359 -286.88655396 365.68818359 -288.32104492 365.81640625 C-290.89087091 365.99252118 -293.42514834 366.0326706 -296 366 C-295.32417046 367.46377826 -294.63335729 368.92063588 -293.9375 370.375 C-293.55464844 371.18710937 -293.17179687 371.99921875 -292.77734375 372.8359375 C-290.72090406 376.49685212 -288.33746739 379.82470831 -285.90600586 383.24414062 C-283.97781529 386.03207647 -282.1738539 388.86896387 -280.39453125 391.75390625 C-279.80349609 392.70974609 -279.21246094 393.66558594 -278.60351562 394.65039062 C-277.39059311 396.62254709 -276.18506963 398.59926997 -274.98632812 400.58007812 C-274.39916016 401.52431641 -273.81199219 402.46855469 -273.20703125 403.44140625 C-272.6860083 404.29420166 -272.16498535 405.14699707 -271.62817383 406.02563477 C-270.15360089 408.11504129 -270.15360089 408.11504129 -267.95727539 408.90014648 C-265.74354111 409.21923936 -265.74354111 409.21923936 -263.4765625 407.15625 C-262.53554688 406.2796875 -261.59453125 405.403125 -260.625 404.5 C-253.30070817 398.034434 -244.59515367 391.78239454 -234.5 391.3125 C-228.63257269 391.80225252 -225.06826251 394.65440553 -221.25 398.9375 C-217.49194112 404.0526357 -216.73853365 407.79079064 -216.8125 414.125 C-216.81894531 415.34445312 -216.82539062 416.56390625 -216.83203125 417.8203125 C-217 421 -217 421 -218 424 C-218.66 424 -219.32 424 -220 424 C-220.391875 422.7625 -220.78375 421.525 -221.1875 420.25 C-222.66949331 416.28162929 -224.34349184 414.2853176 -228 412 C-231.89570887 410.70143038 -235.62530392 410.73675864 -239.6875 410.6875 C-240.85442383 410.64399414 -240.85442383 410.64399414 -242.04492188 410.59960938 C-248.06130547 410.53437753 -251.79922152 411.98652035 -257 415 C-256.42556152 415.30703857 -255.85112305 415.61407715 -255.25927734 415.93041992 C-252.62732529 417.34238292 -250.00118063 418.7648333 -247.375 420.1875 C-246.47136719 420.67025391 -245.56773437 421.15300781 -244.63671875 421.65039062 C-231.75735861 428.65413027 -231.75735861 428.65413027 -230.23828125 433.359375 C-230.44112475 439.89307099 -231.78088911 444.89419374 -236 450 C-240.34201647 453.73743189 -244.30284744 456.11734256 -250 457 C-249.319375 456.319375 -248.63875 455.63875 -247.9375 454.9375 C-245.71792531 452.12487778 -245.71792531 452.12487778 -245.875 448.6875 C-247.76818076 442.48207419 -251.09820897 437.73428872 -256.8125 434.5 C-265.1829495 430.97809389 -271.90972124 433.35215016 -280.08203125 436.515625 C-283.07835303 438.0398583 -284.93403195 439.35516167 -287 442 C-287.07729952 446.79257023 -286.62165303 449.66031418 -283.5625 453.375 C-282.04977358 454.92462219 -280.53128543 456.46871457 -279 458 C-287.28974986 456.81370821 -291.81612339 450.45814398 -296.625 444.0625 C-298.08520264 442.04301697 -299.54364915 440.02226251 -301 438 C-302.65954326 435.86678833 -304.32387986 433.73820018 -306.00390625 431.62109375 C-307 430 -307 430 -307 427 C-304.89983377 425.82558465 -302.79541245 424.66035988 -300.6875 423.5 C-300.09259766 423.16613281 -299.49769531 422.83226562 -298.88476562 422.48828125 C-296.04171156 420.93174886 -294.29339012 420 -291 420 C-291.02619879 414.99603171 -291.97935903 412.59552632 -295.421875 408.921875 C-296.84931518 407.51558208 -298.29263634 406.12525866 -299.75 404.75 C-300.46671875 404.04359375 -301.1834375 403.3371875 -301.921875 402.609375 C-308.52370713 396.20028704 -308.52370713 396.20028704 -317 393 C-317.06058594 393.66386719 -317.12117188 394.32773437 -317.18359375 395.01171875 C-318.01581722 403.78207381 -318.01581722 403.78207381 -319 408 C-319.66 408 -320.32 408 -321 408 C-322.70703125 406.19140625 -322.70703125 406.19140625 -324.8125 403.5625 C-325.61300781 402.56476563 -326.41351562 401.56703125 -327.23828125 400.5390625 C-330.94875155 395.81713945 -334.55025399 391.01141462 -338.17626953 386.22460938 C-343.08371231 379.79326886 -348.27449713 373.72550287 -354 368 C-354.65601744 369.51646821 -355.2992664 371.03846175 -355.9375 372.5625 C-356.29714844 373.40941406 -356.65679688 374.25632812 -357.02734375 375.12890625 C-359.28582747 381.22113645 -359.28582747 381.22113645 -357.86450195 387.37133789 C-356.06897926 390.24261825 -354.15719751 392.99522894 -352.1875 395.75 C-350.70898441 397.89017541 -349.23114582 400.03081864 -347.75390625 402.171875 C-346.96795931 403.29776949 -346.18165906 404.42341742 -345.39501953 405.54882812 C-341.78137606 410.73555173 -338.28250799 415.99916645 -334.78140259 421.26220703 C-333.62655317 422.99766597 -332.46907749 424.73135106 -331.3112793 426.46484375 C-326.88074291 433.10816956 -322.53116172 439.79098548 -318.36645508 446.60449219 C-316.37529231 449.85195766 -314.31621681 453.02589243 -312.14453125 456.15625 C-311.43490234 457.18540527 -311.43490234 457.18540527 -310.7109375 458.23535156 C-309.80400836 459.54191219 -308.8866022 460.84128607 -307.95703125 462.13183594 C-304.96362328 466.45164985 -304.96362328 466.45164985 -305.13818359 469.08300781 C-306 471 -306 471 -307.7590332 472.03320312 C-308.51531006 472.28005859 -309.27158691 472.52691406 -310.05078125 472.78125 C-311.30858398 473.20567383 -311.30858398 473.20567383 -312.59179688 473.63867188 C-313.93854492 474.0650293 -313.93854492 474.0650293 -315.3125 474.5 C-316.21935547 474.79970703 -317.12621094 475.09941406 -318.06054688 475.40820312 C-319.87249123 476.00615768 -321.68644409 476.59806344 -323.50244141 477.18359375 C-325.63461127 477.8805611 -327.74683983 478.61051473 -329.85546875 479.375 C-330.89316406 479.74625 -331.93085937 480.1175 -333 480.5 C-334.3303125 480.97953125 -334.3303125 480.97953125 -335.6875 481.46875 C-338.29947044 482.06879726 -339.50810123 481.92661315 -342 481 C-343.44941341 478.50596602 -344.61529471 476.16121565 -345.75 473.52734375 C-346.08999023 472.77087051 -346.42998047 472.01439728 -346.78027344 471.23500061 C-347.86744739 468.8084357 -348.93412174 466.37348396 -350 463.9375 C-351.07027405 461.52865893 -352.14464596 459.12168019 -353.21972656 456.71498108 C-353.88692056 455.21734203 -354.55056623 453.71811508 -355.20996094 452.21702576 C-357.33264126 447.4003804 -359.61548742 442.69286056 -362 438 C-362.84005544 441.10890677 -363.03302488 443.49240485 -362.73046875 446.7109375 C-362.60551025 448.073396 -362.60551025 448.073396 -362.47802734 449.46337891 C-362.38215332 450.42421387 -362.2862793 451.38504883 -362.1875 452.375 C-362.0942041 453.36290527 -362.0009082 454.35081055 -361.90478516 455.36865234 C-361.37372281 460.81715627 -360.71779764 466.21654323 -359.875 471.625 C-358.92298758 477.78333033 -358.79492682 483.77944695 -359 490 C-365.00500885 492.59791163 -371.0466788 495.11467199 -377.1875 497.375 C-378.08855469 497.71273438 -378.98960937 498.05046875 -379.91796875 498.3984375 C-388.29289958 500.03308813 -395.82194312 496.90360353 -403.5625 493.9375 C-404.57119141 493.56044922 -405.57988281 493.18339844 -406.61914062 492.79492188 C-409.08303993 491.87241929 -411.54299424 490.9406749 -414 490 C-413.53777988 479.30518265 -412.45320965 468.75277721 -411.10424805 458.13500977 C-410.21712868 451.10041721 -409.53490183 444.07014364 -409 437 C-409.66 437 -410.32 437 -411 437 C-411.16748245 437.54559067 -411.3349649 438.09118134 -411.50752258 438.65330505 C-413.32043562 444.34524027 -415.5794831 449.62590014 -418.23046875 454.97265625 C-418.62575272 455.78117538 -419.02103668 456.58969452 -419.42829895 457.42271423 C-420.6760962 459.97193412 -421.9316408 462.51724377 -423.1875 465.0625 C-424.04153367 466.80378247 -424.8950541 468.54531677 -425.74804688 470.28710938 C-427.82611507 474.52767108 -429.91113414 478.76474741 -432 483 C-458.17654243 474.48087538 -458.17654243 474.48087538 -468 470 C-465.32498548 464.40735335 -462.36733431 459.30196008 -458.875 454.1875 C-457.80447371 452.5991024 -456.73417608 451.01055067 -455.6640625 449.421875 C-454.78862793 448.12733398 -454.78862793 448.12733398 -453.89550781 446.80664062 C-450.3304887 441.5279879 -446.78825939 436.23410831 -443.25 430.9375 C-442.87114655 430.37081604 -442.49229309 429.80413208 -442.10195923 429.22027588 C-435.61951564 419.51679673 -429.28588899 409.72508459 -423.03808594 399.86889648 C-422.41836914 398.89251221 -421.79865234 397.91612793 -421.16015625 396.91015625 C-420.62011963 396.05558838 -420.08008301 395.20102051 -419.52368164 394.32055664 C-418 392 -418 392 -416.29296875 389.84033203 C-414.74965138 388.05217878 -414.74965138 388.05217878 -415.15234375 385.64453125 C-416.13524652 382.5780558 -417.29391062 379.64754188 -418.5625 376.6875 C-419.01753906 375.61886719 -419.47257812 374.55023438 -419.94140625 373.44921875 C-420.29074219 372.64097656 -420.64007813 371.83273437 -421 371 C-426.49502684 375.39741969 -430.66175861 380.07063414 -434.875 385.6875 C-436.09672003 387.28587229 -437.31937601 388.88352961 -438.54296875 390.48046875 C-439.13126465 391.25181152 -439.71956055 392.0231543 -440.32568359 392.81787109 C-442.57270118 395.74639883 -444.86535651 398.63057556 -447.1875 401.5 C-447.86167969 402.3353125 -448.53585937 403.170625 -449.23046875 404.03125 C-451 406 -451 406 -454 408 C-454.33951619 406.43883181 -454.67132544 404.87598662 -455 403.3125 C-455.185625 402.44238281 -455.37125 401.57226562 -455.5625 400.67578125 C-455.98972047 398.06287036 -456.07616201 395.64186962 -456 393 C-462.79034567 395.05447611 -466.81047327 398.04367707 -471.8125 403 C-472.46669922 403.6290625 -473.12089844 404.258125 -473.79492188 404.90625 C-475.54287632 406.59171373 -477.27629329 408.28978662 -479 410 C-479.53842529 410.48597656 -480.07685059 410.97195313 -480.6315918 411.47265625 C-482.82837853 413.92459163 -483.23036038 416.86223846 -484 420 C-483.30519531 420.10183594 -482.61039062 420.20367187 -481.89453125 420.30859375 C-478.50947448 421.11717006 -475.77712981 422.46675713 -472.6875 424.0625 C-471.61886719 424.61035156 -470.55023438 425.15820312 -469.44921875 425.72265625 C-468.23685547 426.35494141 -468.23685547 426.35494141 -467 427 C-467.61189701 430.40165178 -468.85191098 432.420027 -470.984375 435.1171875 C-471.59023438 435.88933594 -472.19609375 436.66148437 -472.8203125 437.45703125 C-473.45710938 438.25496094 -474.09390625 439.05289062 -474.75 439.875 C-475.37132812 440.66519531 -475.99265625 441.45539063 -476.6328125 442.26953125 C-487.45476083 455.99103114 -487.45476083 455.99103114 -491 458 C-491.99 457.67 -492.98 457.34 -494 457 C-493.236875 456.319375 -492.47375 455.63875 -491.6875 454.9375 C-488.19487117 451.11997546 -485.94219712 447.54332656 -486.0625 442.25 C-487.25525135 439.38739676 -488.38505102 438.66248412 -491 437 C-500.26066801 433.44796296 -507.76840687 431.92280229 -517.1875 435.0625 C-521.54637938 438.06528357 -524.63629925 442.27259849 -527 447 C-527.0689472 448.37342831 -527.08467708 449.75002102 -527.0625 451.125 C-527.0315625 453.043125 -527.0315625 453.043125 -527 455 C-525.68 455.33 -524.36 455.66 -523 456 C-523.33 456.66 -523.66 457.32 -524 458 C-532.35962462 454.50140459 -538.37872632 450.35651579 -542.4375 442.0625 C-542.93562031 439.35051164 -543.05751721 437.04905348 -543.03515625 434.30859375 C-543.03008057 433.50091553 -543.02500488 432.6932373 -543.01977539 431.86108398 C-543.01324951 431.24692627 -543.00672363 430.63276855 -543 430 C-542.37955811 429.64695801 -541.75911621 429.29391602 -541.11987305 428.93017578 C-538.30843676 427.32958086 -535.49795913 425.72731003 -532.6875 424.125 C-531.71103516 423.56941406 -530.73457031 423.01382812 -529.72851562 422.44140625 C-528.32182617 421.63896484 -528.32182617 421.63896484 -526.88671875 420.8203125 C-526.02264404 420.32805176 -525.15856934 419.83579102 -524.26831055 419.32861328 C-522.47589565 418.27874547 -520.72837768 417.15225179 -519 416 C-518.01 416 -517.02 416 -516 416 C-516 415.34 -516 414.68 -516 414 C-516.78375 413.855625 -517.5675 413.71125 -518.375 413.5625 C-521 413 -521 413 -523 412 C-526.42436555 411.58267937 -529.86894639 411.4391302 -533.3125 411.25 C-534.26318359 411.18167969 -535.21386719 411.11335938 -536.19335938 411.04296875 C-543.10187831 410.63500193 -543.10187831 410.63500193 -549 414 C-551.95797979 417.80311687 -552.53498083 421.25680447 -553 426 C-555 425 -555 425 -556 422 C-557.13846576 405.22162756 -557.13846576 405.22162756 -552 398 C-548.13651516 394.32968941 -544.29550247 391.72500927 -538.875 391.625 C-526.87370069 391.99698154 -518.08578419 399.91688799 -509.2734375 407.27734375 C-507.20107269 409.19329922 -507.20107269 409.19329922 -504.9375 409.0625 C-499.58504794 406.12728436 -496.45995153 399.12230801 -493.3125 394.0625 C-492.24923263 392.36424844 -491.18542544 390.66633474 -490.12109375 388.96875 C-489.59628418 388.13085938 -489.07147461 387.29296875 -488.53076172 386.4296875 C-485.64678568 381.85212298 -482.69315857 377.31970703 -479.7421875 372.78515625 C-478.34916283 370.5581908 -477.11065869 368.37589359 -476 366 C-477.01578125 365.93941406 -478.0315625 365.87882812 -479.078125 365.81640625 C-487.39548046 365.3127847 -495.6995006 364.73887021 -504 364 C-502.58261511 360.74792908 -500.87473588 358.68638933 -498.3125 356.25 C-494.95184563 353.04424553 -491.91584978 349.64077062 -488.87573242 346.13623047 C-485.82738892 342.66453899 -482.66552924 339.30209861 -479.5 335.9375 C-478.87480469 335.26912109 -478.24960937 334.60074219 -477.60546875 333.91210938 C-475.74658264 331.93199156 -473.87732663 329.96263711 -472 328 C-471.39913574 327.3714209 -470.79827148 326.7428418 -470.17919922 326.09521484 C-465.89447175 321.70239992 -461.3314662 318.25304237 -456.2578125 314.796875 C-453.73969459 313.12804963 -453.73969459 313.12804963 -453 310 C-453.97724895 308.06541151 -453.97724895 308.06541151 -455.53515625 306.12109375 C-456.09468994 305.36965088 -456.65422363 304.61820801 -457.23071289 303.84399414 C-458.13744751 302.65277954 -458.13744751 302.65277954 -459.0625 301.4375 C-460.27342746 299.80139598 -461.48179125 298.16339119 -462.6875 296.5234375 C-463.26628906 295.73807617 -463.84507812 294.95271484 -464.44140625 294.14355469 C-469.74588248 286.84823807 -473.22920595 279.57316275 -476 271 C-479.57401663 274.49075101 -482.91041495 278.11106127 -486.125 281.9375 C-486.59873047 282.49888672 -487.07246094 283.06027344 -487.56054688 283.63867188 C-491.43947119 288.26571105 -495.16882856 293.00047101 -498.87353516 297.76733398 C-501.99021626 301.76130719 -505.20495155 305.6522677 -508.5 309.5 C-512.70502328 314.41429535 -516.7446911 319.43272535 -520.71679688 324.53662109 C-524.9585799 329.97802392 -529.30570859 335.33044845 -533.67333984 340.67114258 C-536.17805924 343.73785306 -538.66249774 346.80216704 -541 350 C-544.69019632 349.43112345 -547.29172491 348.4586784 -550.44921875 346.48046875 C-551.2894458 345.95831787 -552.12967285 345.43616699 -552.99536133 344.89819336 C-554.32796997 344.05140015 -554.32796997 344.05140015 -555.6875 343.1875 C-556.60490967 342.60943604 -557.52231934 342.03137207 -558.4675293 341.43579102 C-560.37021745 340.23189583 -562.27001524 339.02342125 -564.16699219 337.81054688 C-566.02048827 336.62599612 -567.87778001 335.44735847 -569.73925781 334.27539062 C-572.27384589 332.67804771 -574.79494618 331.06152251 -577.3125 329.4375 C-578.08875732 328.94983154 -578.86501465 328.46216309 -579.66479492 327.9597168 C-580.36967041 327.49734619 -581.0745459 327.03497559 -581.80078125 326.55859375 C-582.42122314 326.15954834 -583.04166504 325.76050293 -583.6809082 325.34936523 C-585 324 -585 324 -585 320 C-583.98120117 318.29931641 -583.98120117 318.29931641 -582.54296875 316.6015625 C-581.74838257 315.64648804 -581.74838257 315.64648804 -580.93774414 314.67211914 C-580.36016357 313.99656982 -579.78258301 313.32102051 -579.1875 312.625 C-577.98072086 311.1792612 -576.77500834 309.73263147 -575.5703125 308.28515625 C-574.96477539 307.56215332 -574.35923828 306.83915039 -573.73535156 306.09423828 C-571.28086283 303.13213862 -568.91898214 300.10269387 -566.5625 297.0625 C-561.88334893 291.05863808 -557.05448911 285.18649519 -552.19824219 279.32543945 C-548.03759643 274.29238182 -543.98409395 269.18741832 -539.97705078 264.03173828 C-536.44237315 259.50688189 -532.74605254 255.13854642 -529.0078125 250.78149414 C-524.40793763 245.38080772 -520.18096845 239.72947528 -516 234 C-518.86253357 235.34716818 -521.34286804 236.87773056 -523.87890625 238.765625 C-524.99845703 239.59513672 -524.99845703 239.59513672 -526.140625 240.44140625 C-526.93984375 241.03824219 -527.7390625 241.63507813 -528.5625 242.25 C-530.28249179 243.52612294 -532.00254558 244.80216231 -533.72265625 246.078125 C-534.60066895 246.73103516 -535.47868164 247.38394531 -536.38330078 248.05664062 C-540.41341105 251.04970628 -544.45687142 254.02455748 -548.5 257 C-553.26397576 260.50867011 -558.02671838 264.01897831 -562.78515625 267.53515625 C-572.06559552 274.38962788 -581.36762068 281.21126835 -590.75 287.92578125 C-593.55798288 289.94050896 -596.32267002 291.99909067 -599.0625 294.10546875 C-599.69760498 294.58467773 -600.33270996 295.06388672 -600.98706055 295.55761719 C-602.16905979 296.45111187 -603.34068006 297.35857625 -604.49926758 298.28222656 C-606.95726797 300.11880745 -608.3552731 301.08596359 -611.4609375 300.671875 C-615.04892835 298.30932103 -617.85878305 295.41470982 -620.8125 292.3125 C-625.03162029 287.93345765 -629.32897699 283.79322315 -633.9362793 279.82348633 C-637.59787888 276.58812761 -641.0443964 273.13990396 -644.5 269.6875 C-645.22703125 268.97271484 -645.9540625 268.25792969 -646.703125 267.52148438 C-647.73179687 266.49571289 -647.73179687 266.49571289 -648.78125 265.44921875 C-649.7103418 264.52629028 -649.7103418 264.52629028 -650.65820312 263.5847168 C-652 262 -652 262 -652 260 C-649.7583107 258.52661888 -647.5210757 257.19089217 -645.1875 255.875 C-643.61275806 254.96835603 -642.03857711 254.06073727 -640.46484375 253.15234375 C-639.5919873 252.6507373 -638.71913086 252.14913086 -637.81982422 251.63232422 C-632.60322981 248.61257095 -627.43053324 245.51855794 -622.25 242.4375 C-613.12033991 237.01568802 -603.96783672 231.63422027 -594.80044556 226.27648926 C-586.01687124 221.14202999 -577.24432003 215.99300577 -568.5625 210.6875 C-567.86568115 210.26170654 -567.1688623 209.83591309 -566.45092773 209.3972168 C-563.46944531 207.5627172 -560.5359018 205.69224672 -557.65234375 203.70703125 C-555 202 -555 202 -553 202 C-553 201.34 -553 200.68 -553 200 C-553.87172852 200.30067383 -554.74345703 200.60134766 -555.64160156 200.91113281 C-576.09384491 207.95940526 -596.57925455 214.89804278 -617.11158752 221.70939636 C-622.70599661 223.56655258 -628.29506105 225.43932642 -633.8828125 227.31640625 C-636.32293089 228.13475234 -638.763145 228.95281228 -641.20339966 229.77075195 C-642.75117723 230.29020839 -644.29861387 230.810682 -645.84567261 231.33227539 C-654.16794912 234.13746768 -662.48291178 236.83348203 -671 239 C-678.75475225 228.05816208 -686.37485033 217.03484606 -693.8125 205.875 C-694.51181641 204.82634766 -695.21113281 203.77769531 -695.93164062 202.69726562 C-702.13812128 193.35357883 -702.13812128 193.35357883 -702 187 C-689.0468977 184.3573499 -676.07209794 181.89072471 -663.05853271 179.56509399 C-649.39485513 177.11994452 -635.74774856 174.65270346 -622.17651367 171.73168945 C-613.51611332 169.86878426 -604.81733853 168.22233447 -596.10693359 166.6105957 C-595.06230957 166.41425537 -594.01768555 166.21791504 -592.94140625 166.015625 C-592.01013916 165.84321289 -591.07887207 165.67080078 -590.11938477 165.49316406 C-588.02687567 165.20302586 -588.02687567 165.20302586 -587 164 C-587.77925842 163.98969254 -588.55851685 163.97938507 -589.36138916 163.96876526 C-655.63516062 163.08883617 -655.63516062 163.08883617 -682.3125 162.5 C-683.16823608 162.48212433 -684.02397217 162.46424866 -684.90563965 162.4458313 C-695.95683273 162.21183741 -706.96998432 161.72472155 -718 161 C-739.07599483 119.76266897 -739.07599483 119.76266897 -744 102 C-740.86642238 100.43321119 -738.02665648 101.88292309 -734.796875 102.765625 C-727.00192664 104.80172172 -719.19184434 106.38148869 -711.25 107.75 C-710.5604422 107.8705072 -709.8708844 107.9910144 -709.16043091 108.11517334 C-689.32237142 111.57756395 -669.39931525 114.53437668 -649.48866272 117.54376221 C-644.04337219 118.3704251 -638.60290014 119.22057324 -633.16674805 120.10546875 C-632.04603409 120.28761932 -630.92532013 120.4697699 -629.77064514 120.65744019 C-627.64360247 121.00475308 -625.51704608 121.35506345 -623.39109802 121.70901489 C-615.60017039 122.98190844 -607.89076528 123.74338975 -600 124 C-600 123.34 -600 122.68 -600 122 C-601.09957031 121.90460938 -602.19914063 121.80921875 -603.33203125 121.7109375 C-608.68713324 121.02710883 -613.59378394 119.36713074 -618.6875 117.625 C-619.81921631 117.2434375 -620.95093262 116.861875 -622.11694336 116.46875 C-635.97168946 111.76484161 -649.71436581 106.73393056 -663.47665405 101.76806641 C-683.82150555 94.43038371 -704.25559677 87.38532462 -724.76338196 80.516922 C-727.55551296 79.57311406 -730.33755443 78.603167 -733.12011719 77.6315918 C-736.07844469 76.6083161 -738.99184028 75.72619509 -742.04394531 75.03442383 C-749.63716144 73.01865449 -749.63716144 73.01865449 -752.07861328 69.40234375 C-754.69778767 64.33364753 -756.18966804 58.90148449 -757.75 53.4375 C-758.27862255 51.72590413 -758.81203499 50.01578066 -759.35009766 48.30712891 C-760.42691889 44.86451789 -761.4759245 41.41530743 -762.50292969 37.95751953 C-763.86236529 33.40709779 -765.33054374 28.90097701 -766.8515625 24.40234375 C-767.28574349 23.10824208 -767.71967123 21.8140554 -768.15332031 20.51977539 C-768.95108952 18.13970014 -769.74987258 15.75996441 -770.54980469 13.38061523 C-770.89172852 12.32430908 -771.23365234 11.26800293 -771.5859375 10.1796875 C-771.8854834 9.26944824 -772.1850293 8.35920898 -772.49365234 7.42138672 C-773.03701358 4.82299871 -772.71999234 3.50358625 -772 1 C-770.27330078 1.82878662 -770.27330078 1.82878662 -768.51171875 2.67431641 C-757.92197445 7.73636818 -747.26458115 12.60040588 -736.50308228 17.28530884 C-732.0659351 19.21697529 -727.63296611 21.15820229 -723.19921875 23.09765625 C-722.28170334 23.4986705 -721.36418793 23.89968475 -720.41886902 24.31285095 C-711.11693482 28.3804771 -701.83338079 32.48933771 -692.55047607 36.60015869 C-678.13191798 42.98451455 -663.69706182 49.32706696 -649.22021484 55.578125 C-641.77867435 58.79186774 -634.35241479 62.03783151 -626.9375 65.3125 C-599.49558416 77.4170163 -571.9119324 89.19879974 -544.3359375 100.99365234 C-543.31783997 101.42936554 -542.29974243 101.86507874 -541.25079346 102.31399536 C-539.34928962 103.12774408 -537.44757303 103.9409959 -535.54559326 104.75363159 C-530.0095295 107.12324689 -524.49595493 109.53877255 -519 112 C-519.144375 112.98097656 -519.28875 113.96195312 -519.4375 114.97265625 C-520.42450807 121.98058854 -521.21705434 128.98885859 -521.5 136.0625 C-521.5515625 137.22910156 -521.603125 138.39570313 -521.65625 139.59765625 C-520.09621538 147.68569288 -512.35389598 152.34456302 -506.0625 156.9375 C-505.20003662 157.57502197 -504.33757324 158.21254395 -503.44897461 158.86938477 C-481.09803535 176.83259178 -481.09803535 176.83259178 -456 190 C-455.690625 188.2675 -455.690625 188.2675 -455.375 186.5 C-450.66690763 165.58957595 -439.71977261 145.45911109 -431 126 C-431.83402344 126.04640625 -432.66804688 126.0928125 -433.52734375 126.140625 C-441.05700721 126.38212623 -446.4861211 125.84554296 -453 122 C-453.62132812 121.64164062 -454.24265625 121.28328125 -454.8828125 120.9140625 C-456.5625 119.875 -456.5625 119.875 -459 118 C-459 117.34 -459 116.68 -459 116 C-455.85741044 115.08387082 -452.98647347 114.85163837 -449.71875 114.7890625 C-448.71199219 114.76070313 -447.70523437 114.73234375 -446.66796875 114.703125 C-444.5561677 114.65104606 -442.44415968 114.60677341 -440.33203125 114.5703125 C-439.32527344 114.539375 -438.31851562 114.5084375 -437.28125 114.4765625 C-436.36408203 114.45674316 -435.44691406 114.43692383 -434.50195312 114.41650391 C-431.51990705 113.9200782 -430.12916255 113.13343063 -428 111 C-427.25723824 105.96572585 -427.355152 104.03566497 -430.0625 99.6875 C-435.54984795 94.66716039 -441.32611981 93.48841329 -448.5 92.8125 C-449.28391113 92.73427002 -450.06782227 92.65604004 -450.87548828 92.57543945 C-470.9311274 90.64573753 -470.9311274 90.64573753 -489.25 97.6875 C-490.1575 98.450625 -491.065 99.21375 -492 100 C-495.7964297 92.13379767 -495.09830363 81.20879995 -492.5 73 C-489.67011452 66.38364804 -484.92188676 61.01824004 -478.3125 58 C-470.31661223 55.53972684 -461.13831248 56.72340196 -453 58 C-453.04640625 57.34773438 -453.0928125 56.69546875 -453.140625 56.0234375 C-453.38645777 50.07077253 -453.02195055 46.71142778 -449 42 C-448.55552552 41.46064977 -448.11105104 40.92129953 -447.65310764 40.36560535 C-445.46902179 38.56136753 -444.17559645 38.61229789 -441.36277771 38.58781433 C-439.93472809 38.56467163 -439.93472809 38.56467163 -438.47782898 38.5410614 C-436.91377068 38.5385009 -436.91377068 38.5385009 -435.31811523 38.53588867 C-434.21873627 38.52248444 -433.1193573 38.5090802 -431.98666382 38.49526978 C-428.34395113 38.45480242 -424.70148185 38.43591527 -421.05859375 38.41796875 C-418.53417582 38.3960527 -416.00976657 38.37311585 -413.48536682 38.34919739 C-408.19184137 38.30228113 -402.89838124 38.26531529 -397.60473633 38.23657227 C-391.48051797 38.20319584 -385.35664358 38.15215586 -379.23263973 38.09141558 C-373.34499169 38.03333504 -367.45729849 37.98677457 -361.56950569 37.94561195 C-359.06194986 37.92718108 -356.5544128 37.90598979 -354.04690361 37.88204002 C-350.54874203 37.85046151 -347.0507576 37.83193532 -343.55249023 37.81713867 C-341.98539558 37.79939644 -341.98539558 37.79939644 -340.38664246 37.78129578 C-339.4374292 37.77996643 -338.48821594 37.77863708 -337.51023865 37.77726746 C-336.68267783 37.77194598 -335.85511702 37.76662451 -335.0024786 37.76114178 C-333 38 -333 38 -331 40 C-335.1167818 45.7434737 -338.88912686 50.35697947 -345 54 C-345.99 54 -346.98 54 -348 54 C-348 54.66 -348 55.32 -348 56 C-347.34 56 -346.68 56 -346 56 C-343.30331044 62.31938854 -341.21233947 68.47287302 -339.74609375 75.1796875 C-339.32256683 77.03017726 -338.89645607 78.88007687 -338.46826172 80.72949219 C-338.23677429 81.73008667 -338.00528687 82.73068115 -337.76678467 83.76159668 C-335.36921045 93.88740205 -332.7136076 103.95351121 -330.11645508 114.02978516 C-329.41231593 116.7626768 -328.71158196 119.49640581 -328.01391602 122.23095703 C-323.19583933 141.19893271 -323.19583933 141.19893271 -317.74609375 159.9921875 C-317.41364403 161.08589157 -317.41364403 161.08589157 -317.07447815 162.20169067 C-315.57999829 166.86660752 -313.63892644 170.86334016 -311 175 C-307.1298217 176.93508915 -303.20514807 176.64026771 -299 176 C-284.74399579 170.68187568 -259.95063097 156.90126194 -253 143 C-252.89969509 140.0321546 -252.8612611 137.0926019 -252.875 134.125 C-252.87113281 133.32835937 -252.86726562 132.53171875 -252.86328125 131.7109375 C-252.87380112 125.10445733 -253.37887572 118.57486221 -254 112 C-253.37996094 111.74009277 -252.75992188 111.48018555 -252.12109375 111.21240234 C-235.52651641 104.24666546 -219.01803993 97.10075076 -202.53898621 89.86698914 C-194.01186301 86.12512122 -185.47453299 82.4066884 -176.9375 78.6875 C-175.28108183 77.96575134 -173.6246691 77.24399021 -171.96826172 76.5222168 C-169.46560417 75.43170652 -166.96293738 74.34121748 -164.4602356 73.25080872 C-158.79593953 70.78286059 -153.13219271 68.31365571 -147.46875 65.84375 C-145.08919938 64.80610653 -142.70964011 63.76848289 -140.33007812 62.73086548 C-138.7323907 62.03413926 -137.13473455 61.33734134 -135.53710938 60.64047241 C-125.91483486 56.44348927 -116.28855228 52.25595286 -106.65625 48.08203125 C-77.74328001 35.54930714 -48.91419823 22.84293425 -20.25 9.75 C-19.33428223 9.33226318 -18.41856445 8.91452637 -17.47509766 8.48413086 C-11.58646205 5.77900759 -5.77922925 2.93131404 0 0 Z " fill="#C1AD83" transform="translate(899,41)"/>
<path d="M0 0 C13.2 0 26.4 0 40 0 C43.63401457 17.86668867 47.00412897 35.7634178 50.20935059 53.71154785 C50.79871342 57.00916841 51.39063887 60.30632868 51.98242188 63.60351562 C52.21440277 64.89653595 52.44638367 66.18955627 52.68539429 67.52175903 C53.14302141 70.07212659 53.60072248 72.62248088 54.0585022 75.17282104 C55.10809367 81.02155014 56.15513798 86.87069294 57.19482422 92.72119141 C57.55555472 94.73732425 57.91638789 96.75343874 58.27734375 98.76953125 C58.43884415 99.68554611 58.60034454 100.60156097 58.76673889 101.54533386 C58.91582199 102.37446793 59.06490509 103.20360199 59.21850586 104.05786133 C59.34623886 104.77613602 59.47397186 105.49441071 59.60557556 106.23445129 C59.94641345 108.09403228 59.94641345 108.09403228 61 110 C64.37948581 94.69994849 67.54151072 79.38793693 70.37133789 63.97784424 C72.34467784 53.25273517 74.54615284 42.58995244 76.87744141 31.93652344 C79.18316132 21.33236526 81.12233988 10.68821913 83 0 C95.21 0 107.42 0 120 0 C120.69222656 3.87685547 120.69222656 3.87685547 121.3984375 7.83203125 C125.20290427 29.04626762 129.15850583 50.22628601 133.3125 71.375 C133.52469177 72.45705719 133.73688354 73.53911438 133.95550537 74.65396118 C136.20743142 86.12403447 138.48626223 97.58390926 141 109 C141.33 109 141.66 109 142 109 C146.22572091 87.67437629 150.3431752 66.33547195 154.1875 44.9375 C156.88934444 29.89949941 159.77059496 14.93599829 163 0 C175.54 0 188.08 0 201 0 C199.87512869 11.24871312 199.87512869 11.24871312 199.0637207 14.97363281 C198.88273331 15.81813492 198.70174591 16.66263702 198.51527405 17.5327301 C198.32074142 18.41396042 198.1262088 19.29519073 197.92578125 20.203125 C197.61929909 21.62497353 197.61929909 21.62497353 197.30662537 23.07554626 C196.87132806 25.09297017 196.43365816 27.10988342 195.99377441 29.12631226 C194.84000813 34.41640615 193.70391144 39.71029629 192.56640625 45.00390625 C192.34173676 46.0474678 192.11706726 47.09102936 191.8855896 48.16621399 C190.09728732 56.4923606 188.39452431 64.83179881 186.75 73.1875 C184.7975094 83.08034193 182.7494291 92.94614001 180.609375 102.80004883 C178.77203782 111.30067773 176.99990761 119.81377168 175.24609375 128.33203125 C175.00115677 129.5199678 174.75621979 130.70790436 174.50386047 131.93183899 C173.50311531 136.78625097 172.50248656 141.64067098 171.50918579 146.49661255 C170.80615498 149.93329452 170.09873328 153.36904868 169.390625 156.8046875 C169.07374977 158.36392693 169.07374977 158.36392693 168.75047302 159.95466614 C168.54954544 160.92594955 168.34861786 161.89723297 168.14160156 162.89794922 C167.9687262 163.74171112 167.79585083 164.58547302 167.61773682 165.45480347 C166.91509842 168.34981111 165.94205998 171.17382007 165 174 C150.15 174 135.3 174 120 174 C118.41810738 165.69365636 116.83700624 157.38716725 115.2584343 149.08019257 C115.00358327 147.73912571 114.74869306 146.39806629 114.49376297 145.05701447 C111.16616532 127.55125735 107.85510143 110.04348183 104.75146484 92.49633789 C103.69941006 86.59594852 102.55122971 80.79030443 101 75 C99.39905478 78.69337526 98.4337734 82.23505963 97.65893555 86.18188477 C97.29296516 88.02780968 97.29296516 88.02780968 96.91960144 89.911026 C96.65847223 91.25445338 96.39751633 92.59791445 96.13671875 93.94140625 C95.86044936 95.346989 95.58381549 96.75250015 95.30683899 98.15794373 C94.72472257 101.11716265 94.1458911 104.07699861 93.56958008 107.03735352 C92.84841958 110.74129678 92.12110308 114.44399335 91.39149284 118.14628029 C87.73061483 136.7323177 84.27882476 155.34207223 81 174 C66.15 174 51.3 174 36 174 C31.93576463 156.03180153 27.93478769 138.09689248 24.5 120 C22.17260829 107.73903669 19.62762109 95.5476089 16.875 83.375 C14.32198771 72.08483184 11.92110041 60.79218415 9.79907227 49.41113281 C8.0595106 40.13052342 6.08705633 30.90605266 4.05419922 21.68554688 C3.69672607 20.05069336 3.69672607 20.05069336 3.33203125 18.3828125 C3.12296143 17.43809082 2.9138916 16.49336914 2.69848633 15.52001953 C1.6764532 10.36948699 0.86325182 5.17951093 0 0 Z " fill="#C1AC83" transform="translate(294,786)"/>
<path d="M0 0 C23.079375 -0.0928125 23.079375 -0.0928125 46.625 -0.1875 C51.45721191 -0.21481201 56.28942383 -0.24212402 61.26806641 -0.27026367 C67.23510742 -0.28381348 67.23510742 -0.28381348 70.04135132 -0.28633118 C71.97325726 -0.29089424 73.90515545 -0.30135316 75.83700562 -0.31672668 C107.45644994 -0.55545523 107.45644994 -0.55545523 117 8 C121.67828553 13.90941331 123.24469505 18.80645283 123.30639648 26.29370117 C123.31472 27.00988617 123.32304352 27.72607117 123.33161926 28.46395874 C123.3556451 30.8236847 123.36448373 33.18313357 123.37109375 35.54296875 C123.38006828 37.1933856 123.38919027 38.84380166 123.39845276 40.49421692 C123.41492698 43.9532773 123.42263955 47.4122411 123.42553711 50.87133789 C123.43090824 55.28174883 123.46854162 59.69123836 123.51428127 64.10138988 C123.54418165 67.51171593 123.55126352 70.921824 123.55226326 74.33226967 C123.55644267 75.95683305 123.56878447 77.58139846 123.58978081 79.20583153 C123.70915719 89.24353877 123.40750188 98.01457317 116.31956482 105.86003113 C111.77984142 110.24184419 105.39671269 114 99 114 C99.3410376 114.44593506 99.6820752 114.89187012 100.03344727 115.35131836 C105.61699011 123.13935479 109.14330138 131.81872312 112.9375 140.5625 C113.62096417 142.12078532 114.30520474 143.67873036 114.99023438 145.23632812 C116.33937061 148.30739407 117.68190862 151.38120998 119.01904297 154.45751953 C120.35409759 157.52686424 121.70288144 160.58962487 123.06298828 163.64794922 C123.38973038 164.38544907 123.71647247 165.12294891 124.05311584 165.88279724 C124.67298583 167.28093925 125.29560746 168.67786553 125.92137146 170.07337952 C128 174.77567103 128 174.77567103 128 177 C113.15 177 98.3 177 83 177 C80.75701824 170.98635642 78.51466981 164.97248447 76.27392578 158.95800781 C75.51192695 156.91327318 74.749561 154.86867531 73.98681641 152.82421875 C72.8886751 149.88057008 71.79186778 146.9364273 70.6953125 143.9921875 C70.3556546 143.0825827 70.0159967 142.17297791 69.66604614 141.23580933 C69.03806807 139.54821085 68.41563334 137.85853486 67.79986572 136.16644287 C67.15901827 134.43070228 66.47151242 132.71221768 65.76904297 131.00048828 C65 128 65 128 65 118 C57.08 118 49.16 118 41 118 C41 137.47 41 156.94 41 177 C27.47 177 13.94 177 0 177 C0 118.59 0 60.18 0 0 Z " fill="#C1AC83" transform="translate(730,583)"/>
<path d="M0 0 C15.241875 -0.0825 30.48375 -0.165 46.1875 -0.25 C50.97660889 -0.28641602 55.76571777 -0.32283203 60.69995117 -0.36035156 C66.60803223 -0.37841797 66.60803223 -0.37841797 69.38545227 -0.3817749 C71.29991896 -0.38786407 73.21437159 -0.40182045 75.1287384 -0.42230225 C102.58138299 -0.70099649 102.58138299 -0.70099649 113.3515625 8.296875 C119.42050866 14.56716061 122.23164904 21.86904739 122.29052734 30.56518555 C122.30328705 31.85059738 122.31604675 33.13600922 122.32919312 34.46037292 C122.33225202 35.85248665 122.33447911 37.24460242 122.3359375 38.63671875 C122.3423746 40.08152902 122.34910362 41.52633801 122.35610962 42.97114563 C122.36805876 45.99633805 122.37179311 49.02141652 122.37060547 52.04663086 C122.37040291 55.89520483 122.39764956 59.74303517 122.43214989 63.59143353 C122.45455663 66.57631178 122.45843877 69.56101532 122.45738602 72.54596901 C122.45972346 73.96314863 122.46844046 75.38033447 122.48405075 76.79743004 C122.59542161 87.95593986 121.22504951 98.30722585 113.9453125 107.21484375 C100.60259843 119.45906128 80.96966129 117.25780766 64.25 117.125 C56.9075 117.08375 49.565 117.0425 42 117 C42 136.8 42 156.6 42 177 C28.14 177 14.28 177 0 177 C0 118.59 0 60.18 0 0 Z " fill="#C1AC83" transform="translate(457,583)"/>
<path d="M0 0 C12.87 0 25.74 0 39 0 C39.01458252 3.92648437 39.02916504 7.85296875 39.04418945 11.8984375 C39.09453623 24.87448611 39.16098195 37.85041044 39.23571491 50.82633972 C39.28063077 58.69329486 39.32005508 66.56020516 39.34643555 74.42724609 C39.36944981 81.28624085 39.40288594 88.14509319 39.44870156 95.00397491 C39.47258776 98.6338358 39.49134659 102.26355604 39.49761391 105.89349365 C39.50481569 109.95133459 39.53529033 114.00868771 39.56762695 118.06640625 C39.56619186 119.26259079 39.56475677 120.45877533 39.5632782 121.69120789 C39.63592221 128.14120839 40.09150815 133.1905534 43 139 C46.74321713 141.49547809 48.71815298 141.24453197 53.1875 141.23046875 C53.88641357 141.23001053 54.58532715 141.22955231 55.30541992 141.2290802 C56.78143006 141.22606251 58.25743714 141.21819061 59.73339844 141.20581055 C61.99165136 141.18756744 64.24949361 141.18530087 66.5078125 141.18554688 C73.86113819 141.370666 73.86113819 141.370666 81 140 C83.71974347 133.59468033 83.30669426 126.8516171 83.31884766 119.99633789 C83.32889328 118.69809082 83.3389389 117.39984375 83.34928894 116.06225586 C83.37648345 112.51940733 83.39170685 108.97659834 83.40471697 105.43367314 C83.42039392 101.72473342 83.44716949 98.01587386 83.4727478 94.30699158 C83.51945503 87.29135184 83.556238 80.27569689 83.58942068 73.25998157 C83.62769914 65.26959514 83.67709423 57.27928939 83.72740483 49.28897107 C83.83060483 32.85936658 83.91843656 16.42972831 84 0 C97.53 0 111.06 0 125 0 C125.09047961 19.33305683 125.16408602 38.66594081 125.20724869 57.999156 C125.22782728 66.97697242 125.25585735 75.95464742 125.30175781 84.93237305 C125.34177024 92.76221848 125.36746695 100.59196145 125.37635398 108.42190629 C125.38154448 112.56344029 125.3936445 116.70468125 125.42292023 120.84612083 C125.45031779 124.75398289 125.45839659 128.66143463 125.45243073 132.56938362 C125.4535202 133.9942842 125.46132814 135.41920027 125.4768219 136.84401703 C125.58518644 147.33472688 124.8068959 158.25704224 118.375 167 C108.31423313 177.08579365 93.50812716 177.19904108 80.11630249 177.30354309 C78.84815704 177.30263168 77.5800116 177.30172028 76.2734375 177.30078125 C74.90971755 177.30468561 73.54599878 177.30902371 72.18228149 177.31376648 C69.35032167 177.32115004 66.51848671 177.32099384 63.68652344 177.31567383 C60.09173187 177.30986443 56.4974531 177.32688374 52.9027462 177.3500185 C50.09541942 177.36487485 47.28821317 177.36561197 44.48085403 177.36250877 C42.52248098 177.36325771 40.56412633 177.37701277 38.60580444 177.39118958 C26.88514148 177.33111325 16.124306 175.88184731 7 168 C-0.7611349 159.21766314 -0.42967742 146.94978651 -0.34057617 135.88989258 C-0.33972814 134.40060442 -0.34020848 132.91131502 -0.34190369 131.42202759 C-0.34275818 127.41236399 -0.32522178 123.40297416 -0.30418181 119.39337373 C-0.28532316 115.19070495 -0.28365738 110.98802866 -0.28010559 106.7853241 C-0.27081195 98.84182898 -0.2462348 90.89845894 -0.21605712 82.9550187 C-0.18242923 73.9053767 -0.16600609 64.85572846 -0.15097082 55.80603945 C-0.11968258 37.20394116 -0.06470439 18.60201415 0 0 Z " fill="#C1AC83" transform="translate(308,583)"/>
<path d="M0 0 C1.28819641 -0.00570007 2.57639282 -0.01140015 3.90362549 -0.01727295 C6.61999905 -0.02771416 9.33634363 -0.03360161 12.05273438 -0.03710938 C15.49621061 -0.04258068 18.93928886 -0.06660852 22.38264084 -0.09508133 C25.71341763 -0.11842785 29.04414586 -0.12017094 32.375 -0.125 C34.20064484 -0.1435202 34.20064484 -0.1435202 36.06317139 -0.16241455 C46.55519446 -0.13552997 57.58566329 0.51969983 65.87109375 7.6015625 C71.61489702 13.41627692 73.68157158 19.92730271 73.67971802 28.02757263 C73.66939545 28.71327835 73.65907288 29.39898407 73.6484375 30.10546875 C73.6456076 30.8280336 73.64277771 31.55059845 73.63986206 32.2950592 C73.62876886 34.57709116 73.60368588 36.85871397 73.578125 39.140625 C73.56808111 40.69856199 73.55895774 42.25650521 73.55078125 43.81445312 C73.52886533 47.61083199 73.49441238 51.4069094 73.453125 55.203125 C70.21134715 55.90795279 67.10561568 56.36329052 63.79296875 56.51953125 C62.9218042 56.56150635 62.05063965 56.60348145 61.15307617 56.64672852 C60.24146729 56.68596436 59.3298584 56.7252002 58.390625 56.765625 C57.45774658 56.8080835 56.52486816 56.85054199 55.5637207 56.89428711 C48.85015206 57.18380066 42.17334876 57.29272798 35.453125 57.203125 C34.958125 46.808125 34.958125 46.808125 34.453125 36.203125 C29.12042842 34.42555947 23.35991836 34.93785279 17.7746582 34.90795898 C15.52689091 34.89071145 13.28058238 34.84680063 11.03320312 34.80273438 C9.60157329 34.79260952 8.16993098 34.78409277 6.73828125 34.77734375 C5.43769775 34.76276123 4.13711426 34.74817871 2.79711914 34.7331543 C-0.57396325 34.94883442 -0.57396325 34.94883442 -2.96899414 36.8996582 C-4.85712027 39.65603605 -5.06179228 41.16416626 -5.078125 44.484375 C-5.08328125 45.49113281 -5.0884375 46.49789062 -5.09375 47.53515625 C-5.07828125 48.58058594 -5.0628125 49.62601563 -5.046875 50.703125 C-5.06234375 51.74855469 -5.0778125 52.79398438 -5.09375 53.87109375 C-5.08601563 55.38123047 -5.08601563 55.38123047 -5.078125 56.921875 C-5.07361328 57.83904297 -5.06910156 58.75621094 -5.06445312 59.70117188 C-4.37479772 63.03494006 -3.22457038 64.13467187 -0.546875 66.203125 C2.20164506 67.44568373 2.20164506 67.44568373 5.30859375 68.31640625 C6.47672607 68.67379883 7.6448584 69.03119141 8.84838867 69.39941406 C10.72554565 69.95193848 10.72554565 69.95193848 12.640625 70.515625 C13.94079654 70.90888815 15.24067983 71.30310549 16.5402832 71.69824219 C22.86281406 73.60831496 29.20665796 75.42744861 35.578125 77.16796875 C36.68647705 77.47114014 37.7948291 77.77431152 38.93676758 78.08666992 C41.00647369 78.64640375 43.07909537 79.19551441 45.1550293 79.73168945 C53.49297154 81.96199155 64.91163955 85.27655752 69.6015625 93.125 C72.0828744 97.94684014 73.57299866 101.97573501 73.63012695 107.44970703 C73.64937981 109.05750534 73.64937981 109.05750534 73.66902161 110.69778442 C73.67640854 111.85712494 73.68379547 113.01646545 73.69140625 114.2109375 C73.699478 115.40613007 73.70754974 116.60132263 73.71586609 117.83273315 C73.72970783 120.3663386 73.74042957 122.89996269 73.74829102 125.43359375 C73.76546435 129.29203121 73.80934707 133.14960313 73.85351562 137.0078125 C73.86364617 139.47134788 73.87216114 141.93489053 73.87890625 144.3984375 C73.89641434 145.54563263 73.91392242 146.69282776 73.93196106 147.87478638 C73.90953685 156.23550261 72.5108225 162.48430372 67.140625 169.015625 C56.47661301 177.69563476 44.9680075 177.51826496 31.734375 177.50390625 C30.22562545 177.50780321 28.71687698 177.5121399 27.20812988 177.51689148 C24.0614057 177.52431036 20.91479382 177.52409348 17.76806641 177.51879883 C13.76045356 177.51300028 9.7533023 177.52996539 5.74576569 177.5531435 C2.6348406 177.56795961 -0.47597519 177.56874207 -3.58692932 177.56563377 C-5.06353166 177.56614272 -6.54014081 177.57129906 -8.01670837 177.58144569 C-28.47739151 177.70485731 -28.47739151 177.70485731 -35.921875 171.203125 C-42.98321801 164.06553184 -43.96657379 155.39066413 -43.9289856 145.7194519 C-43.89814133 143.48439843 -43.84808569 141.25029525 -43.796875 139.015625 C-43.77676317 137.4759349 -43.75852074 135.9362192 -43.7421875 134.39648438 C-43.69859961 130.66482292 -43.62983616 126.93414342 -43.546875 123.203125 C-39.27605652 123.17370853 -35.00526466 123.15618785 -30.734375 123.140625 C-29.53876953 123.13224609 -28.34316406 123.12386719 -27.11132812 123.11523438 C-19.86179941 123.09548089 -12.75148849 123.38519435 -5.546875 124.203125 C-5.43730469 125.33492187 -5.32773438 126.46671875 -5.21484375 127.6328125 C-5.05540439 129.11466064 -4.89520882 130.59642756 -4.734375 132.078125 C-4.66412109 132.82449219 -4.59386719 133.57085938 -4.52148438 134.33984375 C-4.29977277 136.30864277 -3.93108161 138.25949158 -3.546875 140.203125 C0.14470818 142.66418045 2.91936054 142.45888293 7.18359375 142.3984375 C7.93401443 142.3956076 8.68443512 142.39277771 9.45759583 142.38986206 C11.85210175 142.37867562 14.24623231 142.35357428 16.640625 142.328125 C18.26496855 142.31809319 19.88931797 142.30896769 21.51367188 142.30078125 C25.493634 142.27874137 29.47331588 142.2442224 33.453125 142.203125 C34.8818302 136.55013883 35.72747066 131.32042793 35.703125 125.453125 C35.70828125 124.20015625 35.7134375 122.9471875 35.71875 121.65625 C35.45363785 118.20979201 35.11786213 116.20742704 33.453125 113.203125 C30.84038762 111.72278555 30.84038762 111.72278555 27.609375 110.80859375 C26.39475586 110.41438232 25.18013672 110.0201709 23.92871094 109.61401367 C22.60361421 109.20589722 21.2784165 108.79810851 19.953125 108.390625 C18.59873799 107.95784062 17.24490072 107.52333233 15.89160156 107.0871582 C9.29271249 104.97311741 2.66412746 102.95766433 -3.96875 100.953125 C-5.69834961 100.42875854 -5.69834961 100.42875854 -7.46289062 99.89379883 C-9.61982011 99.24479303 -11.77983314 98.60591188 -13.94335938 97.97924805 C-33.9559493 92.0345428 -33.9559493 92.0345428 -38.91796875 83.9765625 C-43.36205688 75.64232357 -43.71215897 68.08472233 -43.78515625 58.80859375 C-43.793228 57.82119705 -43.80129974 56.83380035 -43.80961609 55.81648254 C-43.82339342 53.73468754 -43.83414371 51.65287054 -43.84204102 49.57104492 C-43.8535681 47.45606805 -43.8740313 45.34112044 -43.90356445 43.22631836 C-43.94646283 40.14937842 -43.9624386 37.07329645 -43.97265625 33.99609375 C-43.99016434 33.06347214 -44.00767242 32.13085052 -44.02571106 31.16996765 C-43.99512877 21.78688883 -41.09454779 13.77037507 -34.59375 6.89453125 C-25.04611806 -0.99501957 -11.66063637 0.04044772 0 0 Z " fill="#C1AC83" transform="translate(210.546875,582.796875)"/>
<path d="M0 0 C16.5 0 33 0 50 0 C52.71966963 8.83892629 55.27401419 17.61277483 57.546875 26.5625 C57.87821074 27.85691229 58.20987023 29.15124176 58.54182434 30.44549561 C59.24728449 33.19791274 59.95102419 35.95076114 60.65335083 38.70397949 C62.34224354 45.32332053 64.04156056 51.93998827 65.74086189 58.55666351 C66.13083143 60.0751179 66.52070697 61.59359643 66.91049004 63.11209869 C71.07615446 79.33832189 75.30777799 95.54693081 79.5625 111.75 C79.88126099 112.96510254 80.20002197 114.18020508 80.52844238 115.43212891 C81.45688974 118.97060783 82.38642709 122.50879838 83.31640625 126.046875 C83.61215546 127.17331421 83.90790466 128.29975342 84.21261597 129.46032715 C85.8657557 135.7423589 87.54237894 142.01745469 89.24169922 148.28710938 C89.80090652 150.35748843 90.35977498 152.42795869 90.91856194 154.49845123 C91.45335556 156.47320426 91.99363312 158.44640279 92.53407288 160.4196167 C92.85661545 161.61435608 93.17915802 162.80909546 93.51147461 164.04003906 C93.79929306 165.09612366 94.08711151 166.15220825 94.38365173 167.24029541 C95 170 95 170 95 174 C82.13 174 69.26 174 56 174 C54.845 169.1325 53.69 164.265 52.5 159.25 C52.13455078 157.72020508 51.76910156 156.19041016 51.39257812 154.61425781 C51.10833984 153.40608398 50.82410156 152.19791016 50.53125 150.953125 C50.23798828 149.71723633 49.94472656 148.48134766 49.64257812 147.20800781 C49 144 49 144 49 140 C33.16 140 17.32 140 1 140 C0.505 143.96 0.505 143.96 0 148 C-0.42751785 150.25605805 -0.88524995 152.5066288 -1.375 154.75 C-1.72691406 156.38195312 -1.72691406 156.38195312 -2.0859375 158.046875 C-3.31944772 163.38154312 -4.67201543 168.68806171 -6 174 C-18.87 174 -31.74 174 -45 174 C-43.79443671 167.97218357 -42.59629002 162.17154717 -41.03125 156.26171875 C-40.83909409 155.53215973 -40.64693817 154.80260071 -40.44895935 154.05093384 C-40.02639434 152.44773445 -39.60251079 150.84488215 -39.17745972 149.24234009 C-38.22174256 145.6381339 -37.273137 142.03206516 -36.32395935 138.4261322 C-35.78794651 136.38996776 -35.25160878 134.35388883 -34.71498108 132.31788635 C-30.96295459 118.07775383 -27.24653213 103.82830695 -23.52893829 89.57915497 C-22.93756714 87.31275731 -22.34597762 85.04641675 -21.7543335 82.78009033 C-16.78146724 63.72975295 -11.82425202 44.6757051 -6.99194336 25.58911133 C-6.81359451 24.88772034 -6.63524567 24.18632935 -6.45149231 23.46368408 C-5.99489278 21.66767729 -5.54052328 19.87110392 -5.08642578 18.07446289 C-3.47389127 12.02691492 -1.71943615 6.01802653 0 0 Z " fill="#C1AC82" transform="translate(669,786)"/>
<path d="M0 0 C1.8961908 -0.00642769 1.8961908 -0.00642769 3.83068848 -0.01298523 C6.48639115 -0.018693 9.14170051 -0.02020623 11.79736328 -0.01489258 C15.16578386 -0.00909425 18.53365522 -0.02607094 21.90198517 -0.04923725 C25.16381812 -0.067679 28.42562445 -0.06378631 31.6875 -0.0625 C32.8784729 -0.07170975 34.0694458 -0.08091949 35.29650879 -0.09040833 C45.36813586 -0.03545489 57.74001201 0.82025198 65.34375 8.30078125 C69.60749171 14.96287768 71.49887041 20.94820732 71.44140625 28.8125 C71.4399913 29.54072464 71.43857635 30.26894928 71.43711853 31.01924133 C71.43152659 33.34229664 71.41897562 35.66525513 71.40625 37.98828125 C71.40123396 39.56445173 71.39667123 41.14062373 71.39257812 42.71679688 C71.3815598 46.57816223 71.36430074 50.43945533 71.34375 54.30078125 C63.49783615 55.31673745 55.68498065 55.61666868 47.78125 55.86328125 C46.48638672 55.90646484 45.19152344 55.94964844 43.85742188 55.99414062 C40.68628616 56.0994551 37.51508207 56.20158742 34.34375 56.30078125 C34.28767578 54.40392578 34.28767578 54.40392578 34.23046875 52.46875 C34.16481167 50.80856395 34.09836424 49.14840903 34.03125 47.48828125 C34.00869141 46.65490234 33.98613281 45.82152344 33.96289062 44.96289062 C33.92744141 44.16044922 33.89199219 43.35800781 33.85546875 42.53125 C33.82928467 41.79285889 33.80310059 41.05446777 33.77612305 40.29370117 C33.2332219 37.79132848 32.30571281 36.89951784 30.34375 35.30078125 C26.13639675 33.19710463 20.70588916 33.99195468 16.07739258 33.95068359 C14.71849414 33.93414528 13.35968195 33.90688204 12.0012207 33.86865234 C10.03650314 33.81368518 8.07087475 33.79511236 6.10546875 33.77734375 C4.92944092 33.75752441 3.75341309 33.73770508 2.54174805 33.71728516 C-1.6563458 34.48325541 -3.10491549 35.93199456 -5.65625 39.30078125 C-6.3792274 41.83504148 -6.3792274 41.83504148 -6.25 44.49609375 C-6.24613281 45.94048828 -6.24613281 45.94048828 -6.2421875 47.4140625 C-6.21382812 48.40792969 -6.18546875 49.40179687 -6.15625 50.42578125 C-6.15882813 51.42738281 -6.16140625 52.42898438 -6.1640625 53.4609375 C-6.33691397 58.52402742 -6.33691397 58.52402742 -4.41894531 63.00097656 C-2.32513072 64.54494733 -0.46772993 65.24703891 2.015625 66.02734375 C2.9754126 66.3325293 3.9352002 66.63771484 4.92407227 66.95214844 C5.97006592 67.27344727 7.01605957 67.59474609 8.09375 67.92578125 C9.18034912 68.26770508 10.26694824 68.60962891 11.38647461 68.96191406 C17.77256006 70.95203204 24.18225695 72.84512944 30.61328125 74.68359375 C31.30422882 74.88163605 31.99517639 75.07967834 32.70706177 75.28372192 C36.09588869 76.25351005 39.48708747 77.21294275 42.88378906 78.15478516 C62.81374162 83.79052426 62.81374162 83.79052426 67.46484375 91.05078125 C71.66225366 98.92284672 72.65353206 106.56819633 72.64453125 115.35546875 C72.64881638 116.29705841 72.6531015 117.23864807 72.65751648 118.20877075 C72.66323069 120.1904419 72.66378164 122.172134 72.65942383 124.15380859 C72.65626636 127.16020051 72.67975129 130.16560456 72.70507812 133.171875 C72.7073519 135.10807169 72.70805425 137.04427099 72.70703125 138.98046875 C72.716241 139.86620575 72.72545074 140.75194275 72.73493958 141.66452026 C72.6678684 150.86395251 70.47824039 160.18350429 64.34375 167.30078125 C57.71185693 172.78780015 50.43021213 174.5401737 41.89892578 174.59130859 C41.19059601 174.59802582 40.48226624 174.60474304 39.75247192 174.61166382 C37.43126238 174.63052522 35.11034372 174.63456177 32.7890625 174.63671875 C31.16152837 174.64315437 29.53399539 174.64988329 27.90646362 174.65689087 C24.50223103 174.66883358 21.0980997 174.67257475 17.69384766 174.67138672 C13.35077954 174.67118357 9.00836607 174.69849437 4.66545296 174.73293114 C1.30578683 174.75526378 -2.05372324 174.75922234 -5.41345596 174.75816727 C-7.01370628 174.76051332 -8.61396156 174.76928021 -10.21413803 174.784832 C-26.23544899 174.92598208 -26.23544899 174.92598208 -33.65625 170.30078125 C-34.584375 169.72328125 -35.5125 169.14578125 -36.46875 168.55078125 C-44.59900377 160.18823452 -44.8945771 148.13113905 -44.83203125 137.09179688 C-44.81527344 135.94388672 -44.79851562 134.79597656 -44.78125 133.61328125 C-44.77222656 132.42283203 -44.76320312 131.23238281 -44.75390625 130.00585938 C-44.73059772 127.10394758 -44.69788123 124.20247808 -44.65625 121.30078125 C-40.6910093 121.27580396 -36.72579995 121.25779185 -32.76049805 121.24584961 C-30.75893542 121.23843021 -28.75739467 121.22571466 -26.75585938 121.21289062 C-19.96499075 121.19578516 -13.38459499 121.36280121 -6.65625 122.30078125 C-6.60017578 123.87279297 -6.60017578 123.87279297 -6.54296875 125.4765625 C-6.47730485 126.8555043 -6.41085765 128.23440896 -6.34375 129.61328125 C-6.30991211 130.6487207 -6.30991211 130.6487207 -6.27539062 131.70507812 C-6.06953933 135.70903418 -6.06953933 135.70903418 -4.30078125 139.21875 C0.88914829 142.63350174 7.76984507 141.52604568 13.71875 141.55078125 C14.95109375 141.57140625 16.1834375 141.59203125 17.453125 141.61328125 C19.23589844 141.62101562 19.23589844 141.62101562 21.0546875 141.62890625 C22.14056152 141.63825195 23.22643555 141.64759766 24.34521484 141.65722656 C27.76302088 141.2509412 29.62570128 140.38932915 32.34375 138.30078125 C33.72509541 134.15674503 33.52799179 130.26571587 33.53125 125.92578125 C33.54349609 125.075 33.55574219 124.22421875 33.56835938 123.34765625 C33.57029297 122.52007813 33.57222656 121.6925 33.57421875 120.83984375 C33.57832764 120.08912598 33.58243652 119.3384082 33.58666992 118.56494141 C33.27352011 115.64619634 32.87688652 113.8390371 31.34375 111.30078125 C28.81274768 110.06751302 26.60607397 109.20742635 23.94140625 108.3984375 C23.19604111 108.15529312 22.45067596 107.91214874 21.682724 107.66163635 C19.26272601 106.87709072 16.83497328 106.12033317 14.40625 105.36328125 C12.74745627 104.82979515 11.08925166 104.29447382 9.43164062 103.75732422 C1.85155252 101.31132014 -5.7551038 98.95397542 -13.37255859 96.62719727 C-34.60217838 90.10670361 -34.60217838 90.10670361 -40.5703125 81.42578125 C-43.81558949 75.07531116 -43.9633395 69.33469088 -43.95703125 62.34765625 C-43.96131638 61.29225647 -43.9656015 60.23685669 -43.97001648 59.1494751 C-43.97574737 56.92045812 -43.97626921 54.69142245 -43.97192383 52.46240234 C-43.96877362 49.07616706 -43.99220558 45.6908143 -44.01757812 42.3046875 C-44.01985241 40.13151151 -44.02055401 37.95833319 -44.01953125 35.78515625 C-44.028741 34.78377625 -44.03795074 33.78239624 -44.04743958 32.75067139 C-43.98553468 23.20080279 -42.3692355 14.98961626 -35.59375 7.98828125 C-25.89695954 -0.45731044 -12.18422053 -0.00932413 0 0 Z " fill="#C1AC82" transform="translate(212.65625,785.69921875)"/>
<path d="M0 0 C34.98 0 69.96 0 106 0 C106 11.55 106 23.1 106 35 C84.22 35 62.44 35 40 35 C40 47.21 40 59.42 40 72 C58.15 72 76.3 72 95 72 C95 83.55 95 95.1 95 107 C76.85 107 58.7 107 40 107 C40 118.55 40 130.1 40 142 C61.78 142 83.56 142 106 142 C106 153.55 106 165.1 106 177 C71.02 177 36.04 177 0 177 C0 118.59 0 60.18 0 0 Z " fill="#C1AC83" transform="translate(601,583)"/>
<path d="M0 0 C33 0 66 0 100 0 C100 10.89 100 21.78 100 33 C79.54 33 59.08 33 38 33 C38 45.87 38 58.74 38 72 C54.83 72 71.66 72 89 72 C89 82.89 89 93.78 89 105 C72.17 105 55.34 105 38 105 C38 116.55 38 128.1 38 140 C58.46 140 78.92 140 100 140 C100 151.22 100 162.44 100 174 C67 174 34 174 0 174 C0 116.58 0 59.16 0 0 Z " fill="#C1AC82" transform="translate(511,786)"/>
<path d="M0 0 C37.62 0 75.24 0 114 0 C114 10.89 114 21.78 114 33 C101.46 33 88.92 33 76 33 C76 79.53 76 126.06 76 174 C63.46 174 50.92 174 38 174 C38 127.47 38 80.94 38 33 C25.46 33 12.92 33 0 33 C0 22.11 0 11.22 0 0 Z " fill="#C1AD84" transform="translate(751,786)"/>
<path d="M0 0 C5.48625 -0.061875 10.9725 -0.12375 16.625 -0.1875 C18.34541504 -0.21481201 20.06583008 -0.24212402 21.83837891 -0.27026367 C23.21776632 -0.27903398 24.59716156 -0.28667663 25.9765625 -0.29296875 C26.67998779 -0.30831665 27.38341309 -0.32366455 28.1081543 -0.33947754 C32.82006328 -0.34195488 36.02080004 0.46828679 40 3 C42.51839838 6.77759757 42.32341066 9.83113414 42.3359375 14.2109375 C42.3425943 15.01608795 42.3492511 15.8212384 42.35610962 16.65078735 C42.36623125 18.35375689 42.37092679 20.05676604 42.37060547 21.75976562 C42.37497268 24.35874226 42.41127829 26.95601203 42.44921875 29.5546875 C42.45508833 31.21093171 42.45905678 32.86718396 42.4609375 34.5234375 C42.47530853 35.29754974 42.48967957 36.07166199 42.50448608 36.86923218 C42.47285918 40.62496591 42.14402293 42.77552518 40.09619141 45.96728516 C36.31912712 49.62997293 32.93103128 49.13101255 27.9296875 49.09765625 C27.22400635 49.09664917 26.5183252 49.09564209 25.79125977 49.09460449 C23.15249001 49.08936828 20.51374339 49.07540702 17.875 49.0625 C9.026875 49.0315625 9.026875 49.0315625 0 49 C0 32.83 0 16.66 0 0 Z " fill="#FAFAF7" transform="translate(771,617)"/>
<path d="M0 0 C8.2603125 -0.1546875 8.2603125 -0.1546875 16.6875 -0.3125 C19.28177856 -0.38078003 19.28177856 -0.38078003 21.9284668 -0.45043945 C23.31036442 -0.46505226 24.69228368 -0.47779106 26.07421875 -0.48828125 C26.78276001 -0.51386108 27.49130127 -0.53944092 28.22131348 -0.5657959 C31.93201382 -0.56904691 33.8692173 -0.08938277 36.95385742 2.01879883 C39.52807523 5.76939824 39.72376709 8.78706405 39.6640625 13.1875 C39.66884613 13.96762451 39.67362976 14.74774902 39.67855835 15.55151367 C39.68195008 17.19549586 39.67279831 18.83954615 39.65185547 20.48339844 C39.62507392 22.99307295 39.651622 25.49827629 39.68359375 28.0078125 C39.68028952 29.60938482 39.67388299 31.21095438 39.6640625 32.8125 C39.67418365 33.55846436 39.68430481 34.30442871 39.69473267 35.07299805 C39.61080395 38.82313705 39.08966425 40.86936044 36.95385742 43.98120117 C33.26139641 46.50479487 30.39095909 46.64412468 26.07421875 46.48828125 C25.41087524 46.48324585 24.74753174 46.47821045 24.06408691 46.47302246 C21.60477998 46.44701664 19.14609302 46.37720886 16.6875 46.3125 C8.4271875 46.1578125 8.4271875 46.1578125 0 46 C0 30.82 0 15.64 0 0 Z " fill="#FAFAF8" transform="translate(499,619)"/>
<path d="M0 0 C2.32259582 2.8060619 3.496345 5.03369934 4.30273438 8.578125 C4.61821228 9.93103638 4.61821228 9.93103638 4.94006348 11.3112793 C5.26363831 12.76594604 5.26363831 12.76594604 5.59375 14.25 C5.82654663 15.25909424 6.05934326 16.26818848 6.29919434 17.30786133 C7.04204145 20.53653767 7.77136348 23.7680901 8.5 27 C9.23020573 30.19639958 9.96315142 33.39216243 10.69628906 36.58789062 C11.16621981 38.63955525 11.63434566 40.6916342 12.10058594 42.74414062 C13.47908051 48.80146715 14.92359236 54.82856876 16.53710938 60.828125 C17 63 17 63 17 67 C6.44 67 -4.12 67 -15 67 C-13.87492912 56.87436205 -13.87492912 56.87436205 -12.70898438 51.97705078 C-12.45201782 50.88627228 -12.19505127 49.79549377 -11.93029785 48.67166138 C-11.65423706 47.52446625 -11.37817627 46.37727112 -11.09375 45.1953125 C-10.66660706 43.39391312 -10.66660706 43.39391312 -10.23083496 41.55612183 C-9.63147891 39.03258979 -9.02958682 36.50965886 -8.42529297 33.98730469 C-7.49826731 30.1177675 -6.57853302 26.24659795 -5.66015625 22.375 C-5.07593919 19.91917127 -4.491318 17.46343864 -3.90625 15.0078125 C-3.63018921 13.84847198 -3.35412842 12.68913147 -3.06970215 11.49465942 C-2.8127356 10.42279388 -2.55576904 9.35092834 -2.29101562 8.24658203 C-2.06530884 7.30332062 -1.83960205 6.3600592 -1.60705566 5.38821411 C-1.14532546 3.57172402 -0.59269141 1.77807422 0 0 Z " fill="#FAF9F7" transform="translate(693,827)"/>
<path d="M0 0 C37.62 0 75.24 0 114 0 C114 10.89 114 21.78 114 33 C101.46 33 88.92 33 76 33 C76 79.53 76 126.06 76 174 C63.46 174 50.92 174 38 174 C38 127.47 38 80.94 38 33 C25.46 33 12.92 33 0 33 C0 22.11 0 11.22 0 0 Z M1 2 C1 11.9 1 21.8 1 32 C19.315 32.495 19.315 32.495 38 33 C38.33 79.2 38.66 125.4 39 173 C50.55 173 62.1 173 74 173 C74.33 126.8 74.66 80.6 75 33 C87.21 32.67 99.42 32.34 112 32 C112 22.1 112 12.2 112 2 C75.37 2 38.74 2 1 2 Z " fill="#B8A06E" transform="translate(751,786)"/>
<path d="M0 0 C13.53 0 27.06 0 41 0 C41.04510386 19.52303103 41.08196406 39.04602004 41.10362434 58.56908989 C41.11394779 67.63348121 41.12802846 76.69783792 41.15087891 85.76220703 C41.17078016 93.66043149 41.18370866 101.5586309 41.18817699 109.45687973 C41.19078992 113.64100185 41.19695347 117.82505227 41.21146011 122.00915146 C41.22499253 125.94398383 41.22923149 129.87871468 41.22621536 133.81356812 C41.22676748 135.2608101 41.23077073 136.70805533 41.23841095 138.15527725 C41.2483038 140.12513041 41.24479075 142.09503754 41.24050903 144.06491089 C41.24235262 145.16921888 41.24419621 146.27352688 41.24609566 147.41129875 C41 150 41 150 39 152 C39 102.5 39 53 39 2 C26.46 2 13.92 2 1 2 C1 45.23 1 88.46 1 133 C0.67 133 0.34 133 0 133 C0 89.11 0 45.22 0 0 Z " fill="#BDA779" transform="translate(392,583)"/>
<path d="M0 0 C0.57105469 0.08040527 1.14210938 0.16081055 1.73046875 0.24365234 C16.79050897 2.34164284 31.83671262 3.87821078 47 5 C43.88572128 7.07618582 40.7634303 8.53782677 37.375 10.125 C31.00919614 13.19225016 25.97510172 16.93276677 21 22 C12.65178033 19.84731442 12.65178033 19.84731442 10.125 16.5625 C9.568125 15.2940625 9.568125 15.2940625 9 14 C7.255662 11.30420491 6.28485161 10.14242581 3.375 8.6875 C1 7 1 7 0.3515625 3.39453125 C0.23554688 2.27433594 0.11953125 1.15414062 0 0 Z " fill="#F9F9F6" transform="translate(459,93)"/>
<path d="M0 0 C0.33 0 0.66 0 1 0 C1.33 19.8 1.66 39.6 2 60 C-11.86 60 -25.72 60 -40 60 C-39.67 59.34 -39.34 58.68 -39 58 C-26.13 58 -13.26 58 0 58 C0 38.86 0 19.72 0 0 Z " fill="#BDA679" transform="translate(497,700)"/>
<path d="M0 0 C13.2 0 26.4 0 40 0 C40 1.98 40 3.96 40 6 C39.505 4.02 39.505 4.02 39 2 C26.79 2 14.58 2 2 2 C1.67 2.99 1.34 3.98 1 5 C0.67 3.35 0.34 1.7 0 0 Z " fill="#BAA475" transform="translate(294,786)"/>
<path d="M0 0 C0.33 0.66 0.66 1.32 1 2 C-0.65 3.32 -2.3 4.64 -4 6 C2.93 12.93 9.86 19.86 17 27 C14 27 14 27 11.73168945 25.10400391 C10.86761475 24.23694824 10.00354004 23.36989258 9.11328125 22.4765625 C8.65140915 22.0151889 8.18953705 21.55381531 7.71366882 21.07846069 C6.73934115 20.10179295 5.76870424 19.12143141 4.80151367 18.13769531 C3.31648219 16.62904553 1.81855547 15.1341798 0.31835938 13.640625 C-7 6.2790462 -7 6.2790462 -7 4 C-4.69 2.68 -2.38 1.36 0 0 Z " fill="#BBA476" transform="translate(254,297)"/>
<path d="M0 0 C-1.24493883 3.7348165 -2.33018516 4.04556025 -5.6875 5.9375 C-9.56516104 8.16840685 -13.30905109 10.47461391 -17 13 C-17.66 12.67 -18.32 12.34 -19 12 C-16.91986415 10.37076065 -14.83612026 8.7465453 -12.75 7.125 C-12.16347656 6.66480469 -11.57695313 6.20460938 -10.97265625 5.73046875 C-3.58118207 0 -3.58118207 0 0 0 Z " fill="#C9B99B" transform="translate(654,436)"/>
<path d="M0 0 C4.75 0.75 4.75 0.75 7 3 C7 3.99 7 4.98 7 6 C4 8 4 8 1 8 C0.67 5.36 0.34 2.72 0 0 Z " fill="#C8B694" transform="translate(607,453)"/>
<path d="M0 0 C6.87214452 3.05428645 12.26719191 7.16000629 18 12 C17.01 12.495 17.01 12.495 16 13 C13.32585011 11.21930777 10.66206765 9.42369436 8 7.625 C7.236875 7.11710937 6.47375 6.60921875 5.6875 6.0859375 C4.6046875 5.35117187 4.6046875 5.35117187 3.5 4.6015625 C2.8296875 4.15119629 2.159375 3.70083008 1.46875 3.23681641 C0.9840625 2.82866699 0.499375 2.42051758 0 2 C0 1.34 0 0.68 0 0 Z " fill="#CDBDA1" transform="translate(370,435)"/>
<path d="M0 0 C0 0.66 0 1.32 0 2 C-6.5 6 -6.5 6 -11 6 C-11.33 5.01 -11.66 4.02 -12 3 C-10.37604003 2.49663233 -8.75079459 1.99741024 -7.125 1.5 C-6.22007812 1.2215625 -5.31515625 0.943125 -4.3828125 0.65625 C-2 0 -2 0 0 0 Z " fill="#F6F4EF" transform="translate(346,241)"/>
<path d="M0 0 C-1.28519565 2.86697492 -2.57129254 4.97607712 -5 7 C-5.66 7 -6.32 7 -7 7 C-7.66 8.32 -8.32 9.64 -9 11 C-8.72482232 6.32197941 -6.66806114 4.25361247 -3.47265625 1.13671875 C-2 0 -2 0 0 0 Z " fill="#BBA477" transform="translate(181,792)"/>
<path d="M0 0 C-3.96 0 -7.92 0 -12 0 C-12 -0.66 -12 -1.32 -12 -2 C-6.84854146 -3.28786464 -4.42296703 -2.94864468 0 0 Z " fill="#F5F2EC" transform="translate(735,165)"/>
<path d="M0 0 C3 3.75 3 3.75 3 6 C2.34 6 1.68 6 1 6 C0.34 7.32 -0.32 8.64 -1 10 C-2.31223496 6.06329512 -1.24296256 3.87511856 0 0 Z " fill="#F6F3EE" transform="translate(693,827)"/>
<path d="M0 0 C0.33 0 0.66 0 1 0 C1.02703381 1.93742341 1.04641125 3.87495479 1.0625 5.8125 C1.07410156 6.89144531 1.08570313 7.97039062 1.09765625 9.08203125 C1 12 1 12 0 15 C-0.66 15 -1.32 15 -2 15 C-1.855625 14.01 -1.71125 13.02 -1.5625 12 C-0.99074821 8.00590535 -0.49180166 4.00467063 0 0 Z " fill="#BDA678" transform="translate(681,450)"/>
<path d="M0 0 C1.2739902 0.76560456 2.54406512 1.53772626 3.8125 2.3125 C4.52019531 2.74175781 5.22789062 3.17101562 5.95703125 3.61328125 C7.88960231 4.92506467 9.41410612 6.29403845 11 8 C5.95575532 7.55491959 3.55556591 5.39019075 0 2 C0 1.34 0 0.68 0 0 Z " fill="#BDA67B" transform="translate(609,491)"/>
<path d="M0 0 C0.33 0.66 0.66 1.32 1 2 C-0.12104533 3.31587941 -1.24696965 4.62760353 -2.375 5.9375 C-3.00148438 6.66839844 -3.62796875 7.39929688 -4.2734375 8.15234375 C-6 10 -6 10 -8 11 C-6.63629701 8.00779732 -5.05091917 5.70973471 -2.875 3.25 C-2.33617187 2.63640625 -1.79734375 2.0228125 -1.2421875 1.390625 C-0.62730469 0.70226562 -0.62730469 0.70226562 0 0 Z " fill="#BAA376" transform="translate(370,292)"/>
<path d="M0 0 C2.49361571 1.20381448 4.68143083 2.45428722 7 4 C6.34 5.32 5.68 6.64 5 8 C0 2.25 0 2.25 0 0 Z " fill="#F5F2EE" transform="translate(645,277)"/>
<path d="M0 0 C0 0.66 0 1.32 0 2 C0.66 2.33 1.32 2.66 2 3 C0.35333797 2.8864371 -1.29236082 2.75882619 -2.9375 2.625 C-3.85402344 2.55539063 -4.77054687 2.48578125 -5.71484375 2.4140625 C-6.84599609 2.20910156 -6.84599609 2.20910156 -8 2 C-8.33 1.34 -8.66 0.68 -9 0 C-2.25 -1.125 -2.25 -1.125 0 0 Z " fill="#F3F0EA" transform="translate(286,162)"/>
<path d="M0 0 C3.63 1.65 7.26 3.3 11 5 C8 6 8 6 4.8125 4.5625 C3.884375 4.046875 2.95625 3.53125 2 3 C1.67 3.99 1.34 4.98 1 6 C0.67 4.02 0.34 2.04 0 0 Z " fill="#B89F6E" transform="translate(126,42)"/>
<path d="M0 0 C0.66 0.66 1.32 1.32 2 2 C-0.625 6.875 -0.625 6.875 -4 8 C-3.40072174 4.64404172 -2.15377564 2.62198774 0 0 Z " fill="#D3C6AD" transform="translate(877,104)"/>
<path d="M0 0 C2.97 1.65 5.94 3.3 9 5 C8.01 5.495 8.01 5.495 7 6 C5.0546875 5.22265625 5.0546875 5.22265625 2.875 4.0625 C2.15054688 3.68222656 1.42609375 3.30195313 0.6796875 2.91015625 C0.12539063 2.60980469 -0.42890625 2.30945313 -1 2 C-0.67 1.34 -0.34 0.68 0 0 Z " fill="#C8B898" transform="translate(654,463)"/>
<path d="M0 0 C0.33 0.66 0.66 1.32 1 2 C-0.98 4.31 -2.96 6.62 -5 9 C-5.66 8.67 -6.32 8.34 -7 8 C-4.69 5.36 -2.38 2.72 0 0 Z " fill="#BBA577" transform="translate(344,324)"/>
<path d="M0 0 C2.31 0.66 4.62 1.32 7 2 C5.68 2.33 4.36 2.66 3 3 C2.67 4.32 2.34 5.64 2 7 C1.34 4.69 0.68 2.38 0 0 Z " fill="#B79F6E" transform="translate(155,142)"/>
<path d="M0 0 C1.9375 0.375 1.9375 0.375 4 1 C4.33 1.66 4.66 2.32 5 3 C3.35 3.66 1.7 4.32 0 5 C0 3.35 0 1.7 0 0 Z " fill="#D4C7AF" transform="translate(608,455)"/>
</svg>
