<?xml version="1.0" encoding="UTF-8"?>
<svg version="1.1" xmlns="http://www.w3.org/2000/svg" width="1024" height="1024">
<path d="M0 0 C337.92 0 675.84 0 1024 0 C1024 337.92 1024 675.84 1024 1024 C686.08 1024 348.16 1024 0 1024 C0 686.08 0 348.16 0 0 Z " fill="#632013" transform="translate(0,0)"/>
<path d="M0 0 C7.55656945 2.31713563 14.54800868 5.4379984 21.6875 8.8125 C22.90829108 9.3847844 24.12932525 9.95655047 25.35058594 10.52783203 C27.91709214 11.72931317 30.48229916 12.93350257 33.04638672 14.14013672 C38.96561623 16.9256026 44.89000447 19.70003763 50.81613159 22.47079468 C52.10428184 23.07308608 53.39230701 23.67564505 54.6802063 24.2784729 C62.86089586 28.10600294 71.061183 31.8627535 79.3828125 35.375 C82.50137672 36.77599645 85.54154527 38.25898516 88.59375 39.796875 C95.12518169 43.08642079 101.73646776 46.1835195 108.375 49.25 C109.60323352 49.81916087 110.83142291 50.388417 112.05957031 50.95776367 C119.60420598 54.45134337 127.17129211 57.89347845 134.75 61.3125 C140.77102221 64.03141147 146.73795461 66.81432304 152.625 69.8125 C166.71803505 76.98875351 181.18752209 83.44534622 195.578125 90 C204.54542202 94.08502413 213.48663 98.17101722 222.2644043 102.65039062 C229.95006973 106.53770849 237.76393445 110.15893379 245.5625 113.8125 C246.27180664 114.14527954 246.98111328 114.47805908 247.71191406 114.82092285 C249.76685871 115.78450534 251.82268539 116.74617552 253.87890625 117.70703125 C254.49194107 117.99425552 255.10497589 118.2814798 255.73658752 118.57740784 C259.79215743 120.46762213 263.88066816 122.25488867 268 124 C267.84144531 124.79019531 267.68289063 125.58039063 267.51953125 126.39453125 C265.84744142 137.99858324 265.54018162 150.40364197 271 161 C271.350625 161.76054687 271.70125 162.52109375 272.0625 163.3046875 C275.29213064 169.78637677 279.95263182 174.86679223 285 180 C285.59296875 180.60585938 286.1859375 181.21171875 286.796875 181.8359375 C296.54255211 191.02102256 309.44600914 197.39146735 321 204 C321.36996094 202.78699219 321.73992187 201.57398438 322.12109375 200.32421875 C324.25846545 193.9220972 327.17841644 187.90525723 330.0625 181.8125 C330.93688268 179.94949833 331.80928565 178.08557766 332.68162537 176.22161865 C333.2686139 174.96766009 333.85614811 173.71395683 334.44422913 172.46051025 C337.18614164 166.61489611 339.88560321 160.75062682 342.5625 154.875 C342.9551001 154.0188208 343.3477002 153.1626416 343.75219727 152.28051758 C351.77422981 134.77900688 351.77422981 134.77900688 352.73828125 115.82421875 C352.14824538 113.84567775 352.14824538 113.84567775 350.203125 112.90234375 C349.47609375 112.60457031 348.7490625 112.30679688 348 112 C347.33484375 111.60941406 346.6696875 111.21882813 345.984375 110.81640625 C336.39578573 105.43539723 325.7320592 104.50332347 315 103 C314.34 100.69 313.68 98.38 313 96 C332.47 95.67 351.94 95.34 372 95 C365.20431262 78.59413391 365.20431262 78.59413391 356.9375 63.1875 C356.45345703 62.37603516 355.96941406 61.56457031 355.47070312 60.72851562 C354.32515927 58.81171453 353.16903701 56.9025246 352 55 C352.66 54.67 353.32 54.34 354 54 C358.58759497 57.27086296 361.56926387 61.10438782 364.8125 65.625 C365.56563477 66.6459375 365.56563477 66.6459375 366.33398438 67.6875 C370 72.73512968 370 72.73512968 370 75 C370.66 75 371.32 75 372 75 C372.34224609 74.01 372.34224609 74.01 372.69140625 73 C374.40301103 69.07608216 376.6354788 65.60085279 378.9375 62 C379.8219814 60.60439907 380.70610448 59.20857098 381.58984375 57.8125 C382.17560181 56.89404297 382.17560181 56.89404297 382.77319336 55.95703125 C384.21488734 53.65720658 385.60932618 51.33095753 387 49 C377.07620671 46.93920252 367.33831883 46.57897612 357.25 46.375 C355.6666477 46.33671402 354.08331386 46.29765662 352.5 46.2578125 C348.66682089 46.16299979 344.83354519 46.07856149 341 46 C340.95918758 44.57836734 340.93026474 43.1563906 340.90625 41.734375 C340.88884766 40.94256836 340.87144531 40.15076172 340.85351562 39.33496094 C341.09898983 35.42210218 342.5080674 32.954392 345 30 C350.5240329 25.40244557 355.41185473 24.23842555 362.46362305 24.19360352 C363.37099811 24.16946916 364.27837317 24.1453348 365.21324444 24.12046909 C368.14245014 24.0521181 371.07010362 24.02203857 374 24 C374.96266911 23.98827129 375.92533821 23.97654259 376.91717911 23.96445847 C384.13912106 23.87979475 391.35972982 23.88460113 398.58203125 23.90234375 C400.86130237 23.9042149 403.14057391 23.9056355 405.41984558 23.90663147 C411.34285647 23.91040183 417.2658418 23.92018348 423.18884277 23.93133545 C429.26326146 23.94166923 435.33768438 23.9461544 441.41210938 23.95117188 C453.27475065 23.96181218 465.13737318 23.97882043 477 24 C476.21654285 25.17219543 475.42297164 26.33763668 474.625 27.5 C474.18414063 28.1496875 473.74328125 28.799375 473.2890625 29.46875 C472.86367188 29.9740625 472.43828125 30.479375 472 31 C471.34 31 470.68 31 470 31 C469.77828125 31.57492188 469.5565625 32.14984375 469.328125 32.7421875 C467.12153422 36.49339183 463.39547906 38.6524808 459.921875 41.1953125 C457.81833198 43.69897611 457.81833198 43.69897611 457.9987793 45.93212891 C458.51671657 48.67449188 459.24252816 51.31334865 460 54 C460.48692562 55.9695501 460.97356341 57.93917593 461.45529175 59.91000366 C462.19011579 62.88838668 462.95538109 65.85862169 463.72143555 68.82910156 C464.3056412 71.09835804 464.88255562 73.36938242 465.45898438 75.640625 C467.32386166 82.92808216 469.30621063 90.1441843 471.6015625 97.30859375 C473.78157489 104.11631796 475.52715878 110.9575943 477.0625 117.9375 C477.57137467 120.19406453 478.08048934 122.45057496 478.58984375 124.70703125 C478.95118408 126.32279053 478.95118408 126.32279053 479.31982422 127.97119141 C480.23089903 132.02818856 481.17113134 136.07787837 482.125 140.125 C482.28234619 140.79466797 482.43969238 141.46433594 482.60180664 142.15429688 C483.84586991 147.41838948 485.1696081 152.66068651 486.49829102 157.90380859 C487.96767582 163.75684604 489.27516485 169.64150894 490.56152344 175.53710938 C491.75050131 180.96226588 493.06446133 186.34485109 494.484375 191.71484375 C495 194 495 194 495 197 C504.31932816 191.68005963 512.99411996 186.21958825 521 179 C522.423125 177.73542969 522.423125 177.73542969 523.875 176.4453125 C533.24612467 167.65988312 540.48350877 157.17052633 541 144 C540.90508327 136.98836585 540.49279351 129.9935775 540 123 C540.84256348 122.6189209 541.68512695 122.2378418 542.55322266 121.84521484 C546.57796403 120.02360438 550.60182441 118.20006568 554.625 116.375 C555.36330048 116.04008545 556.10160095 115.7051709 556.86227417 115.36010742 C567.62742913 110.47347436 578.3589805 105.52008277 589.0625 100.5 C597.85181878 96.37788036 606.66370636 92.3372479 615.578125 88.4921875 C623.28491681 85.13146322 630.87263748 81.5063365 638.44921875 77.86328125 C650.03452114 72.30059519 661.70095172 66.94117953 673.41107178 61.64819336 C682.4947178 57.53923622 691.53058481 53.35443717 700.5 49 C710.93836223 43.93262452 721.47697154 39.10972177 732.04882812 34.32958984 C739.89585269 30.78135457 747.73426606 27.22392445 755.5 23.5 C763.66306678 19.59638454 771.87663843 15.80400229 780.10473633 12.03979492 C781.60705838 11.35172205 783.10853846 10.66180759 784.60913086 9.9699707 C786.72403556 8.99555074 788.84202948 8.02817781 790.9609375 7.0625 C791.91442581 6.62097595 791.91442581 6.62097595 792.88717651 6.17053223 C796.23629312 4.65414212 799.35909704 3.54540191 803 3 C801.83738143 10.88188264 800.23010024 18.43467933 797.9375 26.0625 C797.63658447 27.07691162 797.33566895 28.09132324 797.02563477 29.13647461 C793.60692682 40.52090205 789.90892222 51.81212634 786.01953125 63.04394531 C785.38417629 64.88610956 784.75759894 66.73135389 784.14453125 68.58105469 C783.43717528 70.71120155 782.69552216 72.82496602 781.9375 74.9375 C781.55464844 76.03964844 781.17179688 77.14179688 780.77734375 78.27734375 C776.09425724 85.45121473 764.48268278 87.46552365 756.67016602 90.22836304 C752.62629443 91.65907576 748.58849306 93.10669865 744.55078125 94.5546875 C743.73763458 94.84605087 742.92448792 95.13741425 742.08670044 95.43760681 C734.68858237 98.09614448 727.34014002 100.87303536 720 103.6875 C709.17216333 107.83545471 698.29478485 111.80505962 687.35742188 115.65307617 C681.76219823 117.62700234 676.22441264 119.67933054 670.7277832 121.91235352 C665.44048594 124.02055268 660.09746566 125.98538036 654.76464844 127.97497559 C651.23147002 129.29327306 647.69969689 130.61532304 644.16796875 131.9375 C643.46997162 132.19875671 642.77197449 132.46001343 642.05282593 132.72918701 C633.01994483 136.11265509 624.00802333 139.55098206 615 143 C626.12493318 141.46585504 637.21553174 139.73386414 648.30566406 137.96826172 C651.25810912 137.49871034 654.21106803 137.03248835 657.1640625 136.56640625 C659.07294877 136.2632229 660.98180404 135.95984426 662.890625 135.65625 C663.75753967 135.51973022 664.62445435 135.38321045 665.51763916 135.24255371 C670.6188889 134.42669831 675.68037897 133.4861288 680.74221802 132.45410156 C683.56552532 131.88625743 686.39738724 131.39334955 689.23828125 130.921875 C690.37007812 130.73343018 691.501875 130.54498535 692.66796875 130.35083008 C693.87066406 130.15255615 695.07335937 129.95428223 696.3125 129.75 C697.59125 129.53819092 698.87 129.32638184 700.1875 129.1081543 C704.4577394 128.40180984 708.72878887 127.70044142 713 127 C713.7800238 126.87200012 714.56004761 126.74400024 715.3637085 126.61212158 C720.27126972 125.80713444 725.17926078 125.00482719 730.08773804 124.20544434 C731.67261795 123.94727603 733.2574384 123.68874233 734.8421936 123.42980957 C762.89025741 118.85093019 762.89025741 118.85093019 769 119 C767.01471483 126.09672507 764.57704925 132.88517714 761.75 139.6875 C761.15566162 141.12706055 761.15566162 141.12706055 760.54931641 142.59570312 C756.18847027 153.07577278 751.37829399 163.29392234 746.2890625 173.4375 C745.97042236 174.07365234 745.65178223 174.70980469 745.32348633 175.36523438 C744.54945651 176.91038959 743.77479595 178.45522881 743 180 C719.64569736 181.18251812 696.30533665 182.2171194 672.92382812 182.65795898 C672.12779678 182.67426361 671.33176544 182.69056824 670.51161194 182.70736694 C669.05223814 182.73693817 667.59279282 182.76329057 666.13328552 182.78530884 C662.43068577 182.86108737 658.79124737 183.10123811 655.1081543 183.49560547 C650.08729844 184.02713726 645.10049211 184.21663487 640.0546875 184.31640625 C639.15879913 184.33718735 638.26291077 184.35796844 637.33987427 184.37937927 C634.51831658 184.44401357 631.69667749 184.50335293 628.875 184.5625 C626.94530457 184.60576744 625.01561693 184.64938413 623.0859375 184.69335938 C618.39070533 184.79960464 613.69539252 184.90110612 609 185 C639.81546138 193.63558324 670.68682372 201.39285025 702 208 C703.42532481 208.30225875 704.85061953 208.6046594 706.27587891 208.90722656 C712.84522968 210.29853927 719.41831858 211.66824338 726 213 C724.6290711 216.87124003 722.84579646 219.79871509 720.37109375 223.06640625 C716.04811934 228.88725765 712.04386255 234.87991909 708.0625 240.9375 C702.62198169 249.16413104 697.11314569 257.25668213 691 265 C684.32322838 264.39388172 678.35613601 262.23182875 672.0625 260 C670.91297852 259.59773193 669.76345703 259.19546387 668.57910156 258.78100586 C661.09536695 256.14527354 653.66462741 253.38574263 646.25 250.5625 C634.31321836 246.02486069 622.22436758 241.98955602 610.09368896 238.00556946 C602.67780732 235.56949122 595.27433784 233.09633494 587.87033081 230.62445068 C584.30195411 229.43339129 580.73299411 228.24408287 577.1640625 227.0546875 C575.109375 226.36979167 573.0546875 225.68489583 571 225 C572.34964844 225.82177734 572.34964844 225.82177734 573.7265625 226.66015625 C585.75452449 234.04862495 597.37818034 241.99273722 609 250 C610.46591933 251.00684028 611.93204696 252.01337737 613.3984375 253.01953125 C617.89461401 256.10583449 622.38589127 259.19922999 626.87695312 262.29296875 C628.14608473 263.16705525 629.41537431 264.04091242 630.68481445 264.91455078 C631.97545475 265.80291148 633.26565881 266.69190631 634.55541992 267.58154297 C638.59475138 270.36304483 642.65232214 273.11559886 646.72265625 275.8515625 C647.70991699 276.51768555 648.69717773 277.18380859 649.71435547 277.87011719 C651.65690935 279.18004102 653.60243072 280.48557781 655.55126953 281.78613281 C660.14056706 284.88645091 664.28207758 287.88289012 668 292 C667.64550781 292.40347656 667.29101562 292.80695313 666.92578125 293.22265625 C666.39339844 293.82980469 665.86101563 294.43695313 665.3125 295.0625 C664.66796875 295.79726563 664.0234375 296.53203125 663.359375 297.2890625 C661.63026393 299.27582257 659.91254165 301.26989046 658.203125 303.2734375 C652.08972353 310.41967899 645.84916387 317.43192231 639.4375 324.3125 C638.75888916 325.04782959 638.08027832 325.78315918 637.38110352 326.54077148 C636.73842529 327.22469971 636.09574707 327.90862793 635.43359375 328.61328125 C634.86697021 329.21954346 634.30034668 329.82580566 633.71655273 330.45043945 C631.91788309 332.07412829 630.20796203 333.02509102 628 334 C627.14019531 333.26136719 626.28039062 332.52273438 625.39453125 331.76171875 C621.59981444 328.50376533 617.80090259 325.25073378 614 322 C613.44521973 321.52530273 612.89043945 321.05060547 612.31884766 320.56152344 C588.20867099 299.95950038 562.93840104 281.22254757 537 263 C538.32373984 265.79275877 539.80390274 268.26493873 541.6171875 270.765625 C542.13563232 271.48274658 542.65407715 272.19986816 543.18823242 272.9387207 C543.74486572 273.70144287 544.30149902 274.46416504 544.875 275.25 C545.45290283 276.04559326 546.03080566 276.84118652 546.6262207 277.66088867 C554.77677066 288.85220791 563.10955318 299.90410527 571.57421875 310.859375 C573.20545136 312.97130901 574.8337685 315.08509845 576.45703125 317.203125 C585.74881771 329.32459949 595.14559426 341.3286214 605 353 C603.55093282 356.65008273 601.92871693 357.93194187 598.5625 359.875 C592.94590802 363.3028276 587.66223289 367.08479346 582.375 371 C581.58810791 371.58120605 580.80121582 372.16241211 579.99047852 372.76123047 C579.21760498 373.33502441 578.44473145 373.90881836 577.6484375 374.5 C576.88370117 375.0671875 576.11896484 375.634375 575.33105469 376.21875 C573.71180077 377.45608521 572.12012228 378.73001422 570.55175781 380.03125 C569.76381836 380.6809375 568.97587891 381.330625 568.1640625 382 C567.45975098 382.598125 566.75543945 383.19625 566.02978516 383.8125 C564 385 564 385 561.9128418 384.85375977 C558.6324236 383.38960885 556.52053693 380.58503766 554.1875 377.9375 C553.6527002 377.34404785 553.11790039 376.7505957 552.56689453 376.13916016 C551.03496188 374.43437978 549.51497143 372.71985428 548 371 C547.01580078 369.88431641 547.01580078 369.88431641 546.01171875 368.74609375 C544.93669371 367.51712718 543.86622139 366.28416032 542.80078125 365.046875 C539.59313361 361.40087204 536.25702486 357.86817265 532.94140625 354.3203125 C531 352 531 352 531 350 C530.34 350 529.68 350 529 350 C527.66015625 348.70703125 527.66015625 348.70703125 526.0625 346.8125 C525.134375 345.72001953 525.134375 345.72001953 524.1875 344.60546875 C523.465625 343.74566406 522.74375 342.88585937 522 342 C521.12577669 340.97459773 520.25073259 339.94989484 519.375 338.92578125 C512.84560999 331.27454623 506.44164343 323.53844809 500.35546875 315.52734375 C499.90244385 314.93244141 499.44941895 314.33753906 498.98266602 313.72460938 C498.09261334 312.55302413 497.20624146 311.37863141 496.32397461 310.20117188 C494.0776302 307.1314035 494.0776302 307.1314035 491 305 C490.5978125 305.86625 490.5978125 305.86625 490.1875 306.75 C488.97070811 309.05550043 487.69666121 311.02056192 486 313 C485.34 313 484.68 313 484 313 C483.72365723 313.5887793 483.44731445 314.17755859 483.16259766 314.78417969 C482.05942157 316.88674713 480.8740704 318.60000462 479.3984375 320.453125 C478.90859375 321.071875 478.41875 321.690625 477.9140625 322.328125 C477.40617187 322.96234375 476.89828125 323.5965625 476.375 324.25 C475.859375 324.8996875 475.34375 325.549375 474.8125 326.21875 C473.54485821 327.81503967 472.27285639 329.40786526 471 331 C473.26903452 334.9726462 475.8783391 338.5871701 478.6875 342.1875 C479.35060181 343.04287354 479.35060181 343.04287354 480.02709961 343.91552734 C483.9665745 348.98512712 487.95828473 354.01150497 492 359 C493.04414062 360.28970703 493.04414062 360.28970703 494.109375 361.60546875 C498.18710503 366.61587108 502.31922985 371.57564327 506.5 376.5 C511.40153028 382.27889655 516.26990905 388.07905868 521 394 C521.42152344 394.52577637 521.84304688 395.05155273 522.27734375 395.59326172 C523.57248589 397.2193953 524.85086355 398.85737552 526.125 400.5 C526.89070312 401.4796875 527.65640625 402.459375 528.4453125 403.46875 C529.21488281 404.72171875 529.21488281 404.72171875 530 406 C529 409 529 409 526.80688477 410.25854492 C525.86127686 410.66177979 524.91566895 411.06501465 523.94140625 411.48046875 C522.91595703 411.92197266 521.89050781 412.36347656 520.83398438 412.81835938 C519.75439453 413.27017578 518.67480469 413.72199219 517.5625 414.1875 C516.48677734 414.65091797 515.41105469 415.11433594 514.30273438 415.59179688 C506.30675856 419 506.30675856 419 504 419 C508.10406258 424.82243024 512.69405407 430.06648906 517.51953125 435.30078125 C520.74524323 438.81096546 523.88074593 442.39529911 527 446 C532.70251779 444.24830839 538.0992362 441.87335402 543.5625 439.5 C545.41773994 438.69738756 547.27320161 437.89528743 549.12890625 437.09375 C549.94431885 436.73990234 550.75973145 436.38605469 551.59985352 436.02148438 C558.22882512 433.20024369 564.15136856 431.19018097 571.25 433.83984375 C576.34583954 436.70625349 580.1922401 440.36748883 582 446 C582.98130089 454.99211293 582.42069599 463.52970516 579 472 C575.58599897 468.68641076 572.50128927 465.26615364 569.52734375 461.55078125 C566.74327882 458.7239941 564.42271399 458.04529078 560.5 457.625 C555.54885843 457.71841777 551.14931224 459.44430136 546.5390625 461.125 C544 462 544 462 542 462 C542.37769531 462.41507813 542.75539063 462.83015625 543.14453125 463.2578125 C545.12836464 465.47859086 547.06257851 467.73857287 549 470 C549.46567383 470.52529297 549.93134766 471.05058594 550.41113281 471.59179688 C560.71127366 483.27733678 560.71127366 483.27733678 560.9375 489.1875 C560.62890625 491.5625 560.62890625 491.5625 560 494 C559.76152344 494.928125 559.52304687 495.85625 559.27734375 496.8125 C556.56667031 505.44910455 552.78079781 510.76473776 544.75 515 C542.171875 516.25 542.171875 516.25 540 517 C539.34 516.67 538.68 516.34 538 516 C538.33 514.948125 538.66 513.89625 539 512.8125 C540.95027903 504.6357746 541.65677785 496.81630064 537.125 489.4375 C532.76235099 483.36383259 527.89786354 477.64683261 523 472 C515.58659359 473.04395563 509.35299207 477.95862782 504.625 483.625 C501.01093719 488.8202153 499.5699933 494.94167292 498 501 C492.21517949 498.38093841 487.54910031 493.99850302 485 488.125 C483.62374147 483.61296255 483.43946931 479.48554549 485 475 C487.04970537 472.0244486 489.47188969 469.56770041 492 467 C492.86625 465.700625 492.86625 465.700625 493.75 464.375 C497.43809398 460.48201191 502.24473872 458.38582937 507 456 C505.08860479 451.2330264 501.30321378 447.88516287 497.8125 444.24609375 C494 440.20161624 494 440.20161624 494 438 C493.01 437.67 492.02 437.34 491 437 C489.15500602 435.12382302 487.6316401 433.07262391 486 431 C482.44781017 431.65261162 479.91298358 433.14448947 476.875 435.0625 C472.21647059 438 472.21647059 438 470 438 C468.62508701 436.49212839 467.32635538 434.91460239 466.0625 433.3125 C465.25941406 432.30832031 464.45632813 431.30414062 463.62890625 430.26953125 C463.20109863 429.73408691 462.77329102 429.19864258 462.33251953 428.64697266 C460.10266886 425.89091318 457.79975175 423.19774698 455.5 420.5 C450.59350836 414.72540403 445.78190138 408.87828089 441 403 C439.31377838 400.93645121 437.62557579 398.8745333 435.9375 396.8125 C434.625 395.20833333 433.3125 393.60416667 432 392 C441.30052562 427.74059131 454.54172207 462.82955422 468.62841797 496.92895508 C470.13156157 500.6054106 471.41879818 504.04154436 472 508 C469.38599498 510.13873138 466.77175633 512.27716686 464.15625 514.4140625 C462.10829731 516.08908553 460.06819366 517.77241841 458.03125 519.4609375 C457.0928125 520.23695313 456.154375 521.01296875 455.1875 521.8125 C454.33542969 522.52019531 453.48335937 523.22789062 452.60546875 523.95703125 C449.82003111 526.14111504 446.96703218 528.07251194 444 530 C436.44702198 513.98022686 430.13757073 497.599614 424 481 C424.42907977 485.87578101 424.86723808 490.75067449 425.3125 495.625 C425.41179306 496.71328094 425.41179306 496.71328094 425.51309204 497.82354736 C426.439933 507.89797831 427.52281388 517.92072286 429.08520508 527.92041016 C431.37003749 543.08213512 431.37003749 543.08213512 428.57373047 546.99658203 C426.79377034 548.76804339 424.90894297 550.3691314 423 552 C421.87180759 553.22835903 420.76782205 554.47933549 419.6875 555.75 C415.90090588 560.14900456 411.9730032 564.41296631 408.0390625 568.6796875 C405.98422672 570.81946882 405.98422672 570.81946882 405 573 C401.4923497 572.43672769 400.10607387 571.38617341 397.8984375 568.640625 C397.3300415 567.94380615 396.76164551 567.2469873 396.17602539 566.52905273 C395.58168701 565.77696533 394.98734863 565.02487793 394.375 564.25 C393.76197021 563.47793213 393.14894043 562.70586426 392.51733398 561.91040039 C391.27191195 560.34124331 390.02865319 558.77036675 388.78759766 557.19775391 C386.79554452 554.74863313 384.69612287 552.44185388 382.4987793 550.17651367 C379.4163209 546.44434451 377.11103901 543.51461101 376.74951172 538.58325195 C376.87084473 537.35566162 376.99217773 536.12807129 377.1171875 534.86328125 C377.17857407 534.17941345 377.23996063 533.49554565 377.3032074 532.79095459 C377.51281978 530.52448606 377.75588503 528.26299267 378 526 C378.15946753 524.37117513 378.31722549 522.7421821 378.47338867 521.11303711 C378.97321439 515.98876012 379.5149919 510.869369 380.0625 505.75 C380.34259579 503.11695479 380.62167769 500.4838153 380.89830017 497.85040283 C381.06866854 496.22969442 381.2410568 494.60919663 381.41578674 492.98895264 C381.77001366 489.62961058 382 486.3829715 382 483 C381.70867187 483.75394043 381.41734375 484.50788086 381.1171875 485.28466797 C375.41310032 500.01349999 369.62294964 514.65343861 363 529 C359.07641948 527.3838585 356.28614253 524.68663778 353.25 521.8125 C352.1816 520.81705278 351.11258858 519.82226139 350.04296875 518.828125 C349.52395996 518.34408203 349.00495117 517.86003906 348.47021484 517.36132812 C343.81054228 513.04675917 339.00448154 508.90975121 334 505 C334.57278117 501.63958604 335.38795766 498.8489932 336.8984375 495.796875 C337.28950684 494.99531982 337.68057617 494.19376465 338.08349609 493.36791992 C338.50969238 492.50400635 338.93588867 491.64009277 339.375 490.75 C354.29357629 459.85802583 368.45030542 427.83291639 375 394 C367.70865072 401.68547627 360.56497812 409.36566047 353.94921875 417.64453125 C351.68379406 420.38210858 349.24847362 422.84645232 346.69140625 425.30859375 C344.19476968 427.80523032 341.94248961 430.49822242 339.67578125 433.203125 C337.92842764 435.07674426 336.0894138 436.52511967 334 438 C333.38511719 437.55527344 332.77023437 437.11054687 332.13671875 436.65234375 C331.32847656 436.08644531 330.52023437 435.52054688 329.6875 434.9375 C328.88699219 434.36902344 328.08648437 433.80054688 327.26171875 433.21484375 C326.51535156 432.81394531 325.76898438 432.41304687 325 432 C319.28805736 433.90398088 315.39436836 439.67321724 311.375 444.0625 C310.89804687 444.57876953 310.42109375 445.09503906 309.9296875 445.62695312 C307.92933236 447.80789588 306.02198034 449.96953866 304.2890625 452.37109375 C303.86367188 452.90863281 303.43828125 453.44617188 303 454 C302.34 454 301.68 454 301 454 C301 454.66 301 455.32 301 456 C302.2065625 456.309375 302.2065625 456.309375 303.4375 456.625 C309.63395249 459.01661324 315.34964499 461.94461498 318.4375 468.0625 C318.98795669 469.3628542 319.50782629 470.67648625 320 472 C320.35191406 472.79792969 320.70382812 473.59585937 321.06640625 474.41796875 C322.98438516 479.72250457 323.20945216 485.41224359 320.796875 490.57421875 C318.30250906 494.38505561 315.53464268 498.09654351 312 501 C311.34 501 310.68 501 310 501 C309.86464844 500.32195312 309.72929687 499.64390625 309.58984375 498.9453125 C307.3508319 489.26527324 303.4635685 481.8133551 294.875 476.4375 C291.59508877 474.58796539 288.71973264 473.58906798 285 473 C282.3860917 476.12821896 279.81343957 479.28583279 277.26220703 482.46533203 C276.087319 483.89383226 274.85604816 485.27544056 273.62109375 486.65234375 C268.14291573 493.16931761 267.19792923 497.9585847 267.62109375 506.421875 C267.996193 509.96404936 268.4628126 513.47893974 269 517 C260.94514273 515.37784124 256.77577384 511.55123799 252 505 C249.82529609 501.35210957 248.48986831 498.21286744 248 494 C247.88914062 493.36449219 247.77828125 492.72898437 247.6640625 492.07421875 C246.98849155 485.51652144 249.5798113 481.89954912 253.5546875 476.86328125 C257.59291633 472.13481203 261.73127412 467.52240017 266 463 C258.86449376 460.03262313 251.83558456 457.49771894 244 458 C237.67110758 460.86591355 232.90436647 466.75287212 230 473 C229.34 473 228.68 473 228 473 C227.49236135 470.31374546 226.99372803 467.62631617 226.5 464.9375 C226.35691406 464.18533203 226.21382812 463.43316406 226.06640625 462.65820312 C224.37004895 453.32823798 224.71372661 446.92941008 230.125 438.8125 C233.46455232 435.1261099 237.22460217 433.25384626 242 432 C250.8402199 431.64693685 258.00076498 434.20456811 265.875 437.9375 C267.85062549 438.8444917 269.82716172 439.74950277 271.8046875 440.65234375 C273.15965332 441.27665283 273.15965332 441.27665283 274.54199219 441.91357422 C277.30855959 443.13638162 280.10021711 444.13989491 283 445 C295.3046786 432.98120801 295.3046786 432.98120801 305 419 C304.28432861 418.88664307 303.56865723 418.77328613 302.83129883 418.65649414 C299.81760845 417.95770881 297.45342166 416.89735488 294.69921875 415.49609375 C293.72275391 415.00302734 292.74628906 414.50996094 291.74023438 414.00195312 C290.73283203 413.48568359 289.72542969 412.96941406 288.6875 412.4375 C287.66076172 411.91736328 286.63402344 411.39722656 285.57617188 410.86132812 C283.0479854 409.57959638 280.522776 408.29233939 278 407 C279.23208826 403.62679833 280.58020469 400.95496152 282.80078125 398.13671875 C283.35902588 397.42314209 283.91727051 396.70956543 284.49243164 395.97436523 C285.0930542 395.21969971 285.69367676 394.46503418 286.3125 393.6875 C286.93697021 392.89351807 287.56144043 392.09953613 288.20483398 391.28149414 C292.79455738 385.46460293 297.46705007 379.7165757 302.16210938 373.98461914 C306.71969242 368.3993594 311.10398442 362.6913657 315.46362305 356.95092773 C318.98075184 352.32153994 322.55798658 347.75000385 326.2109375 343.2265625 C329.18809354 339.52136831 332.09097796 335.75873283 335 332 C334.63865967 331.51966309 334.27731934 331.03932617 333.9050293 330.54443359 C331.2198217 326.97020165 328.54514709 323.38903931 325.89453125 319.7890625 C325.13172852 318.75845703 325.13172852 318.75845703 324.35351562 317.70703125 C323.31081324 316.29825971 322.27184981 314.88671436 321.23632812 313.47265625 C320.73166016 312.79332031 320.22699219 312.11398437 319.70703125 311.4140625 C319.03377808 310.50068115 319.03377808 310.50068115 318.34692383 309.56884766 C316.89529693 307.73522049 316.89529693 307.73522049 314 306 C307.7507018 312.81070087 301.80428081 319.80795921 296 327 C286.71971336 338.46090044 277.19532486 349.67267141 267.23828125 360.55078125 C261.91427108 366.3765306 256.88287455 372.33298235 252.08984375 378.60546875 C249.60983244 381.44705181 246.94545367 383.64781501 244 386 C243.33133911 385.46596558 243.33133911 385.46596558 242.64916992 384.92114258 C233.10134101 377.32442872 223.4232165 370.05702644 213.28393555 363.26489258 C209.38486242 360.65196477 205.60966631 358.01165772 202 355 C202.57094302 351.17641187 204.23511428 349.37762105 206.875 346.625 C210.63077144 342.577113 214.11907245 338.42110233 217.5 334.0625 C220.8374481 329.76006257 224.20920135 325.50322126 227.6875 321.3125 C231.22108258 317.01860512 234.51344315 312.60521164 237.74609375 308.08203125 C239.37335424 305.85688649 241.020267 303.67748718 242.72265625 301.51171875 C253.19121718 288.15866847 262.57575098 274.0982217 272 260 C269.15798141 261.32883784 266.76778831 262.82671105 264.3046875 264.765625 C263.59787842 265.31887451 262.89106934 265.87212402 262.1628418 266.44213867 C261.407854 267.03873291 260.65286621 267.63532715 259.875 268.25 C258.25406081 269.52233235 256.63296251 270.79446202 255.01171875 272.06640625 C254.1820459 272.71883301 253.35237305 273.37125977 252.49755859 274.04345703 C250.09664678 275.92428863 247.68569251 277.79115793 245.26953125 279.65234375 C237.3142938 285.7851025 229.49489775 292.0183638 221.87109375 298.55859375 C219.30605217 300.73975156 216.70512136 302.85167082 214.0625 304.9375 C209.35390194 308.66768808 204.80784305 312.5695812 200.26000977 316.4921875 C195.73171031 320.39143621 191.1416348 324.20076803 186.5 327.96484375 C183.64718062 330.28721702 180.82259173 332.64100255 178 335 C175.64351776 332.50217427 173.29025984 330.00133185 170.9375 327.5 C170.28072266 326.80390625 169.62394531 326.1078125 168.94726562 325.390625 C165.07747581 321.27301613 161.300091 317.09368933 157.59643555 312.82617188 C155.42350872 310.34054828 153.18082716 307.9220638 150.9375 305.5 C146.99801279 301.18761476 143.36447854 296.77318297 140 292 C141.52337851 287.83512967 144.10108194 286.32004041 147.765625 283.98046875 C148.34682602 283.60514511 148.92802704 283.22982147 149.52684021 282.84312439 C150.77767262 282.03662046 152.03123003 281.23433024 153.28720093 280.43585205 C155.94002604 278.74863927 158.57882796 277.04007964 161.2183075 275.33209229 C162.55729209 274.46568749 163.89690513 273.60025319 165.23713684 272.73577881 C186.84988045 258.78260283 207.65669037 243.73387618 228 228 C223.71700796 228 220.58320471 229.05648581 216.6484375 230.52734375 C215.56381981 230.92366249 215.56381981 230.92366249 214.45729065 231.32798767 C212.90321063 231.89648129 211.35016609 232.46781205 209.79806519 233.04168701 C205.71244728 234.55214971 201.61947423 236.04244817 197.52734375 237.53515625 C196.30196648 237.98308533 196.30196648 237.98308533 195.05183411 238.44006348 C188.04049151 240.99841338 180.99884303 243.45776316 173.9375 245.875 C166.77725928 248.32945344 159.64960716 250.84176043 152.5625 253.5 C140.49900988 258.02212995 128.23783525 261.98019295 116 266 C107.36702013 254.42229607 99.09335644 242.60713788 90.89257812 230.72021484 C89.61805878 228.8883399 88.32996876 227.06584098 87.02929688 225.25244141 C86.40603516 224.38151855 85.78277344 223.5105957 85.140625 222.61328125 C84.58407227 221.84411377 84.02751953 221.07494629 83.45410156 220.2824707 C81.95400257 217.92779886 80.9517119 215.61894232 80 213 C90.53107301 209.73522291 101.09758354 207.32114095 111.9375 205.3125 C141.22406448 199.84579632 170.23853644 192.74843289 199 185 C197.97946533 184.98541748 196.95893066 184.97083496 195.9074707 184.95581055 C168.56075682 184.54450881 141.23918299 183.66709387 113.91140366 182.60116959 C111.3207351 182.50032057 108.73002836 182.40050466 106.13931274 182.3008728 C101.99528568 182.14108378 97.85140226 181.97796125 93.70761108 181.81217003 C92.17090948 181.75093346 90.63417714 181.69046209 89.09741211 181.63083839 C84.39675996 181.44760243 79.69834802 181.23646803 75 181 C73.81563858 180.94536087 72.63127716 180.89072174 71.411026 180.83442688 C69.79193581 180.73619881 69.79193581 180.73619881 68.14013672 180.63598633 C67.20426727 180.58324051 66.26839783 180.53049469 65.3041687 180.47615051 C63 180 63 180 60.39453125 177.10546875 C59.55883789 175.24194336 59.55883789 175.24194336 58.8125 173.1875 C58.50755615 172.47537354 58.2026123 171.76324707 57.88842773 171.02954102 C57.23300649 169.49437528 56.59690458 167.95084409 55.97851562 166.40039062 C54.99772623 163.99442223 53.93274268 161.64832745 52.828125 159.296875 C48.53722663 150.13776076 44.62408823 140.8304879 40.875 131.4375 C40.47224854 130.44355225 40.06949707 129.44960449 39.65454102 128.42553711 C39.29158936 127.5000708 38.9286377 126.57460449 38.5546875 125.62109375 C38.22968262 124.8005249 37.90467773 123.97995605 37.56982422 123.13452148 C37 121 37 121 38 118 C38.62189209 118.10739502 39.24378418 118.21479004 39.88452148 118.32543945 C49.27440074 119.92003997 58.690877 121.32598017 68.10891724 122.74252319 C85.10760696 125.30348839 102.09336582 127.93739381 119.0625 130.6875 C120.35004684 130.89468155 120.35004684 130.89468155 121.66360474 131.10604858 C131.92666169 132.76000873 142.14484267 134.57407587 152.35101318 136.54905701 C160.4805742 138.11375967 168.63496544 139.46328254 176.8125 140.75 C178.21033298 140.97236402 179.60811948 141.19502037 181.00585938 141.41796875 C184.33671764 141.94864026 187.66816278 142.47550517 191 143 C190.12661987 142.67914429 190.12661987 142.67914429 189.2355957 142.35180664 C174.33501441 136.870496 159.4710506 131.29725263 144.62341309 125.67428589 C128.1998817 119.45494291 111.75632169 113.30468198 95.2570343 107.28875732 C86.22954003 103.99346668 77.21717407 100.65695978 68.20309448 97.32519531 C66.18439087 96.57906174 64.16561488 95.83312393 62.14675903 95.08740234 C61.18575287 94.73242676 60.2247467 94.37745117 59.23461914 94.01171875 C57.81866203 93.48924057 57.81866203 93.48924057 56.37409973 92.95620728 C54.52091777 92.26997657 52.66914874 91.57991677 50.81889343 90.88583374 C46.63588482 89.31946673 42.45496293 87.80284549 38.20214844 86.43603516 C26.5336742 82.60973855 26.5336742 82.60973855 24.29296875 78.4140625 C23.81713743 76.9565922 23.3905325 75.48260563 23 74 C22.25454687 72.04623292 21.49979305 70.0960016 20.73828125 68.1484375 C19.92206552 65.8933692 19.11389128 63.63537899 18.3125 61.375 C17.88114746 60.16384521 17.44979492 58.95269043 17.00537109 57.70483398 C12.5534095 45.08003714 8.74667821 32.27510617 5.01269531 19.42236328 C3.64762795 14.80917275 2.19489587 10.22469961 0.72998047 5.64233398 C0 3 0 3 0 0 Z " fill="#CCAB77" transform="translate(109,209)"/>
<path d="M0 0 C1.59242535 0.02010392 3.18487533 0.03834779 4.77734375 0.0546875 C8.64384689 0.09835706 12.50914576 0.16716482 16.375 0.25 C20.21578124 7.64116458 23.61191458 15.19893329 26.87915039 22.85742188 C27.6989907 24.77690302 28.52600566 26.69318971 29.35351562 28.609375 C29.87236328 29.82109375 30.39121094 31.0328125 30.92578125 32.28125 C31.39669189 33.38017578 31.86760254 34.47910156 32.3527832 35.61132812 C33.375 38.25 33.375 38.25 33.375 40.25 C32.38687317 40.26759872 32.38687317 40.26759872 31.37878418 40.28555298 C24.49913259 40.41379632 17.62132019 40.58272115 10.74316406 40.77490234 C8.1789582 40.84125708 5.61446528 40.89736588 3.04980469 40.94287109 C-0.64512008 41.01023396 -4.33743164 41.11486313 -8.03125 41.2265625 C-9.7410907 41.24573227 -9.7410907 41.24573227 -11.48547363 41.26528931 C-18.87957916 41.53619701 -23.35034858 42.96135746 -28.625 48.25 C-30.61803378 50.47884398 -30.61803378 50.47884398 -31.9375 52.75 C-32.41058594 53.51183594 -32.88367188 54.27367187 -33.37109375 55.05859375 C-34.90941054 57.74705394 -36.3269693 60.43760014 -37.625 63.25 C-37.955 63.25 -38.285 63.25 -38.625 63.25 C-43.17985658 22.11697998 -43.17985658 22.11697998 -34.625 11.25 C-25.12770584 -0.32403582 -13.90083769 -0.30691289 0 0 Z " fill="#CCAC78" transform="translate(433.625,255.75)"/>
<path d="M0 0 C2.28355884 0.00187007 4.5671181 0.00329118 6.85067749 0.00428772 C12.79839223 0.00806659 18.74608171 0.01785612 24.69378662 0.0289917 C30.78804177 0.03930658 36.88230109 0.04380671 42.9765625 0.04882812 C54.8880318 0.05948356 66.79948253 0.0765028 78.7109375 0.09765625 C77.03795267 2.1651213 76.16866085 3.02450179 73.49894428 3.45118237 C72.19783349 3.43597278 72.19783349 3.43597278 70.87043762 3.42045593 C69.87344345 3.41616577 68.87644928 3.41187561 67.84924316 3.40745544 C66.75664185 3.38731888 65.66404053 3.36718231 64.53833008 3.34643555 C62.81129097 3.33246231 62.81129097 3.33246231 61.04936218 3.31820679 C57.23443561 3.28376505 53.42013474 3.22788142 49.60546875 3.171875 C46.96418092 3.14385008 44.32287863 3.11715881 41.68156433 3.0917511 C35.43410805 3.0294001 29.18694247 2.95162628 22.93973416 2.86833078 C15.82746893 2.77425079 8.71505063 2.6973341 1.60256732 2.62186944 C-13.02822054 2.46624918 -27.65869935 2.28904087 -42.2890625 2.09765625 C-42.2890625 1.76765625 -42.2890625 1.43765625 -42.2890625 1.09765625 C-28.18280757 0.11266291 -14.13663863 -0.0344746 0 0 Z " fill="#D8BC82" transform="translate(507.2890625,232.90234375)"/>
<path d="M0 0 C5.90086946 0.58691444 10.97653545 2.26334373 16.5 4.375 C17.31597656 4.67921875 18.13195312 4.9834375 18.97265625 5.296875 C23.70649039 7.07491222 28.36854377 8.97062536 33 11 C29.27891273 12.24036242 27.08025465 11.70979199 23.21484375 11.07421875 C22.55795059 10.96656693 21.90105743 10.8589151 21.22425842 10.7480011 C19.83762278 10.51864433 18.45159626 10.28557843 17.06616211 10.04907227 C14.94362606 9.68854057 12.81885956 9.34452188 10.69335938 9.00195312 C9.34618836 8.77703252 7.99917696 8.5511534 6.65234375 8.32421875 C5.42507568 8.11885498 4.19780762 7.91349121 2.93334961 7.7019043 C0 7 0 7 -2 5 C-0.35 4.67 1.3 4.34 3 4 C3 3.01 3 2.02 3 1 C2.01 0.67 1.02 0.34 0 0 Z " fill="#59180F" transform="translate(269,341)"/>
<path d="M0 0 C4.32199042 1.35812546 6.27772511 3.1035373 9 6.6875 C10.0209375 8.01974609 10.0209375 8.01974609 11.0625 9.37890625 C13.41466303 12.56096551 15.74021009 15.75155201 18 19 C17.67 19.66 17.34 20.32 17 21 C16.01 20.67 15.02 20.34 14 20 C13.67 20.99 13.34 21.98 13 23 C10.93063746 20.33563469 9.15565409 17.65597513 7.51953125 14.70703125 C7.07802734 13.91232422 6.63652344 13.11761719 6.18164062 12.29882812 C5.72982422 11.47833984 5.27800781 10.65785156 4.8125 9.8125 C4.34908203 8.98041016 3.88566406 8.14832031 3.40820312 7.29101562 C0 1.13215666 0 1.13215666 0 0 Z " fill="#D3B67F" transform="translate(461,263)"/>
<path d="M0 0 C0.33 0 0.66 0 1 0 C0.49920885 10.76700962 -0.40127988 21.33669204 -2 32 C-2.33 32 -2.66 32 -3 32 C-3 27.71 -3 23.42 -3 19 C-4.65 20.65 -6.3 22.3 -8 24 C-7.39461212 20.64048698 -6.56675919 17.55115637 -5.37109375 14.35546875 C-4.90219727 13.09379883 -4.90219727 13.09379883 -4.42382812 11.80664062 C-4.09833984 10.94232422 -3.77285156 10.07800781 -3.4375 9.1875 C-3.10814453 8.30384766 -2.77878906 7.42019531 -2.43945312 6.50976562 C-1.62965399 4.33856505 -0.81641107 2.16872111 0 0 Z " fill="#54150D" transform="translate(491,689)"/>
<path d="M0 0 C-0.66 0.66 -1.32 1.32 -2 2 C5.92 1.505 5.92 1.505 14 1 C11.28269867 3.71730133 9.15917209 3.68901084 5.3828125 4.32421875 C4.72924774 4.43474075 4.07568298 4.54526276 3.40231323 4.65913391 C2.01935956 4.89076025 0.63571498 5.118293 -0.74853516 5.34204102 C-2.86190846 5.68537319 -4.97184942 6.04583125 -7.08203125 6.40820312 C-8.42691131 6.63124805 -9.77195877 6.85328642 -11.1171875 7.07421875 C-12.34034668 7.27619873 -13.56350586 7.47817871 -14.82373047 7.6862793 C-17.63952951 7.96439627 -19.37098505 7.93426114 -22 7 C-3.49855908 -1.74927954 -3.49855908 -1.74927954 0 0 Z " fill="#52110A" transform="translate(745,345)"/>
<path d="M0 0 C1.5 1.375 1.5 1.375 3 3 C3 3.66 3 4.32 3 5 C-13.5 5 -30 5 -47 5 C-47 4.67 -47 4.34 -47 4 C-31.49 3.34 -15.98 2.68 0 2 C0 1.34 0 0.68 0 0 Z " fill="#DCC286" transform="translate(464,291)"/>
<path d="M0 0 C0 4.08481881 -1.70119331 5.84704653 -4 9.1875 C-4.7425 10.27417969 -5.485 11.36085938 -6.25 12.48046875 C-6.8275 13.31191406 -7.405 14.14335937 -8 15 C-8.33 14.01 -8.66 13.02 -9 12 C-9.66 11.67 -10.32 11.34 -11 11 C-8.55226831 5.79857016 -4.59788619 3.17811135 0 0 Z " fill="#5D1E13" transform="translate(381,467)"/>
<path d="M0 0 C5.17609824 3.28157862 9.85989729 6.45924219 14 11 C13.360625 11.12375 12.72125 11.2475 12.0625 11.375 C11.381875 11.58125 10.70125 11.7875 10 12 C9.67 12.66 9.34 13.32 9 14 C7.49412261 12.04594482 5.99521356 10.08718716 4.5 8.125 C4.07074219 7.56941406 3.64148438 7.01382812 3.19921875 6.44140625 C0 2.2265625 0 2.2265625 0 0 Z " fill="#5A1B10" transform="translate(644,470)"/>
<path d="M0 0 C10.55808656 3.07517084 10.55808656 3.07517084 15 5 C14.34 5.66 13.68 6.32 13 7 C15.64 8.65 18.28 10.3 21 12 C20.01 12.33 19.02 12.66 18 13 C15.3797069 11.5010035 12.96730939 9.97006712 10.5 8.25 C9.82324219 7.79367187 9.14648438 7.33734375 8.44921875 6.8671875 C5.36232546 4.76055027 2.58986064 2.7100901 0 0 Z " fill="#51120B" transform="translate(679,433)"/>
<path d="M0 0 C2 2 2 2 2.01171875 4.8984375 C1.90472656 6.04570313 1.79773438 7.19296875 1.6875 8.375 C1.58824219 9.51710938 1.48898437 10.65921875 1.38671875 11.8359375 C1.0827845 14.32267223 0.69153712 16.60030708 0 19 C2.31 18.34 4.62 17.68 7 17 C4.3401439 20.44216672 1.09711714 20.99504674 -3 22 C-2.690625 20.783125 -2.38125 19.56625 -2.0625 18.3125 C-0.70131794 12.26923779 -0.36241197 6.17054072 0 0 Z " fill="#DFC58A" transform="translate(650,704)"/>
<path d="M0 0 C0 4.39895123 -2.79621101 6.36507664 -5.6875 9.375 C-6.48317383 10.22191406 -6.48317383 10.22191406 -7.29492188 11.0859375 C-10.46999924 14.45190909 -13.71301825 17.74350973 -17 21 C-17.66 20.67 -18.32 20.34 -19 20 C-18.25556641 19.27296875 -18.25556641 19.27296875 -17.49609375 18.53125 C-13.32648769 14.4170277 -9.36261584 10.20585548 -5.54296875 5.765625 C-3.78203656 3.75058361 -1.93026669 1.85305602 0 0 Z " fill="#53100A" transform="translate(760,520)"/>
<path d="M0 0 C0.66 0.66 1.32 1.32 2 2 C2.66 1.34 3.32 0.68 4 0 C4.18451025 12.66970387 4.18451025 12.66970387 3 18 C2.67 18 2.34 18 2 18 C2 13.71 2 9.42 2 5 C0.35 6.65 -1.3 8.3 -3 10 C-2.39009109 6.44219804 -1.4216319 3.3171411 0 0 Z " fill="#510D07" transform="translate(486,703)"/>
<path d="M0 0 C-1.24196122 1.15454162 -2.49392845 2.29832562 -3.75 3.4375 C-4.79414063 4.39462891 -4.79414063 4.39462891 -5.859375 5.37109375 C-7.98792725 6.99081325 -9.39023405 7.58267256 -12 8 C-12 5.1875 -12 5.1875 -11 2 C-7.28613886 -0.3482261 -4.20125333 -1.40041778 0 0 Z " fill="#59190F" transform="translate(339,436)"/>
<path d="M0 0 C-0.33 0.99 -0.66 1.98 -1 3 C-2.74784829 3.36463732 -4.49840502 3.7163078 -6.25 4.0625 C-7.71179688 4.35833984 -7.71179688 4.35833984 -9.203125 4.66015625 C-11.868119 4.98397535 -13.48871723 4.85503199 -16 4 C-14.27921959 3.1290621 -12.54793677 2.27885442 -10.8125 1.4375 C-9.84957031 0.96183594 -8.88664063 0.48617188 -7.89453125 -0.00390625 C-4.72281223 -1.0953885 -3.16301775 -0.96567452 0 0 Z " fill="#61271A" transform="translate(739,348)"/>
<path d="M0 0 C2.66666667 2.66666667 5.33333333 5.33333333 8 8 C7.67 8.66 7.34 9.32 7 10 C6.01 9.34 5.02 8.68 4 8 C3.67 8.99 3.34 9.98 3 11 C2.49632243 9.54293274 1.99717444 8.08429904 1.5 6.625 C1.2215625 5.81289063 0.943125 5.00078125 0.65625 4.1640625 C0 2 0 2 0 0 Z " fill="#53140D" transform="translate(540,600)"/>
<path d="M0 0 C1.1446875 0.12375 1.1446875 0.12375 2.3125 0.25 C-2.3125 6.125 -2.3125 6.125 -5.6875 7.25 C-5.6875 4.25 -5.6875 4.25 -4.5 2.0625 C-2.6875 0.25 -2.6875 0.25 0 0 Z " fill="#C2A06D" transform="translate(607.6875,670.75)"/>
<path d="M0 0 C3.96 0 7.92 0 12 0 C8.52630934 1.73684533 6.92380063 2.30084112 3.25 2.625 C2.45078125 2.69976562 1.6515625 2.77453125 0.828125 2.8515625 C0.22484375 2.90054687 -0.3784375 2.94953125 -1 3 C-0.67 2.01 -0.34 1.02 0 0 Z " fill="#4D0F0A" transform="translate(300,393)"/>
<path d="M0 0 C2.97 0.495 2.97 0.495 6 1 C5.01 2.485 5.01 2.485 4 4 C3.97250522 6.06910593 3.97250522 6.06910593 4.375 8.1875 C4.58125 9.445625 4.7875 10.70375 5 12 C2.43470546 10.71735273 2.33500137 9.77227651 1.375 7.125 C1.11460937 6.42632812 0.85421875 5.72765625 0.5859375 5.0078125 C0 3 0 3 0 0 Z " fill="#DBC287" transform="translate(146,327)"/>
<path d="M0 0 C0 4.03066816 -1.67283027 5.78303008 -4 9 C-4.66 9.66 -5.32 10.32 -6 11 C-6.99 10.67 -7.98 10.34 -9 10 C-6.03 6.7 -3.06 3.4 0 0 Z " fill="#54120B" transform="translate(417,521)"/>
<path d="M0 0 C0.66 0.33 1.32 0.66 2 1 C-0.37797003 3.62828266 -2.95329341 5.216562 -6 7 C-7.34631825 7.98244845 -8.68441297 8.97676564 -10 10 C-8.5741914 6.54804233 -6.90253666 4.8985744 -3.875 2.75 C-3.15054688 2.22921875 -2.42609375 1.7084375 -1.6796875 1.171875 C-1.12539063 0.78515625 -0.57109375 0.3984375 0 0 Z " fill="#510D08" transform="translate(624,683)"/>
<path d="M0 0 C0.98120464 3.05263664 0.98120464 4.94736336 0 8 C-0.66 8 -1.32 8 -2 8 C-2.66 9.32 -3.32 10.64 -4 12 C-3.45660208 7.43545749 -2.20536179 4.0271824 0 0 Z " fill="#D5B77F" transform="translate(460,675)"/>
<path d="M0 0 C0.33 0.66 0.66 1.32 1 2 C-1.31 4.64 -3.62 7.28 -6 10 C-6.66 9.67 -7.32 9.34 -8 9 C-5.36 6.03 -2.72 3.06 0 0 Z " fill="#54130C" transform="translate(385,559)"/>
<path d="M0 0 C0.66 0.33 1.32 0.66 2 1 C2 3.46459429 1.61187038 5.61370553 1 8 C0.01 8.495 0.01 8.495 -1 9 C-1 8.01 -1 7.02 -1 6 C-1.66 5.67 -2.32 5.34 -3 5 C-2.01 3.35 -1.02 1.7 0 0 Z " fill="#56130B" transform="translate(373,473)"/>
<path d="M0 0 C0.66 0 1.32 0 2 0 C1.38722388 2.96175123 0.74627478 4.38058783 -1 7 C-1.66 7 -2.32 7 -3 7 C-2.38722388 4.03824877 -1.74627478 2.61941217 0 0 Z " fill="#D2B77F" transform="translate(492,265)"/>
<path d="M0 0 C-1.28650706 0.69710731 -2.57940665 1.38242876 -3.875 2.0625 C-4.95394531 2.63677734 -4.95394531 2.63677734 -6.0546875 3.22265625 C-6.69664062 3.47917969 -7.33859375 3.73570312 -8 4 C-8.66 3.67 -9.32 3.34 -10 3 C-9.67 2.01 -9.34 1.02 -9 0 C-2.25 -1.125 -2.25 -1.125 0 0 Z " fill="#D7BB83" transform="translate(657,722)"/>
<path d="M0 0 C2.475 0.99 2.475 0.99 5 2 C3.625 4.5 3.625 4.5 2 7 C1.34 7 0.68 7 0 7 C0 4.69 0 2.38 0 0 Z " fill="#D7BD84" transform="translate(419,703)"/>
<path d="M0 0 C1.46726798 3.81489674 0.43336419 6.29011622 -1 10 C-1.185625 9.071875 -1.185625 9.071875 -1.375 8.125 C-1.87197356 5.80879168 -1.87197356 5.80879168 -4 4 C-2.68 2.68 -1.36 1.36 0 0 Z " fill="#500C06" transform="translate(484,602)"/>
<path d="M0 0 C4.67692308 1.47692308 4.67692308 1.47692308 6.3125 4.125 C6.539375 4.74375 6.76625 5.3625 7 6 C4 6 4 6 2.375 4.6875 C1 3 1 3 0 0 Z " fill="#DAC488" transform="translate(461,263)"/>
<path d="M0 0 C0.66 0.33 1.32 0.66 2 1 C0.02 2.98 -1.96 4.96 -4 7 C-4.99 6.67 -5.98 6.34 -7 6 C-4.69 4.02 -2.38 2.04 0 0 Z " fill="#541009" transform="translate(356,486)"/>
<path d="M0 0 C0.66 0.33 1.32 0.66 2 1 C0.02 2.98 -1.96 4.96 -4 7 C-4.99 6.67 -5.98 6.34 -7 6 C-4.69 4.02 -2.38 2.04 0 0 Z " fill="#54110B" transform="translate(365,479)"/>
<path d="M0 0 C0.33 0.66 0.66 1.32 1 2 C-2.375 2.625 -2.375 2.625 -6 3 C-6.66 2.34 -7.32 1.68 -8 1 C-5.29120665 -0.35439668 -2.99066732 -0.06501451 0 0 Z " fill="#D2B57D" transform="translate(252,409)"/>
<path d="M0 0 C1.32 0.99 2.64 1.98 4 3 C3.67 4.32 3.34 5.64 3 7 C2.01 7 1.02 7 0 7 C-0.93423645 3.98968256 -1.04449911 3.13349732 0 0 Z " fill="#662416" transform="translate(487,699)"/>
<path d="M0 0 C0.33 0 0.66 0 1 0 C0.67 2.31 0.34 4.62 0 7 C-1.32 5.68 -2.64 4.36 -4 3 C-3.67 2.34 -3.34 1.68 -3 1 C-1.515 1.99 -1.515 1.99 0 3 C0 2.01 0 1.02 0 0 Z " fill="#DEC68A" transform="translate(688,674)"/>
<path d="M0 0 C0.66 0.33 1.32 0.66 2 1 C-0.06756277 3.7972908 -1.14440371 4.02692273 -4.6875 4.6875 C-5.780625 4.790625 -6.87375 4.89375 -8 5 C-5.45378681 2.99940392 -3.01962385 1.20784954 0 0 Z " fill="#D7C089" transform="translate(708,305)"/>
</svg>
